<svg xmlns="http://www.w3.org/2000/svg" xmlns:xlink="http://www.w3.org/1999/xlink" viewBox="0 0 72 72"><defs><style>.cls-1{fill:#757575;}.cls-2{fill:url(#Degradado_sin_nombre_11);}.cls-3{fill:#fff;}</style><linearGradient id="Degradado_sin_nombre_11" x1="36" y1="-11.5" x2="36" y2="91.02" gradientUnits="userSpaceOnUse"><stop offset="0" stop-color="#00bfa5" stop-opacity="0.8"/><stop offset="1" stop-opacity="0.8"/></linearGradient></defs><title>Caja de compensación</title><g id="Capa_2" data-name="Capa 2"><g id="Capa_1-2" data-name="Capa 1"><circle class="cls-1" cx="36" cy="36" r="36"/><circle class="cls-2" cx="36" cy="36" r="36"/><path class="cls-3" d="M50.37,22.09a32.79,32.79,0,0,1-14-4.4.81.81,0,0,0-.8,0,32.79,32.79,0,0,1-14,4.4.82.82,0,0,0-.77.82V38.46a12.42,12.42,0,0,0,2.39,7.27,20.3,20.3,0,0,0,5.12,4.92,30.75,30.75,0,0,0,7.38,3.72.8.8,0,0,0,.5,0,30.75,30.75,0,0,0,7.38-3.72,20.3,20.3,0,0,0,5.12-4.92,12.42,12.42,0,0,0,2.39-7.27V22.91a.82.82,0,0,0-.77-.82ZM49.5,38.46c0,4.07-2.28,7.71-6.77,10.82A30.94,30.94,0,0,1,36,52.73a31,31,0,0,1-6.7-3.43c-4.51-3.12-6.8-6.76-6.8-10.84V23.66A34.51,34.51,0,0,0,36,19.34a34.51,34.51,0,0,0,13.5,4.32v14.8Z"/><path class="cls-3" d="M39.06,39c-.12-.69-.24-1.4-.34-2.11a4.91,4.91,0,1,0-5.44,0c-.1.71-.22,1.42-.34,2.11-.23,1.43-.48,2.9-.62,4.36a.85.85,0,0,0,.21.63.83.83,0,0,0,.61.26h5.72a.83.83,0,0,0,.61-.26.85.85,0,0,0,.21-.63c-.14-1.46-.39-2.93-.62-4.36Zm-2-2.43c.12.91.28,1.82.42,2.7.19,1.1.37,2.23.51,3.35h-3.9c.14-1.12.32-2.25.51-3.35.14-.88.3-1.79.42-2.7a.81.81,0,0,0-.44-.84,3.27,3.27,0,1,1,2.92,0,.81.81,0,0,0-.44.84Z"/><path class="cls-3" d="M35.63,21.39A36.78,36.78,0,0,1,24.82,25a.83.83,0,0,0-.69.81V38.46c0,3.47,2,6.64,6,9.41a29.1,29.1,0,0,0,5.58,3,.83.83,0,0,0,.62,0c.6-.24,1.54-.65,2.61-1.2a.82.82,0,1,0-.76-1.46c-.84.44-1.6.78-2.16,1a27,27,0,0,1-4.95-2.69c-3.5-2.45-5.28-5.17-5.28-8.07V26.52A38.47,38.47,0,0,0,36,23a38.47,38.47,0,0,0,10.23,3.48V38.46a8.58,8.58,0,0,1-2.92,6.12.82.82,0,0,0,0,1.16.81.81,0,0,0,1.15,0,10.18,10.18,0,0,0,3.41-7.29V25.83a.83.83,0,0,0-.69-.81,36.78,36.78,0,0,1-10.81-3.63.81.81,0,0,0-.74,0Z"/></g></g></svg>