<svg xmlns="http://www.w3.org/2000/svg" xmlns:xlink="http://www.w3.org/1999/xlink" viewBox="0 0 72 72"><defs><style>.cls-1{fill:#757575;}.cls-2{fill:url(#Degradado_sin_nombre_11);}.cls-3{fill:#fff;}</style><linearGradient id="Degradado_sin_nombre_11" x1="36" y1="-11.5" x2="36" y2="91.02" gradientUnits="userSpaceOnUse"><stop offset="0" stop-color="#00bfa5" stop-opacity="0.8"/><stop offset="1" stop-opacity="0.8"/></linearGradient></defs><title>Ciudades</title><g id="Capa_2" data-name="Capa 2"><g id="Capa_1-2" data-name="Capa 1"><circle class="cls-1" cx="36" cy="36" r="36"/><circle class="cls-2" cx="36" cy="36" r="36"/><path class="cls-3" d="M46.78,21.83a14.89,14.89,0,0,0-21.56,0,16.08,16.08,0,0,0,0,22.21L35.33,54.5a.92.92,0,0,0,1.34,0l4.79-5a1,1,0,0,0,.26-.66.91.91,0,0,0-.28-.66.94.94,0,0,0-.67-.26.91.91,0,0,0-.66.28L36,52.5l-9.44-9.76a14.24,14.24,0,0,1,0-19.61,13,13,0,0,1,18.88,0,14.24,14.24,0,0,1,0,19.61l-2.52,2.6a.93.93,0,0,0-.26.67.91.91,0,0,0,.28.66.94.94,0,0,0,.67.26.92.92,0,0,0,.66-.28L46.78,44a16.08,16.08,0,0,0,0-22.21Z"/><path class="cls-3" d="M31.24,40.3a1.53,1.53,0,0,0,1.79,0l3-2.16,3,2.16a1.53,1.53,0,0,0,2.35-1.7l-1.14-3.49,3-2.16a1.52,1.52,0,0,0-.89-2.76H38.59L37.45,26.7a1.53,1.53,0,0,0-2.9,0l-1.13,3.49H29.74A1.52,1.52,0,0,0,28.85,33l3,2.16L30.68,38.6A1.52,1.52,0,0,0,31.24,40.3Zm7.64-6.56a1.53,1.53,0,0,0-.56,1.71l.88,2.71-2.3-1.68a1.56,1.56,0,0,0-1.8,0l-2.3,1.68.88-2.71a1.53,1.53,0,0,0-.56-1.71l-2.31-1.68h2.86A1.53,1.53,0,0,0,35.12,31L36,28.3,36.88,31a1.53,1.53,0,0,0,1.45,1.05h2.86Z"/></g></g></svg>