<svg xmlns="http://www.w3.org/2000/svg" xmlns:xlink="http://www.w3.org/1999/xlink" viewBox="0 0 72 72"><defs><style>.cls-1{fill:#757575;}.cls-2{fill:url(#Degradado_sin_nombre_11);}.cls-3{fill:#fafafa;}</style><linearGradient id="Degradado_sin_nombre_11" x1="36" y1="-11.5" x2="36" y2="91.02" gradientUnits="userSpaceOnUse"><stop offset="0" stop-color="#00bfa5" stop-opacity="0.8"/><stop offset="1" stop-opacity="0.8"/></linearGradient></defs><title>Departamentos</title><g id="Capa_2" data-name="Capa 2"><g id="Capa_1-2" data-name="Capa 1"><circle class="cls-1" cx="36" cy="36" r="36"/><circle class="cls-2" cx="36" cy="36" r="36"/><path class="cls-3" d="M50.51,21.48a1.4,1.4,0,0,0-.76-.57l-.63-.19a1.31,1.31,0,0,0-1,.13,1.4,1.4,0,0,0-.57.76l-.17.65-.61-.17.34-1.24a1.28,1.28,0,0,0-.13-1,1.35,1.35,0,0,0-.76-.57l-3.67-1a1.28,1.28,0,0,0-1,.13,1,1,0,0,0-.57.76l-.43,1.57a.69.69,0,0,0-.14.27l-2,7.35a.65.65,0,0,0,.45.76h0l-1.16,4.31h-.31V23.32a7.87,7.87,0,0,0-1.71-4.88l-1-1.2a.65.65,0,0,0-1,0l-1,1.2a7.88,7.88,0,0,0-1.72,4.88V33.46h-.43l-2.92-11-.32-1.2A3.16,3.16,0,0,0,23.64,19a3,3,0,0,0-1.9,1.46,3.34,3.34,0,0,0-.31,2.47l.31,1.2,0,.06,2.53,9.55A2.52,2.52,0,0,0,23,36a2.55,2.55,0,0,0,1.9,2.46v14A2.54,2.54,0,0,0,27.38,55H41.32a2.54,2.54,0,0,0,2.54-2.53v-14a2.54,2.54,0,0,0-.64-5h-.09l.81-3h.11a.48.48,0,0,0,.31-.06.5.5,0,0,0,.32-.38l1.8-6.74.62.17-1.28,4.86a1.29,1.29,0,0,0,.13,1,1.4,1.4,0,0,0,.76.57l.63.19a.61.61,0,0,0,.32.06,1.29,1.29,0,0,0,1.2-1l1.78-6.72a1.29,1.29,0,0,0-.13-.95Zm-8.24-2,3.68,1-.32,1.21-3.67-1Zm-6,4.43v9.51H35V24ZM33.91,19.2l.44-.57.51.57a7,7,0,0,1,1.39,3.49h-3.8a6.65,6.65,0,0,1,1.46-3.49ZM32.45,24h1.27v9.51H32.45Zm-5.63-.52,2.72,10H25.61l-2.46-9Zm-4-2.33a1.89,1.89,0,0,1,1.2-.88,1,1,0,0,1,.45-.07,1.52,1.52,0,0,1,1,.26,2,2,0,0,1,.89,1.14l.18.6-3.68,1-.18-.59a2,2,0,0,1,.19-1.46Zm18.5,32.63H27.38a1.27,1.27,0,0,1-1.26-1.26V38.53H42.59v3.16H31.82a.61.61,0,0,0-.64.64v7.6a.6.6,0,0,0,.64.63H42.59v1.91a1.27,1.27,0,0,1-1.27,1.26Zm1.27-9.5H34.35a.59.59,0,0,0-.63.63.6.6,0,0,0,.63.64h8.24v1.26h-7a.6.6,0,0,0-.63.64.59.59,0,0,0,.63.63h7V49.3H32.45V43H42.59ZM44.49,36a1.27,1.27,0,0,1-1.27,1.27H25.48A1.27,1.27,0,0,1,24.22,36a1.25,1.25,0,0,1,.87-1.2h0s.06,0,.09,0a1.43,1.43,0,0,1,.29,0H43.22A1.27,1.27,0,0,1,44.49,36Zm-5.32-2.53,1-4,2.46.67-.87,3.31Zm4.44-4.39-3.62-1h-.06L41.57,22l3.68,1Zm4-.24L47,28.64l1.41-5.31a.78.78,0,0,0,0-.14.37.37,0,0,0,0-.11l.31-1.15.63.19Z"/></g></g></svg>