<svg xmlns="http://www.w3.org/2000/svg" xmlns:xlink="http://www.w3.org/1999/xlink" viewBox="0 0 72 72"><defs><style>.cls-1{fill:#757575;}.cls-2{fill:url(#Degradado_sin_nombre_11);}.cls-3{fill:#fff;}</style><linearGradient id="Degradado_sin_nombre_11" x1="36" y1="-11.5" x2="36" y2="91.02" gradientUnits="userSpaceOnUse"><stop offset="0" stop-color="#00bfa5" stop-opacity="0.8"/><stop offset="1" stop-opacity="0.8"/></linearGradient></defs><title>Documentos de Facturacion</title><g id="Capa_2" data-name="Capa 2"><g id="Capa_1-2" data-name="Capa 1"><circle class="cls-1" cx="36" cy="36" r="36"/><circle class="cls-2" cx="36" cy="36" r="36"/><path class="cls-3" d="M39.17,30.93a6.94,6.94,0,0,0-4,1.27H27.77a.6.6,0,0,0-.64.63.61.61,0,0,0,.64.64h6A6.88,6.88,0,0,0,32.46,36H27.77a.6.6,0,0,0-.64.63.61.61,0,0,0,.64.64h4.46c0,.2,0,.42,0,.63a7,7,0,0,0,.26,1.9H27.77a.6.6,0,0,0-.64.63.61.61,0,0,0,.64.64H33a7,7,0,1,0,6.22-10.14Zm0,12.67a5.67,5.67,0,0,1-5.7-5.7,5.29,5.29,0,0,1,.1-1.06s0-.08,0-.13a5.66,5.66,0,0,1,2.09-3.33.41.41,0,0,0,.13-.1A5.71,5.71,0,1,1,39.17,43.6Z"/><path class="cls-3" d="M42.65,34.8a.62.62,0,0,0-.89.19l-3.35,5.06-2-2a.63.63,0,1,0-.88.89l2.53,2.53a.56.56,0,0,0,.44.19.5.5,0,0,0,.51-.32l3.8-5.7a.61.61,0,0,0-.19-.88Z"/><path class="cls-3" d="M51.2,17H26.5a3.14,3.14,0,0,0-3.17,3.17v26H18.9A1.87,1.87,0,0,0,17,48V51.2A3.81,3.81,0,0,0,20.8,55H44.87a3.78,3.78,0,0,0,2.53-1,3.64,3.64,0,0,0,1.27-2.79V25.87H53.1A1.87,1.87,0,0,0,55,24V20.8A3.81,3.81,0,0,0,51.2,17ZM20.8,53.73a2.54,2.54,0,0,1-2.53-2.53V48a.63.63,0,0,1,.63-.63H41.07v3.8a3.65,3.65,0,0,0,1,2.53ZM47.4,20.8V51.2a2.66,2.66,0,0,1-.82,1.9,3,3,0,0,1-1.62.64h-.09a2.5,2.5,0,0,1-1.19-.3,2.68,2.68,0,0,1-1.35-2.36v-4.3a.6.6,0,0,0-.63-.64H24.6v-26a1.86,1.86,0,0,1,1.9-1.9H48.35a5.66,5.66,0,0,0-.34.47,3.91,3.91,0,0,0-.61,1.88v.18ZM53.73,24a.63.63,0,0,1-.63.63H48.67V20.8a2.53,2.53,0,1,1,5.06,0Z"/><path class="cls-3" d="M32.2,22.07h7.6a.6.6,0,0,0,.63-.64.59.59,0,0,0-.63-.63H32.2a.59.59,0,0,0-.63.63.6.6,0,0,0,.63.64Z"/><path class="cls-3" d="M27.77,25.87H44.23a.61.61,0,0,0,.64-.64.6.6,0,0,0-.64-.63H27.77a.6.6,0,0,0-.64.63.61.61,0,0,0,.64.64Z"/><path class="cls-3" d="M27.77,29.67H44.23a.61.61,0,0,0,.64-.64.6.6,0,0,0-.64-.63H27.77a.6.6,0,0,0-.64.63.61.61,0,0,0,.64.64Z"/></g></g></svg>