<svg xmlns="http://www.w3.org/2000/svg" xmlns:xlink="http://www.w3.org/1999/xlink" viewBox="0 0 72 72"><defs><style>.cls-1{fill:#757575;}.cls-2{fill:url(#Degradado_sin_nombre_11);}.cls-3{fill:#f2f2f2;}</style><linearGradient id="Degradado_sin_nombre_11" x1="36" y1="-11.5" x2="36" y2="91.02" gradientUnits="userSpaceOnUse"><stop offset="0" stop-color="#00bfa5" stop-opacity="0.8"/><stop offset="1" stop-opacity="0.8"/></linearGradient></defs><title>Entidades de salud</title><g id="Capa_2" data-name="Capa 2"><g id="Capa_1-2" data-name="Capa 1"><circle class="cls-1" cx="36" cy="36" r="36"/><circle class="cls-2" cx="36" cy="36" r="36"/><path class="cls-3" d="M54.3,32l-4.9-9-.06-.11L41.2,27.26V18H30.8v9.26l-8.14-4.41-4.91,9L17.7,32l7.38,4L17.7,40l4.9,9,.06.11,8.14-4.41V54H41.2V44.74l8.14,4.41,4.91-9,0-.11-7.38-4ZM39.83,42.43v10.2H32.17V42.43l-9,4.86-3.65-6.73,8.21-4.45L28,36l-8.4-4.56,3.65-6.73L32,29.47l.18.1V19.37h7.66v10.2l9-4.86,3.65,6.73-8.21,4.45L44,36l8.4,4.56-3.65,6.73L40,42.53Z"/><path class="cls-3" d="M36.07,23.2a1.92,1.92,0,0,1-.6,1.4,3.26,3.26,0,0,0,0,4.52,1.91,1.91,0,0,1,0,2.78,3.29,3.29,0,0,0-.91,2.27,3.24,3.24,0,0,0,.91,2.26,1.91,1.91,0,0,1,0,2.78,3.27,3.27,0,0,0,0,4.53,1.92,1.92,0,0,1,.6,1.4,1.89,1.89,0,0,1-.6,1.39,3.27,3.27,0,0,0-.91,2.27v.12h1.37V48.8a1.92,1.92,0,0,1,.6-1.4,3.2,3.2,0,0,0,.91-2.26,3.27,3.27,0,0,0-.91-2.27,1.89,1.89,0,0,1-.6-1.39,1.93,1.93,0,0,1,.6-1.4,3.2,3.2,0,0,0,.91-2.26,3.24,3.24,0,0,0-.91-2.26,1.91,1.91,0,0,1-.6-1.39,1.93,1.93,0,0,1,.6-1.4,3.26,3.26,0,0,0,0-4.52,1.91,1.91,0,0,1,0-2.78,3.27,3.27,0,0,0,.91-2.27v-.12H36.07Z"/></g></g></svg>