<svg xmlns="http://www.w3.org/2000/svg" xmlns:xlink="http://www.w3.org/1999/xlink" viewBox="0 0 72 72"><defs><style>.cls-1{fill:#757575;}.cls-2{fill:url(#Degradado_sin_nombre_11);}.cls-3{fill:#fff;}</style><linearGradient id="Degradado_sin_nombre_11" x1="36" y1="-11.5" x2="36" y2="91.02" gradientUnits="userSpaceOnUse"><stop offset="0" stop-color="#00bfa5" stop-opacity="0.8"/><stop offset="1" stop-opacity="0.8"/></linearGradient></defs><title>Horario Laboral</title><g id="Capa_2" data-name="Capa 2"><g id="Capa_1-2" data-name="Capa 1"><circle class="cls-1" cx="36" cy="36" r="36"/><circle class="cls-2" cx="36" cy="36" r="36"/><path class="cls-3" d="M44.1,38.77l-.64,0V37.71a.63.63,0,0,0-.64-.64H39.41a.64.64,0,0,0-.64.64v2.56a.63.63,0,0,0,.25.5A7.48,7.48,0,0,0,37.17,49H21.71V23.84H46.88v3.84H24.44a.64.64,0,0,0-.64.64.64.64,0,0,0,.64.64H46.88v7.89a.64.64,0,1,0,1.28,0V23.2a.64.64,0,0,0-.64-.64H43V20.22a1.92,1.92,0,0,0-3.84,0v2.34H29.39V20.22a1.92,1.92,0,0,0-3.84,0v2.34H21.07a.64.64,0,0,0-.64.64V49.65a.64.64,0,0,0,.64.64H37.84A7.46,7.46,0,1,0,44.1,38.77ZM40.48,20.22a.64.64,0,0,1,1.28,0v2.34H40.48Zm-13.65,0a.64.64,0,0,1,1.28,0v2.34H26.83ZM40.05,38.35h2.14V39a7.46,7.46,0,0,0-1.55.61h-.59ZM44.1,52.42a6.19,6.19,0,1,1,6.19-6.18,6.18,6.18,0,0,1-6.19,6.18Z"/><path class="cls-3" d="M44.53,42.61a.64.64,0,0,0-.64.64V46.4l-1.52,1.52a.64.64,0,1,0,.91.9l1.7-1.7a.66.66,0,0,0,.19-.46V43.25a.64.64,0,0,0-.64-.64Z"/><path class="cls-3" d="M29.17,31.09H25.76a.64.64,0,0,0-.64.64v2.56a.64.64,0,0,0,.64.64h3.41a.63.63,0,0,0,.64-.64V31.73a.64.64,0,0,0-.64-.64Zm-.64,2.56H26.4V32.37h2.13Z"/><path class="cls-3" d="M36,31.09H32.59a.64.64,0,0,0-.64.64v2.56a.63.63,0,0,0,.64.64H36a.64.64,0,0,0,.64-.64V31.73a.64.64,0,0,0-.64-.64Zm-.64,2.56H33.23V32.37h2.13Z"/><path class="cls-3" d="M42.82,31.09H39.41a.64.64,0,0,0-.64.64v2.56a.64.64,0,0,0,.64.64h3.41a.63.63,0,0,0,.64-.64V31.73a.64.64,0,0,0-.64-.64Zm-.63,2.56H40.05V32.37h2.14Z"/><path class="cls-3" d="M29.17,37.07H25.76a.64.64,0,0,0-.64.64v2.56a.64.64,0,0,0,.64.64h3.41a.64.64,0,0,0,.64-.64V37.71a.63.63,0,0,0-.64-.64Zm-.64,2.56H26.4V38.35h2.13Z"/><path class="cls-3" d="M36,37.07H32.59a.63.63,0,0,0-.64.64v2.56a.64.64,0,0,0,.64.64H36a.64.64,0,0,0,.64-.64V37.71a.64.64,0,0,0-.64-.64Zm-.64,2.56H33.23V38.35h2.13Z"/><path class="cls-3" d="M29.17,43H25.76a.64.64,0,0,0-.64.64v2.56a.64.64,0,0,0,.64.64h3.41a.64.64,0,0,0,.64-.64V43.68a.63.63,0,0,0-.64-.64Zm-.64,2.56H26.4V44.32h2.13Z"/><path class="cls-3" d="M36,43H32.59a.63.63,0,0,0-.64.64v2.56a.64.64,0,0,0,.64.64H36a.64.64,0,0,0,.64-.64V43.68A.64.64,0,0,0,36,43Zm-.64,2.56H33.23V44.32h2.13Z"/></g></g></svg>