<svg xmlns="http://www.w3.org/2000/svg" xmlns:xlink="http://www.w3.org/1999/xlink" viewBox="0 0 72 72"><defs><style>.cls-1{fill:#757575;}.cls-2{fill:url(#Degradado_sin_nombre_11);}.cls-3{fill:#fff;}</style><linearGradient id="Degradado_sin_nombre_11" x1="36" y1="-11.5" x2="36" y2="91.02" gradientUnits="userSpaceOnUse"><stop offset="0" stop-color="#00bfa5" stop-opacity="0.8"/><stop offset="1" stop-opacity="0.8"/></linearGradient></defs><title>Impuestos y tarifas</title><g id="Capa_2" data-name="Capa 2"><g id="Capa_1-2" data-name="Capa 1"><circle class="cls-1" cx="36" cy="36" r="36"/><circle class="cls-2" cx="36" cy="36" r="36"/><path class="cls-3" d="M22.58,53.5H45.92a.58.58,0,0,0,.58-.58V50h2.92a.58.58,0,0,0,.58-.58V19.08a.58.58,0,0,0-.58-.58H26.08a.58.58,0,0,0-.58.58V22H22.58a.58.58,0,0,0-.58.58V52.92A.58.58,0,0,0,22.58,53.5ZM41.83,24l2.68,2.68H41.83ZM26.67,19.67H48.83V48.83H46.5V27.25a.59.59,0,0,0-.17-.41l-4.67-4.67a.59.59,0,0,0-.41-.17H26.67Zm-3.5,3.5h17.5v4.08a.58.58,0,0,0,.58.58h4.08v24.5H23.17Z"/><path class="cls-3" d="M38.5,32.09,28.59,42a.63.63,0,0,0-.16.27l-1.12,4.51-.47.47.82.83.47-.47,4.51-1.13a.56.56,0,0,0,.27-.15l9.92-9.92a3.07,3.07,0,0,0,0-4.32A3.07,3.07,0,0,0,38.5,32.09ZM31.57,44.17,38,37.7l.93.93L32.5,45.09Zm-1.75-1.75L36.29,36l.93.93-6.47,6.46Zm7.3-7.29.63-.64,2.68,2.68-.64.63Zm-7.8,8.43,2,2-2.73.68Zm12.68-8-.75.75-2.68-2.67.76-.76a1.9,1.9,0,0,1,2.67,0,1.88,1.88,0,0,1,0,2.68Z"/><rect class="cls-3" x="27.25" y="48.83" width="14" height="1.17"/><rect class="cls-3" x="25.38" y="30.17" width="8.41" height="1.17" transform="translate(-12.41 38.31) rotate(-56.31)"/><path class="cls-3" d="M30.75,32.5a1.75,1.75,0,1,0,1.75-1.75A1.76,1.76,0,0,0,30.75,32.5Zm1.75-.58a.58.58,0,1,1-.58.58A.58.58,0,0,1,32.5,31.92Z"/><path class="cls-3" d="M28.42,29a1.75,1.75,0,1,0-1.75,1.75A1.76,1.76,0,0,0,28.42,29Zm-1.75.58a.58.58,0,1,1,.58-.58A.58.58,0,0,1,26.67,29.58Z"/></g></g></svg>