<svg xmlns="http://www.w3.org/2000/svg" xmlns:xlink="http://www.w3.org/1999/xlink" viewBox="0 0 72 72"><defs><style>.cls-1{fill:#757575;}.cls-2{fill:url(#Degradado_sin_nombre_11);}.cls-3{fill:#fafafa;}</style><linearGradient id="Degradado_sin_nombre_11" x1="36" y1="-11.5" x2="36" y2="91.02" gradientUnits="userSpaceOnUse"><stop offset="0" stop-color="#00bfa5" stop-opacity="0.8"/><stop offset="1" stop-opacity="0.8"/></linearGradient></defs><title>Monetización salarial</title><g id="Capa_2" data-name="Capa 2"><g id="Capa_1-2" data-name="Capa 1"><circle class="cls-1" cx="36" cy="36" r="36"/><circle class="cls-2" cx="36" cy="36" r="36"/><path class="cls-3" d="M37.36,44.23A4.22,4.22,0,0,0,40,38.88l-1.7-5a4.22,4.22,0,1,0-8,2.72l1.7,5a4.23,4.23,0,0,0,5.36,2.64Zm-5.87-8a3,3,0,0,1,5.61-1.91l1.7,5a3,3,0,1,1-5.6,1.91Z"/><path class="cls-3" d="M50.41,19.35,17,30.7l.88,2.59-2.58.88,6.28,18.48L55,41.3l-.88-2.59,2.58-.88Zm.43,5.19a4.2,4.2,0,0,1-1.54,0l-.6-1.75-1.75.6A4.69,4.69,0,0,1,46,22.17L49.62,21ZM43.12,26a5.75,5.75,0,0,0,6.42,3.17l2.22,6.5a5.74,5.74,0,0,0-3.17,6.43L27.18,49.42a5.74,5.74,0,0,0-6.43-3.16l-2.21-6.51a5.74,5.74,0,0,0,3.16-6.43Zm6,2a4.47,4.47,0,0,1-4.82-2.37l3.59-1.22Zm-25.6,3.37a5.9,5.9,0,0,0-.13-1.51l21.41-7.28a5.63,5.63,0,0,0,.82,1.27Zm26.2-5.5a5.48,5.48,0,0,0,1.51-.13l2.21,6.51a5.31,5.31,0,0,0-1.27.82ZM18.61,31.49l3.6-1.22a4.68,4.68,0,0,1,0,1.54l-3.15,1.07Zm1.89,2.24a4.48,4.48,0,0,1-2.37,4.82L16.91,35Zm.66,13.73A4.48,4.48,0,0,1,26,49.83l-3.6,1.22Zm28.63-5.73a4.49,4.49,0,0,1,2.38-4.82l1.22,3.6Zm3.91-4.21-1.07-3.14a4.48,4.48,0,0,1,1.24-.93l1.22,3.6Z"/></g></g></svg>