<svg xmlns="http://www.w3.org/2000/svg" xmlns:xlink="http://www.w3.org/1999/xlink" viewBox="0 0 72 72"><defs><style>.cls-1{fill:#757575;}.cls-2{fill:url(#Degradado_sin_nombre_11);}.cls-3{fill:#fff;}</style><linearGradient id="Degradado_sin_nombre_11" x1="36" y1="-11.5" x2="36" y2="91.02" gradientUnits="userSpaceOnUse"><stop offset="0" stop-color="#00bfa5" stop-opacity="0.8"/><stop offset="1" stop-opacity="0.8"/></linearGradient></defs><title>Salario mínimo</title><g id="Capa_2" data-name="Capa 2"><g id="Capa_1-2" data-name="Capa 1"><circle class="cls-1" cx="36" cy="36" r="36"/><circle class="cls-2" cx="36" cy="36" r="36"/><path class="cls-3" d="M36,17.16A18.84,18.84,0,0,0,21.35,47.84a.74.74,0,0,0,1.06.11.76.76,0,0,0,.11-1.06,17.33,17.33,0,1,1,2.59,2.59.76.76,0,0,0-1.06.11.74.74,0,0,0,.11,1.06A18.84,18.84,0,1,0,36,17.16Z"/><path class="cls-3" d="M46.63,27.17a.76.76,0,0,0-1.06-.1.75.75,0,0,0-.1,1.06,12.35,12.35,0,1,1-2.84-2.5.75.75,0,1,0,.81-1.27,13.79,13.79,0,1,0,3.19,2.81Z"/><path class="cls-3" d="M36.34,35.33c-1.86-.93-3.61-1.81-3.61-3.35s1.7-2.26,3.27-2.26,3.27.71,3.27,2.26a.75.75,0,1,0,1.5,0c0-2.21-1.92-3.48-4-3.72V27a.75.75,0,1,0-1.5,0v1.3c-2.1.24-4,1.51-4,3.72,0,2.48,2.35,3.65,4.43,4.69,1.86.93,3.61,1.81,3.61,3.35s-1.7,2.26-3.27,2.26-3.27-.71-3.27-2.26a.75.75,0,1,0-1.5,0c0,2.21,1.92,3.48,4,3.72V45a.75.75,0,1,0,1.5,0v-1.3c2.1-.24,4-1.51,4-3.72,0-2.48-2.35-3.65-4.43-4.69Z"/></g></g></svg>