<svg xmlns="http://www.w3.org/2000/svg" xmlns:xlink="http://www.w3.org/1999/xlink" viewBox="0 0 72 72"><defs><style>.cls-1{fill:#757575;}.cls-2{fill:url(#Degradado_sin_nombre_11);}.cls-3{fill:#fff;}</style><linearGradient id="Degradado_sin_nombre_11" x1="36" y1="-11.5" x2="36" y2="91.02" gradientUnits="userSpaceOnUse"><stop offset="0" stop-color="#00bfa5" stop-opacity="0.8"/><stop offset="1" stop-opacity="0.8"/></linearGradient></defs><title>Tipos de novedades </title><g id="Capa_2" data-name="Capa 2"><g id="Capa_1-2" data-name="Capa 1"><circle class="cls-1" cx="36" cy="36" r="36"/><circle class="cls-2" cx="36" cy="36" r="36"/><path class="cls-3" d="M50.44,23.45H38.22a.56.56,0,0,0,0,1.11H50.44a1.85,1.85,0,0,1,1.85,1.85v.66a2.94,2.94,0,0,0-1.85-.66H36.56V24a3,3,0,0,0-3-3h-12a3,3,0,0,0-3,3V50.4a.56.56,0,0,0,.55.56h33.7a.56.56,0,0,0,.55-.56v-24a3,3,0,0,0-3-3Zm1.85,26.39H19.71V24a1.85,1.85,0,0,1,1.85-1.85h12A1.85,1.85,0,0,1,35.44,24v3a.55.55,0,0,0,.56.55H50.44a1.85,1.85,0,0,1,1.85,1.85Z"/><path class="cls-3" d="M43.57,38.21a2.78,2.78,0,1,0-2.78-2.78,2.78,2.78,0,0,0,2.78,2.78Zm0-4.44a1.67,1.67,0,1,1-1.67,1.66,1.66,1.66,0,0,1,1.67-1.66Z"/><path class="cls-3" d="M43.57,39.32a4.61,4.61,0,0,0-2.16.54.56.56,0,0,0-.23.76.55.55,0,0,0,.75.22A3.48,3.48,0,0,1,47,43.35H43.57a.56.56,0,1,0,0,1.11h4a.55.55,0,0,0,.55-.55,4.59,4.59,0,0,0-4.58-4.59Z"/><path class="cls-3" d="M28.48,43.35H25a3.48,3.48,0,0,1,5.07-2.51.55.55,0,0,0,.75-.22.56.56,0,0,0-.23-.76,4.58,4.58,0,0,0-6.74,4,.55.55,0,0,0,.55.55h4.08a.56.56,0,1,0,0-1.11Z"/><path class="cls-3" d="M28.43,38.21a2.78,2.78,0,1,0-2.78-2.78,2.78,2.78,0,0,0,2.78,2.78Zm0-4.44a1.67,1.67,0,1,1-1.67,1.66,1.66,1.66,0,0,1,1.67-1.66Z"/><path class="cls-3" d="M36,38.41a3.58,3.58,0,1,0-3.58-3.57A3.58,3.58,0,0,0,36,38.41Zm0-6a2.47,2.47,0,1,1-2.47,2.47A2.48,2.48,0,0,1,36,32.37Z"/><path class="cls-3" d="M36,39.52a6,6,0,0,0-6,6,.56.56,0,0,0,.55.56h11a.56.56,0,0,0,.55-.56,6,6,0,0,0-6-6ZM31.11,45a4.92,4.92,0,0,1,9.78,0Z"/></g></g></svg>