<svg xmlns="http://www.w3.org/2000/svg" xmlns:xlink="http://www.w3.org/1999/xlink" viewBox="0 0 72 72"><defs><style>.cls-1{fill:#757575;}.cls-2{fill:url(#Degradado_sin_nombre_11);}.cls-3{fill:#fff;}</style><linearGradient id="Degradado_sin_nombre_11" x1="36" y1="-11.5" x2="36" y2="91.02" gradientUnits="userSpaceOnUse"><stop offset="0" stop-color="#00bfa5" stop-opacity="0.8"/><stop offset="1" stop-opacity="0.8"/></linearGradient></defs><title>Tipos de régimen</title><g id="Capa_2" data-name="Capa 2"><g id="Capa_1-2" data-name="Capa 1"><circle class="cls-1" cx="36" cy="36" r="36"/><circle class="cls-2" cx="36" cy="36" r="36"/><rect class="cls-3" x="33.3" y="27.43" width="9.94" height="1.28"/><rect class="cls-3" x="33.3" y="30.63" width="9.94" height="1.28"/><rect class="cls-3" x="33.3" y="37.03" width="9.94" height="1.28"/><rect class="cls-3" x="33.21" y="43.43" width="9.94" height="1.28"/><rect class="cls-3" x="33.21" y="40.23" width="9.94" height="1.28"/><rect class="cls-3" x="33.21" y="33.83" width="9.94" height="1.28"/><rect class="cls-3" x="33.3" y="46.63" width="9.94" height="1.28"/><path class="cls-3" d="M42.38,20.37V18H29.62v2.33h-6.7V54H49.08V20.37Zm0,5.27V24.52h2.68V49.8H26.94V24.52h2.68v1.12ZM30.9,19.32H41.1v5H30.9ZM47.8,52.68H24.2v-31h5.42v1.59h-4V51.08H46.34V23.24h-4V21.65H47.8v31Z"/><rect class="cls-3" x="32.89" y="21.2" width="6.22" height="1.28"/><path class="cls-3" d="M27.68,29.13l2.08,2.08,2.74-2.74-.9-.91L29.76,29.4l-1.18-1.17Z"/><path class="cls-3" d="M29.76,37.55l-1.18-1.18-.9.91,2.08,2.08,2.74-2.75-.9-.9Z"/><path class="cls-3" d="M31.36,43.4l-1.27,1.27L28.83,43.4l-.91.91,1.27,1.26-1.27,1.27.91.91,1.26-1.27,1.27,1.27.9-.91L31,45.57l1.26-1.26Z"/></g></g></svg>