<svg xmlns="http://www.w3.org/2000/svg" xmlns:xlink="http://www.w3.org/1999/xlink" viewBox="0 0 72 72"><defs><style>.cls-1{fill:#757575;}.cls-2{fill:url(#Degradado_sin_nombre_11);}.cls-3{fill:#fff;}</style><linearGradient id="Degradado_sin_nombre_11" x1="36" y1="-11.5" x2="36" y2="91.02" gradientUnits="userSpaceOnUse"><stop offset="0" stop-color="#00bfa5" stop-opacity="0.8"/><stop offset="1" stop-opacity="0.8"/></linearGradient></defs><title>Tipos de producto</title><g id="Capa_2" data-name="Capa 2"><g id="Capa_1-2" data-name="Capa 1"><circle class="cls-1" cx="36" cy="36" r="36"/><circle class="cls-2" cx="36" cy="36" r="36"/><path class="cls-3" d="M27.66,46.13a2.74,2.74,0,0,0-2.39,3,2.74,2.74,0,0,0,2.39,3,2.73,2.73,0,0,0,2.38-3A2.73,2.73,0,0,0,27.66,46.13Zm0,4.76c-.65,0-1.19-.82-1.19-1.79s.54-1.79,1.19-1.79,1.19.83,1.19,1.79S28.31,50.89,27.66,50.89Z"/><rect class="cls-3" x="22.29" y="48.51" width="1.19" height="1.19"/><rect class="cls-3" x="31.83" y="48.51" width="1.19" height="1.19"/><path class="cls-3" d="M48.51,35.4V17.53h-25V43.74h-6V54.47H37.79V49.7h1.79v4.77H54.47V35.4ZM20.42,44.94a2.38,2.38,0,0,1-1.7,1.7v-1.7Zm-1.7,6.64a2.35,2.35,0,0,1,1.7,1.7h-1.7Zm2.93,1.7a3.57,3.57,0,0,0-2.93-2.93V47.87a3.59,3.59,0,0,0,2.93-2.93h12a3.59,3.59,0,0,0,2.93,2.93v2.48a3.57,3.57,0,0,0-2.93,2.93Zm15-6.64a2.39,2.39,0,0,1-1.71-1.7H36.6Zm-1.71,6.64a2.37,2.37,0,0,1,1.71-1.7v1.7Zm2.9-4.77V43.74H24.68v-25H47.32V35.4H39.58V48.51Zm15.49,4.77H40.76V36.6H53.28Z"/><path class="cls-3" d="M52.08,37.79H42v4.76H52.08Zm-1.19,3.57H43.15V39h7.74Z"/><rect class="cls-3" x="41.96" y="43.74" width="1.19" height="1.19"/><rect class="cls-3" x="44.94" y="43.74" width="1.19" height="1.19"/><rect class="cls-3" x="47.92" y="43.74" width="1.19" height="1.19"/><rect class="cls-3" x="50.89" y="43.74" width="1.19" height="1.19"/><rect class="cls-3" x="41.96" y="46.13" width="1.19" height="1.19"/><rect class="cls-3" x="44.94" y="46.13" width="1.19" height="1.19"/><rect class="cls-3" x="47.92" y="46.13" width="1.19" height="1.19"/><rect class="cls-3" x="50.89" y="46.13" width="1.19" height="1.19"/><rect class="cls-3" x="41.96" y="48.51" width="1.19" height="1.19"/><rect class="cls-3" x="44.94" y="48.51" width="1.19" height="1.19"/><rect class="cls-3" x="47.92" y="48.51" width="1.19" height="1.19"/><rect class="cls-3" x="50.89" y="48.51" width="1.19" height="1.19"/><rect class="cls-3" x="41.96" y="50.89" width="1.19" height="1.19"/><rect class="cls-3" x="44.94" y="50.89" width="1.19" height="1.19"/><rect class="cls-3" x="47.92" y="50.89" width="1.19" height="1.19"/><rect class="cls-3" x="50.89" y="50.89" width="1.19" height="1.19"/><path class="cls-3" d="M34.81,20.51H26.47V30h8.34Zm-1.19,8.34h-6V21.7h6v7.15Z"/><rect class="cls-3" x="36.6" y="24.68" width="8.94" height="1.19"/><rect class="cls-3" x="36.6" y="28.85" width="8.94" height="1.19"/><rect class="cls-3" x="26.47" y="33.02" width="19.07" height="1.19"/><rect class="cls-3" x="26.47" y="37.79" width="11.32" height="1.19"/></g></g></svg>