<svg xmlns="http://www.w3.org/2000/svg" xmlns:xlink="http://www.w3.org/1999/xlink" viewBox="0 0 72 72"><defs><style>.cls-1{fill:#757575;}.cls-2{fill:url(#Degradado_sin_nombre_11);}.cls-3{fill:#fff;}</style><linearGradient id="Degradado_sin_nombre_11" x1="36" y1="-11.5" x2="36" y2="91.02" gradientUnits="userSpaceOnUse"><stop offset="0" stop-color="#00bfa5" stop-opacity="0.8"/><stop offset="1" stop-opacity="0.8"/></linearGradient></defs><title>Tipos de crédito</title><g id="Capa_2" data-name="Capa 2"><g id="Capa_1-2" data-name="Capa 1"><circle class="cls-1" cx="36" cy="36" r="36"/><circle class="cls-2" cx="36" cy="36" r="36"/><path class="cls-3" d="M19,49.86h7.56a.63.63,0,0,0,.63-.63h3.15A.63.63,0,0,0,31,48.6V48h1.21l-.56,2.38a.63.63,0,0,0,.38.73l2.75,1.1V53a.63.63,0,0,0,.63.63H51.12a.63.63,0,0,0,.63-.63v-4.5a2.5,2.5,0,0,0,1-4.32,2.49,2.49,0,0,0,0-3.78,2.49,2.49,0,0,0,0-3.78,2.5,2.5,0,0,0-1-4.32V19a.63.63,0,0,0-.63-.63H35.37l-.12,0h0L32.1,19a.65.65,0,0,0-.44.33.62.62,0,0,0,0,.55l3.09,6.8v1.13H31v-.63a.63.63,0,0,0-.63-.63H27.18a.63.63,0,0,0-.63-.63H19a.63.63,0,0,0-.63.63V49.23A.63.63,0,0,0,19,49.86Zm14,.25,1.78-7.48v8.19ZM41.5,32.8l.09,0a2.43,2.43,0,0,0,.83-.34l0,0a2,2,0,0,0,.35-.29h0a2.69,2.69,0,0,0,.27-.32l.07-.11.05-.07a2.11,2.11,0,0,1,.35,0,4.45,4.45,0,0,1,2.44.73l-.17.07-.15,0-.31.17-.08,0a2.3,2.3,0,0,0-.34.28l-.08.09a1.83,1.83,0,0,0-.21.26.57.57,0,0,0-.08.13,2.2,2.2,0,0,0-.15.26l-.06.15a1.71,1.71,0,0,0-.09.3.74.74,0,0,0,0,.14,2.42,2.42,0,0,0-.05.47,2.33,2.33,0,0,0,.06.53.75.75,0,0,0,0,.16,2.13,2.13,0,0,0,.11.33,1,1,0,0,0,.1.17c.05.09.09.18.15.27l.14.16a1.31,1.31,0,0,0,.2.21l0,.06,0,0a1.37,1.37,0,0,0-.2.22,1.07,1.07,0,0,0-.14.16,2.2,2.2,0,0,0-.15.26,1.62,1.62,0,0,0-.1.18,2.13,2.13,0,0,0-.11.33.75.75,0,0,0,0,.16,2.33,2.33,0,0,0-.06.53,2.63,2.63,0,0,0,.05.49v0c0,.05,0,.09,0,.14a2.29,2.29,0,0,0,.09.28l0,.07a1.09,1.09,0,0,0,.08.15c0,.06.07.13.11.2l.06.09.12.14.07.09a4.34,4.34,0,0,1-1.29.2,4.41,4.41,0,0,1-3.08-7.56H41A2.31,2.31,0,0,0,41.5,32.8Zm2.06,8.87a6.13,6.13,0,0,0,.74-.05.88.88,0,0,0,0,.15,2.37,2.37,0,0,0,0,1.06.75.75,0,0,0,0,.16,2.13,2.13,0,0,0,.11.33,1.62,1.62,0,0,0,.1.18c.05.09.09.17.15.26a1.07,1.07,0,0,0,.14.16,1.37,1.37,0,0,0,.2.22l0,0,0,.06a1.31,1.31,0,0,0-.2.21l-.14.16c-.06.09-.1.18-.15.27l-.1.17a2.13,2.13,0,0,0-.11.33,1,1,0,0,0,0,.16,2.33,2.33,0,0,0-.06.53,2.52,2.52,0,0,0,2.52,2.52h2a5,5,0,0,0-2.56,3.78H40.37A5,5,0,0,0,36,48V32.85h2.86a5.65,5.65,0,0,0,4.7,8.82ZM36,52.38v-3.1a3.81,3.81,0,0,1,3.1,3.1Zm14.49,0h-3.1a3.81,3.81,0,0,1,3.1-3.1Zm1.89-6.3a1.25,1.25,0,0,1-1.26,1.26H46.71a1.26,1.26,0,1,1,0-2.52h4.41A1.26,1.26,0,0,1,52.38,46.08Zm0-3.78a1.25,1.25,0,0,1-1.26,1.26H46.71a1.26,1.26,0,1,1,0-2.52h4.41A1.26,1.26,0,0,1,52.38,42.3Zm0-3.78a1.25,1.25,0,0,1-1.26,1.26H46.71a1,1,0,0,1-.35-.06h0a1.41,1.41,0,0,1-.64-.45h0a1.37,1.37,0,0,1-.16-.32s0,0,0-.06a1.51,1.51,0,0,1-.06-.36,1.27,1.27,0,0,1,1.26-1.26h4.41A1.26,1.26,0,0,1,52.38,38.52Zm0-3.78A1.26,1.26,0,0,1,51.12,36H46.71a1.26,1.26,0,1,1,0-2.52h4.41A1.25,1.25,0,0,1,52.38,34.74ZM50.49,19.62v3.1a3.81,3.81,0,0,1-3.1-3.1ZM36,19.62h3.1a3.81,3.81,0,0,1-3.1,3.1Zm-2.88.46,1.62-.32v3.88ZM36,24a5,5,0,0,0,4.37-4.36h5.76A5,5,0,0,0,50.49,24v8.24H47.77a5.63,5.63,0,0,0-4.21-1.89A2.52,2.52,0,0,0,41,27.81H36V24Zm-.63,5.09H41a1.25,1.25,0,0,1,1.26,1.26,1.18,1.18,0,0,1-.09.46h0a1.2,1.2,0,0,1-.18.31l0,0a1.79,1.79,0,0,1-.25.23h0a1,1,0,0,1-.3.14l-.08,0a1.14,1.14,0,0,1-.33.05H35.37a.63.63,0,0,0-.63.63v5l-2.27,9.52H31V29.07ZM29.7,27.81V48H27.18V27.81Zm-10.08-.63h6.3V48.6h-6.3Z"/></g></g></svg>