<svg xmlns="http://www.w3.org/2000/svg" xmlns:xlink="http://www.w3.org/1999/xlink" viewBox="0 0 72 72"><defs><style>.cls-1{fill:#757575;}.cls-2{fill:url(#Degradado_sin_nombre_11);}.cls-3{fill:#fff;}</style><linearGradient id="Degradado_sin_nombre_11" x1="36" y1="-11.5" x2="36" y2="91.02" gradientUnits="userSpaceOnUse"><stop offset="0" stop-color="#00bfa5" stop-opacity="0.8"/><stop offset="1" stop-opacity="0.8"/></linearGradient></defs><title>Tipos de </title><g id="Capa_2" data-name="Capa 2"><g id="Capa_1-2" data-name="Capa 1"><circle class="cls-1" cx="36" cy="36" r="36"/><circle class="cls-2" cx="36" cy="36" r="36"/><path class="cls-3" d="M53.93,29.83a3.53,3.53,0,0,0-5.32.41L47,28.61,45.68,29.9V18.05h-17l-9.6,9.61V54H45.68V43l8.25-8.24A3.47,3.47,0,0,0,53.93,29.83ZM28.31,20v7.29H21ZM44.53,52.8H20.21V28.48h9.26V19.21H44.53V31.05l-3.7,3.7.82.82L47,30.24l.82.82-14,14-1.47,6.39L38.67,50l5.86-5.86ZM34.6,46.54l2.62,2.62-3.4.78Zm3.77,2.13L35.1,45.4,48.61,31.88l3.28,3.28ZM53.11,33.93l-.41.41-3.27-3.27.41-.41a2.36,2.36,0,0,1,3.27,0A2.33,2.33,0,0,1,53.11,33.93Z"/><rect class="cls-3" x="41.49" y="41.12" width="1.16" height="1.16" transform="translate(-17.16 41.96) rotate(-45)"/><rect class="cls-3" x="43.13" y="39.48" width="1.16" height="1.16" transform="translate(-15.52 42.64) rotate(-45)"/><rect class="cls-3" x="44.77" y="37.84" width="1.16" height="1.16" transform="translate(-13.88 43.33) rotate(-45.01)"/><rect class="cls-3" x="21.94" y="49.9" width="8.69" height="1.16"/><rect class="cls-3" x="35.84" y="23.27" width="1.16" height="1.16"/><rect class="cls-3" x="38.15" y="23.27" width="1.16" height="1.16"/><rect class="cls-3" x="33.52" y="23.27" width="1.16" height="1.16"/><rect class="cls-3" x="21.94" y="32.53" width="16.79" height="1.16"/><rect class="cls-3" x="21.94" y="38.32" width="15.06" height="1.16"/><rect class="cls-3" x="21.94" y="44.11" width="10.43" height="1.16"/></g></g></svg>