<svg xmlns="http://www.w3.org/2000/svg" xmlns:xlink="http://www.w3.org/1999/xlink" viewBox="0 0 72 72"><defs><style>.cls-1{fill:#757575;}.cls-2{fill:url(#Degradado_sin_nombre_11);}.cls-3{fill:#fff;}</style><linearGradient id="Degradado_sin_nombre_11" x1="36" y1="-11.5" x2="36" y2="91.02" gradientUnits="userSpaceOnUse"><stop offset="0" stop-color="#00bfa5" stop-opacity="0.8"/><stop offset="1" stop-opacity="0.8"/></linearGradient></defs><title>Tipo de Contrato</title><g id="Capa_2" data-name="Capa 2"><g id="Capa_1-2" data-name="Capa 1"><circle class="cls-1" cx="36" cy="36" r="36"/><circle class="cls-2" cx="36" cy="36" r="36"/><path class="cls-3" d="M49.1,16.87H22.9a.77.77,0,0,0-.76.77V54.36a.77.77,0,0,0,.76.77H42.82a.74.74,0,0,0,.54-.23l6.27-6.27a.76.76,0,0,0,.23-.54V17.64A.77.77,0,0,0,49.1,16.87ZM23.67,18.4H48.33V47.33H42.81a.75.75,0,0,0-.53.22.76.76,0,0,0-.23.54V53.6H23.67ZM43.58,48.85h3.68l-3.68,3.68Z"/><path class="cls-3" d="M30,44.37a3.48,3.48,0,1,0,3.48,3.47A3.47,3.47,0,0,0,30,44.37Zm0,5.42a1.95,1.95,0,1,1,1.95-1.95A1.95,1.95,0,0,1,30,49.79Z"/><path class="cls-3" d="M39.89,47.2H35.7a.76.76,0,0,0-.77.76.77.77,0,0,0,.77.77h4.19a.77.77,0,0,0,.76-.77A.76.76,0,0,0,39.89,47.2Z"/><path class="cls-3" d="M27.47,23h2.21a.76.76,0,1,0,0-1.52H27.47a.76.76,0,1,0,0,1.52Z"/><path class="cls-3" d="M38.21,23h6.63a.76.76,0,0,0,0-1.52H38.21a.76.76,0,0,0,0,1.52Z"/><path class="cls-3" d="M33.56,26.25H44.84a.77.77,0,0,0,0-1.53H33.56a.77.77,0,0,0,0,1.53Z"/><path class="cls-3" d="M27.12,32.27H44.88a.77.77,0,0,0,0-1.53H27.12a.77.77,0,0,0,0,1.53Z"/><path class="cls-3" d="M27.12,34.86H44.88a.77.77,0,0,0,0-1.53H27.12a.77.77,0,0,0,0,1.53Z"/><path class="cls-3" d="M27.12,37.68H44.88a.77.77,0,0,0,0-1.53H27.12a.77.77,0,0,0,0,1.53Z"/><path class="cls-3" d="M44.88,38.74h-.42a.77.77,0,0,0,0,1.53h.42a.77.77,0,0,0,0-1.53Z"/><path class="cls-3" d="M42.55,39.51a.76.76,0,0,0-.76-.77H27.12a.77.77,0,0,0,0,1.53H41.79A.76.76,0,0,0,42.55,39.51Z"/></g></g></svg>