<svg xmlns="http://www.w3.org/2000/svg" xmlns:xlink="http://www.w3.org/1999/xlink" viewBox="0 0 72 72"><defs><style>.cls-1{fill:#757575;}.cls-2{fill:url(#Degradado_sin_nombre_11);}.cls-3{fill:#fff;}</style><linearGradient id="Degradado_sin_nombre_11" x1="36" y1="-11.5" x2="36" y2="91.02" gradientUnits="userSpaceOnUse"><stop offset="0" stop-color="#00bfa5" stop-opacity="0.8"/><stop offset="1" stop-opacity="0.8"/></linearGradient></defs><title>Tipos de reserva</title><g id="Capa_2" data-name="Capa 2"><g id="Capa_1-2" data-name="Capa 1"><circle class="cls-1" cx="36" cy="36" r="36"/><circle class="cls-2" cx="36" cy="36" r="36"/><path class="cls-3" d="M47,37.72l4.23-13.23L47,23.14V20.39H38.43l-8.17-2.61-.84,2.61H25V34.28L20.76,47.51,25,48.87v2.74h8.58l8.17,2.61.84-2.61H47ZM49.66,25.3,47,33.59V24.45ZM31.07,19.36l3.24,1H30.74ZM22.34,46.7,25,38.41v9.14Zm18.59,5.94-3.24-1h3.57Zm4.83-2.29H26.24V21.65H45.76Z"/><rect class="cls-3" x="28.61" y="24.39" width="14.91" height="1.25"/><rect class="cls-3" x="28.61" y="27.53" width="14.91" height="1.25"/><rect class="cls-3" x="28.61" y="30.67" width="14.91" height="1.25"/><rect class="cls-3" x="28.61" y="36.94" width="14.91" height="1.25"/><rect class="cls-3" x="28.48" y="43.22" width="14.91" height="1.25"/><rect class="cls-3" x="28.48" y="40.08" width="14.91" height="1.25"/><rect class="cls-3" x="28.48" y="33.8" width="14.91" height="1.25"/><rect class="cls-3" x="28.61" y="46.36" width="14.91" height="1.25"/></g></g></svg>