<svg xmlns="http://www.w3.org/2000/svg" xmlns:xlink="http://www.w3.org/1999/xlink" viewBox="0 0 72 72"><defs><style>.cls-1{fill:#f7922d;}.cls-2{fill:url(#Degradado_sin_nombre_27);}.cls-3{fill:#fff;}</style><linearGradient id="Degradado_sin_nombre_27" x1="36" y1="-11.5" x2="36" y2="91.02" gradientUnits="userSpaceOnUse"><stop offset="0" stop-color="#f7931e" stop-opacity="0.6"/><stop offset="1" stop-opacity="0.7"/></linearGradient></defs><title>Buscar presupuesto</title><g id="Capa_2" data-name="Capa 2"><g id="Capa_1-2" data-name="Capa 1"><circle class="cls-1" cx="36" cy="36" r="36"/><circle class="cls-2" cx="36" cy="36" r="36"/><path class="cls-3" d="M39.52,30.13A6,6,0,0,1,44,35a.81.81,0,0,0,.79.67h.14a.81.81,0,0,0,.66-.93,7.68,7.68,0,0,0-5.64-6.15.81.81,0,0,0-.61.09.81.81,0,0,0-.29,1.1A.87.87,0,0,0,39.52,30.13Z"/><path class="cls-3" d="M30.22,46.3A2.52,2.52,0,0,0,30,45.18l1.6-1.6a9.89,9.89,0,1,0-1.14-1.13L28.82,44a2.58,2.58,0,0,0-2.9.48L20.2,50.24A2.5,2.5,0,0,0,19.46,52a2.52,2.52,0,0,0,4.3,1.78l5.72-5.72A2.48,2.48,0,0,0,30.22,46.3Zm-1.6,0a1,1,0,0,1-.27.65l-5.72,5.72a.92.92,0,0,1-1.3,0,.93.93,0,0,1,0-1.29l5.73-5.73a.93.93,0,0,1,1.29,0A1,1,0,0,1,28.62,46.3ZM38,27.65A8.35,8.35,0,1,1,29.65,36,8.36,8.36,0,0,1,38,27.65Z"/><path class="cls-3" d="M52.54,25.62h0l-.05-.22-7.62-7.71-.1-.08-.09-.06-.11-.05-.07,0H25.41a1.94,1.94,0,0,0-1.94,1.94V44a.8.8,0,0,0,1.6,0V19.4a.34.34,0,0,1,.34-.34H43.5v5.5a1.94,1.94,0,0,0,1.94,1.94h3.44a.8.8,0,0,0,0-1.6H45.44a.34.34,0,0,1-.34-.34V20.2L50.93,26V52.6a.34.34,0,0,1-.34.34H26a.8.8,0,1,0,0,1.6h24.6a1.94,1.94,0,0,0,1.95-1.94v-27Zm-.25-.06Zm-.09-.2Zm-7.86-7.67Z"/><path class="cls-3" d="M31.14,36.8H42.58a.8.8,0,0,0,0-1.6H31.14a.8.8,0,1,0,0,1.6Z"/><path class="cls-3" d="M43.73,38.06H32.85a.8.8,0,1,0,0,1.6H43.73a.8.8,0,0,0,0-1.6Z"/><path class="cls-3" d="M32.85,33.94h8.59a.8.8,0,0,0,0-1.6H32.85a.8.8,0,1,0,0,1.6Z"/></g></g></svg>