<svg xmlns="http://www.w3.org/2000/svg" xmlns:xlink="http://www.w3.org/1999/xlink" viewBox="0 0 72 72"><defs><style>.cls-1{fill:#f7922d;}.cls-2{fill:url(#Degradado_sin_nombre_27);}.cls-3{fill:#fff;}</style><linearGradient id="Degradado_sin_nombre_27" x1="36" y1="-11.5" x2="36" y2="91.02" gradientUnits="userSpaceOnUse"><stop offset="0" stop-color="#f7931e" stop-opacity="0.6"/><stop offset="1" stop-opacity="0.7"/></linearGradient></defs><title>Cancelación Presupuesto</title><g id="Capa_2" data-name="Capa 2"><g id="Capa_1-2" data-name="Capa 1"><circle class="cls-1" cx="36" cy="36" r="36"/><circle class="cls-2" cx="36" cy="36" r="36"/><path class="cls-3" d="M46.82,44.91l-2.25,2.25-2.25-2.25a.64.64,0,0,0-.9.9l2.25,2.25-2.25,2.25a.64.64,0,0,0,.9.9L44.57,49l2.25,2.25a.64.64,0,0,0,.9-.9l-2.25-2.25,2.25-2.25a.64.64,0,0,0-.9-.9Z"/><path class="cls-3" d="M35.68,50H23a1.31,1.31,0,0,1-1.31-1.31V22A1.31,1.31,0,0,1,23,20.73h4.48v1.94a.6.6,0,0,0,.6.6H38.22a.6.6,0,0,0,.6-.6V20.73H43.3A1.31,1.31,0,0,1,44.61,22V39.17a.59.59,0,0,0,.59.6.6.6,0,0,0,.6-.6V22a2.5,2.5,0,0,0-2.5-2.5H38.72A1.87,1.87,0,0,0,37,18.27h-1.3a3.11,3.11,0,0,0-5,0h-1.3a1.87,1.87,0,0,0-1.77,1.27H23a2.5,2.5,0,0,0-2.5,2.5V48.69a2.5,2.5,0,0,0,2.5,2.5H35.68a.59.59,0,0,0,.6-.59A.6.6,0,0,0,35.68,50ZM29.34,19.46H31a.57.57,0,0,0,.51-.3,1.93,1.93,0,0,1,3.35,0,.57.57,0,0,0,.51.3H37a.68.68,0,0,1,.68.67h0v1.94h-9V20.14h0A.67.67,0,0,1,29.34,19.46Z"/><path class="cls-3" d="M25.53,23.27a.59.59,0,0,0,.59-.6.58.58,0,0,0-.59-.59H23.62a.59.59,0,0,0-.59.59V48.06a.59.59,0,0,0,.59.59H35.68a.59.59,0,0,0,.6-.59.6.6,0,0,0-.6-.6H24.22V23.27Z"/><path class="cls-3" d="M42.66,39.77a.6.6,0,0,0,.6-.6V22.67a.59.59,0,0,0-.6-.59h-1.9a.59.59,0,0,0-.6.59.6.6,0,0,0,.6.6h1.31v15.9A.6.6,0,0,0,42.66,39.77Z"/><path class="cls-3" d="M44.57,41.12a6.94,6.94,0,1,0,6.94,6.94A6.94,6.94,0,0,0,44.57,41.12Zm0,12.69a5.75,5.75,0,1,1,5.75-5.75A5.76,5.76,0,0,1,44.57,53.81Z"/><path class="cls-3" d="M33.15,20.73a.6.6,0,1,0,0-1.19h0a.6.6,0,0,0,0,1.19Z"/><path class="cls-3" d="M33.1,32.57c0-1.49-1.39-2.06-2.53-2.41v-2.4c.83.14,1.34.57,1.34.88a.6.6,0,0,0,.6.6.59.59,0,0,0,.59-.6c0-1.05-1.07-1.9-2.53-2.08v-.08a.59.59,0,0,0-.6-.59.58.58,0,0,0-.59.59v.08c-1.47.18-2.54,1-2.54,2.08,0,1.49,1.39,2.06,2.54,2.41v2.4c-.84-.14-1.35-.57-1.35-.88a.6.6,0,0,0-.6-.6.59.59,0,0,0-.59.6c0,1,1.07,1.9,2.54,2.08v.08a.59.59,0,0,0,.59.6.6.6,0,0,0,.6-.6v-.08C32,34.47,33.1,33.62,33.1,32.57Zm-1.19,0c0,.19-.16.39-.45.57a2.68,2.68,0,0,1-.89.31v-2C31.57,31.76,31.91,32.08,31.91,32.57ZM28,28.64c0-.19.16-.39.45-.57a2.66,2.66,0,0,1,.9-.31v2C28.37,29.45,28,29.13,28,28.64Z"/><path class="cls-3" d="M38.86,27.15H35.68a.59.59,0,0,0-.59.6.58.58,0,0,0,.59.59h3.18a.59.59,0,0,0,.59-.59A.6.6,0,0,0,38.86,27.15Z"/><path class="cls-3" d="M35.68,30.88h1.91a.58.58,0,0,0,.59-.59.59.59,0,0,0-.59-.6H35.68a.59.59,0,0,0-.59.6A.58.58,0,0,0,35.68,30.88Z"/><path class="cls-3" d="M38.86,32.23H35.68a.59.59,0,0,0-.59.6.58.58,0,0,0,.59.59h3.18a.59.59,0,0,0,.59-.59A.6.6,0,0,0,38.86,32.23Z"/><path class="cls-3" d="M37.38,37.94H29.76a.59.59,0,0,0-.59.6.58.58,0,0,0,.59.59h7.62a.58.58,0,0,0,.59-.59A.59.59,0,0,0,37.38,37.94Z"/><path class="cls-3" d="M35.47,43H29.76a.6.6,0,0,0,0,1.19h5.71a.6.6,0,1,0,0-1.19Z"/><path class="cls-3" d="M37.38,40.48H29.76a.59.59,0,0,0-.59.6.58.58,0,0,0,.59.59h7.62a.58.58,0,0,0,.59-.59A.59.59,0,0,0,37.38,40.48Z"/></g></g></svg>