<svg xmlns="http://www.w3.org/2000/svg" xmlns:xlink="http://www.w3.org/1999/xlink" viewBox="0 0 72 72"><defs><style>.cls-1{fill:#f7922d;}.cls-2{fill:url(#Degradado_sin_nombre_27);}.cls-3{fill:#fff;}</style><linearGradient id="Degradado_sin_nombre_27" x1="36" y1="-11.5" x2="36" y2="91.02" gradientUnits="userSpaceOnUse"><stop offset="0" stop-color="#f7931e" stop-opacity="0.6"/><stop offset="1" stop-opacity="0.7"/></linearGradient></defs><title>Cierre Presupuesto</title><g id="Capa_2" data-name="Capa 2"><g id="Capa_1-2" data-name="Capa 1"><circle class="cls-1" cx="36" cy="36" r="36"/><circle class="cls-2" cx="36" cy="36" r="36"/><path class="cls-3" d="M24.62,29.79a3.13,3.13,0,1,0-3.13-3.13,3.13,3.13,0,0,0,3.13,3.13Zm0-5.09a2,2,0,1,1-2,2,2,2,0,0,1,2-2Z"/><path class="cls-3" d="M26.7,35.65a9,9,0,0,0,8.39-5.75h5.82l2.34,2.34a.57.57,0,0,0,.82,0l2.1-2.1,2.09,2.1a.63.63,0,0,0,.42.17.56.56,0,0,0,.42-.18l5-5.16a.58.58,0,0,0,0-.81L51.59,23.6a.62.62,0,0,0-.43-.18h-16a9.48,9.48,0,0,0-3.18-4A9,9,0,1,0,26.7,35.65Zm0-16.81a8.16,8.16,0,0,1,7.56,5.37.57.57,0,0,0,.54.38H50.91l2,2.07L48.67,31l-2.09-2.1a.63.63,0,0,0-.41-.17.61.61,0,0,0-.41.17L43.66,31l-2.1-2.1a.61.61,0,0,0-.41-.17H34.68a.59.59,0,0,0-.56.4A7.82,7.82,0,1,1,26.7,18.84Z"/><path class="cls-3" d="M35.11,27.25H50.33a.6.6,0,0,0,.59-.59.59.59,0,0,0-.59-.58H35.11a.58.58,0,0,0-.59.58.59.59,0,0,0,.59.59Z"/><path class="cls-3" d="M18.3,41.87h11a.58.58,0,0,0,.58-.58V38.18a.58.58,0,0,0-.58-.58h-11a.59.59,0,0,0-.59.58v3.11a.59.59,0,0,0,.59.58Zm.58-3.11h9.83v2H18.88Z"/><path class="cls-3" d="M53.7,37.6H46.6a.58.58,0,0,0-.58.58v3.11a.58.58,0,0,0,.58.58h7.1a.59.59,0,0,0,.59-.58V38.18a.59.59,0,0,0-.59-.58Zm-.58,3.11H47.19v-2h5.93Z"/><path class="cls-3" d="M44.85,41.29V38.18a.58.58,0,0,0-.58-.58H31.62a.58.58,0,0,0-.58.58v3.11a.58.58,0,0,0,.58.58H44.27a.58.58,0,0,0,.58-.58Zm-1.17-.58H32.21v-2H43.68Z"/><path class="cls-3" d="M18.3,48.1h7.1a.58.58,0,0,0,.58-.58V44.4a.58.58,0,0,0-.58-.58H18.3a.59.59,0,0,0-.59.58v3.12a.59.59,0,0,0,.59.58ZM18.88,45h5.93v1.94H18.88Z"/><path class="cls-3" d="M53.7,43.82H39.6a.58.58,0,0,0-.58.58v3.12a.58.58,0,0,0,.58.58H53.7a.59.59,0,0,0,.59-.58V44.4a.59.59,0,0,0-.59-.58Zm-.58,3.11H40.18V45H53.12Z"/><path class="cls-3" d="M27.73,43.82a.58.58,0,0,0-.58.58v3.12a.58.58,0,0,0,.58.58h9.53a.58.58,0,0,0,.59-.58V44.4a.58.58,0,0,0-.59-.58Zm9,3.11H28.32V45h8.36Z"/><path class="cls-3" d="M31.62,50.05H18.3a.59.59,0,0,0-.59.58v3.11a.59.59,0,0,0,.59.58H31.62a.58.58,0,0,0,.59-.58V50.63a.58.58,0,0,0-.59-.58ZM31,53.16H18.88V51.21H31Z"/><path class="cls-3" d="M53.7,50.05h-11a.58.58,0,0,0-.58.58v3.11a.58.58,0,0,0,.58.58h11a.59.59,0,0,0,.59-.58V50.63a.59.59,0,0,0-.59-.58Zm-.58,3.11H43.29V51.21h9.83Z"/><path class="cls-3" d="M40.38,50.05H34a.59.59,0,0,0-.59.58v3.11a.59.59,0,0,0,.59.58h6.42a.58.58,0,0,0,.58-.58V50.63a.58.58,0,0,0-.58-.58Zm-.59,3.11H34.54V51.21h5.25Z"/></g></g></svg>