<svg xmlns="http://www.w3.org/2000/svg" xmlns:xlink="http://www.w3.org/1999/xlink" viewBox="0 0 72 72"><defs><style>.cls-1{fill:#f7922d;}.cls-2{fill:url(#Degradado_sin_nombre_27);}.cls-3{fill:#fff;}</style><linearGradient id="Degradado_sin_nombre_27" x1="36" y1="-11.5" x2="36" y2="91.02" gradientUnits="userSpaceOnUse"><stop offset="0" stop-color="#f7931e" stop-opacity="0.6"/><stop offset="1" stop-opacity="0.7"/></linearGradient></defs><title>Cotizaciones</title><g id="Capa_2" data-name="Capa 2"><g id="Capa_1-2" data-name="Capa 1"><circle class="cls-1" cx="36" cy="36" r="36"/><circle class="cls-2" cx="36" cy="36" r="36"/><path class="cls-3" d="M51.17,23.76v-.05a.62.62,0,0,0-.12-.19l-6.34-6.34a.62.62,0,0,0-.19-.12h-.05a.66.66,0,0,0-.2-.06H27.77a.64.64,0,0,0-.64.63v7h-5.7a.63.63,0,0,0-.63.63V54.37a.63.63,0,0,0,.63.63H41.7a.63.63,0,0,0,.63-.63V49.93h8.24a.63.63,0,0,0,.63-.63V23.93a.51.51,0,0,0,0-.17Zm-6.3-4.6L49,23.33H44.87Zm-3.8,34.57h-19V25.87h19Zm8.86-5.06h-7.6v-1.9H47.4a.64.64,0,0,0,.63-.64v-19a.63.63,0,0,0-.63-.63H42.33V25.23a.63.63,0,0,0-.63-.63H28.4V18.27H43.6V24a.63.63,0,0,0,.63.63h5.7Zm-3.16-17.1V34.1H42.33V31.57ZM42.33,30.3V27.77h4.44V30.3Zm4.44,5.07V37.9H42.33V35.37Zm0,3.8V41.7H42.33V39.17Zm0,3.8V45.5H42.33V43Z"/><path class="cls-3" d="M39.17,27.77H24a.64.64,0,0,0-.64.63v5.07a.64.64,0,0,0,.64.63h15.2a.63.63,0,0,0,.63-.63V28.4a.63.63,0,0,0-.63-.63Zm-.64,5.06H24.6V29H38.53Z"/><path class="cls-3" d="M39.17,36H24a.64.64,0,0,0-.64.63v15.2a.64.64,0,0,0,.64.64h15.2a.64.64,0,0,0,.63-.64V36.63a.63.63,0,0,0-.63-.63Zm-12,15.2H24.6V48.67h2.53Zm0-3.8H24.6V44.87h2.53Zm0-3.8H24.6V41.07h2.53Zm0-3.8H24.6V37.27h2.53Zm3.8,11.4H28.4V48.67h2.53Zm0-3.8H28.4V44.87h2.53Zm0-3.8H28.4V41.07h2.53Zm0-3.8H28.4V37.27h2.53Zm3.8,11.4H32.2V48.67h2.53Zm0-3.8H32.2V44.87h2.53Zm0-3.8H32.2V41.07h2.53Zm0-3.8H32.2V37.27h2.53Zm3.8,11.4H36V44.87h2.53Zm0-7.6H36V41.07h2.53Zm0-3.8H36V37.27h2.53Z"/></g></g></svg>