<svg xmlns="http://www.w3.org/2000/svg" xmlns:xlink="http://www.w3.org/1999/xlink" viewBox="0 0 72 72"><defs><style>.cls-1{fill:#f7922d;}.cls-2{fill:url(#Degradado_sin_nombre_27);}.cls-3{fill:#fff;}</style><linearGradient id="Degradado_sin_nombre_27" x1="36" y1="-11.5" x2="36" y2="91.02" gradientUnits="userSpaceOnUse"><stop offset="0" stop-color="#f7931e" stop-opacity="0.6"/><stop offset="1" stop-opacity="0.7"/></linearGradient></defs><title>Facturas Proveedor</title><g id="Capa_2" data-name="Capa 2"><g id="Capa_1-2" data-name="Capa 1"><circle class="cls-1" cx="36" cy="36" r="36"/><circle class="cls-2" cx="36" cy="36" r="36"/><path class="cls-3" d="M53.42,30.61H51.84V26.18H50.57V23.64H32.89l-2.27-3.17H18.72A1.73,1.73,0,0,0,17,22.2V49.89h0a1.64,1.64,0,0,0,.33,1,1.6,1.6,0,0,0,1.29.64H47a1.61,1.61,0,0,0,1.55-1.15L55,32.61V32.5a1.7,1.7,0,0,0-1.59-1.89Zm-2.85,0H45.51V30a.64.64,0,0,0-.64-.63.63.63,0,0,0-.63.63v.63H41.07V30a.63.63,0,0,0-.63-.63.64.64,0,0,0-.64.63v.63H36.63V30a.63.63,0,0,0-1.26,0v.63H32.2V30a.64.64,0,0,0-.64-.63.63.63,0,0,0-.63.63v.63H27.76V30a.63.63,0,0,0-.63-.63.64.64,0,0,0-.64.63v.63H25.06l-.27,0A1.67,1.67,0,0,0,24,31v-3.6H50.57ZM20.16,40.94V31.25h3.6a1.54,1.54,0,0,0-.26.51l-.2.55Zm2.53-11H21.05l1.64-1.64Zm26.62-5.07v1.27H23.06l-1.63,1.64V24.91Zm-31-2.71a.46.46,0,0,1,.46-.46H30l1.36,1.9H20.16v5.44l-1.27,1.27v14l-.63,1.73ZM47.33,50a.38.38,0,0,1-.35.26H18.61a.37.37,0,0,1-.36-.4l.64-1.75,5.8-15.91,0-.06a.36.36,0,0,1,.35-.26H53.42c.24,0,.31.35.32.52Z"/></g></g></svg>