<svg xmlns="http://www.w3.org/2000/svg" xmlns:xlink="http://www.w3.org/1999/xlink" viewBox="0 0 72 72"><defs><style>.cls-1{fill:#f7922d;}.cls-2{fill:url(#Degradado_sin_nombre_27);}.cls-3{fill:#f2f2f2;}</style><linearGradient id="Degradado_sin_nombre_27" x1="36" y1="-11.5" x2="36" y2="91.02" gradientUnits="userSpaceOnUse"><stop offset="0" stop-color="#f7931e" stop-opacity="0.6"/><stop offset="1" stop-opacity="0.7"/></linearGradient></defs><title>Ingresos y costos</title><g id="Capa_2" data-name="Capa 2"><g id="Capa_1-2" data-name="Capa 1"><circle class="cls-1" cx="36" cy="36" r="36"/><circle class="cls-2" cx="36" cy="36" r="36"/><path class="cls-3" d="M48.33,30.82a5.36,5.36,0,0,0,5.35-5.36,5.34,5.34,0,1,0-5.35,5.36Zm-3.78-5.36a3.78,3.78,0,1,1,3.78,3.78A3.76,3.76,0,0,1,44.55,25.46Z"/><path class="cls-3" d="M46.84,28.1a.28.28,0,0,1,.15,0h0a1,1,0,0,0,.28.08l.15,0a.53.53,0,0,1,.12,0l.19,0V29h1.3v-.79a.9.9,0,0,0,.22-.11A.82.82,0,0,0,49.5,28l.12-.09a1.41,1.41,0,0,0,.2-.24.91.91,0,0,0,.15-.21.3.3,0,0,1,.06-.11l.13-.37a1.46,1.46,0,0,0,0-.42,1.14,1.14,0,0,0,0-.35l0-.07a1,1,0,0,0-.12-.29,1,1,0,0,0-.16-.26l-.07-.08-.11-.13a.89.89,0,0,0-.28-.21.81.81,0,0,0-.22-.12l-.08,0L49,25l-.19-.09-.25-.09,0,0h0c-.06-.06-.13-.08-.14-.07a.44.44,0,0,0-.17-.1l-.08-.06v-.09l0,0h0V24.2s0,0,0-.06a.41.41,0,0,0,.05-.09l.09-.08.1,0h.36l.1,0h.06L49,24a.57.57,0,0,0,.15,0l.48.19.16-1.09v-.31l-.37-.09s-.09,0-.1,0a.47.47,0,0,0-.17,0l-.17,0v-.7H47.65v.76a1.2,1.2,0,0,0-.23.11.82.82,0,0,0-.31.22,2.52,2.52,0,0,0-.21.25.9.9,0,0,0-.19.36L46.6,24a1.57,1.57,0,0,0,0,.42,1.17,1.17,0,0,0,0,.36l0,.07a.64.64,0,0,0,.1.23l.08.14s.05.08.06.11l0,.06.07.08.11.13a.84.84,0,0,0,.29.21,1,1,0,0,0,.21.13l.08,0a.91.91,0,0,1,.17.09l.11,0a1,1,0,0,1,.25.1l.08,0c.06.06.12.08.14.07a.58.58,0,0,0,.15.11l.06.06a.14.14,0,0,0,0,.06.89.89,0,0,0,0,.11v.15l-.11.11s0,0-.12.08l-.08,0-.09,0h-.51l-.12,0-.11-.05a.58.58,0,0,0-.16-.05l0,0-.06,0-.1,0-.55-.27-.15,1.22V28l.32.11Z"/><path class="cls-3" d="M24,39.56a.79.79,0,0,0,.45-.14L31.92,34l7.26,3A.85.85,0,0,0,40,37l5.93-4.7a.8.8,0,1,0-1-1.27l-5.59,4.44-7.22-3a.78.78,0,0,0-.74.09L23.5,38.13a.8.8,0,0,0-.32.52.76.76,0,0,0,.12.56A.74.74,0,0,0,24,39.56Z"/><path class="cls-3" d="M54.66,50.53a.76.76,0,0,0-.57-.25H51.72v-16a.78.78,0,0,0-.79-.78H45.76a.77.77,0,0,0-.78.78v16H43.53V39.86a.78.78,0,0,0-.79-.78h-5.2a.77.77,0,0,0-.78.78V50.28H35.31V39a.79.79,0,0,0-.79-.79H29.36a.79.79,0,0,0-.79.79V50.28H27.13v-8a.78.78,0,0,0-.79-.78h-5.2a.78.78,0,0,0-.79.78v8H17.94a.79.79,0,0,0,0,1.58H54.05a.77.77,0,0,0,.79-.77A.71.71,0,0,0,54.66,50.53ZM50.14,35V50.28H46.55V35Zm-8.22,5.62v9.63H38.33V40.65Zm-8.19-.84V50.28H30.15V39.81Zm-8.21,3.3v7.17H21.93V43.11Z"/></g></g></svg>