<svg xmlns="http://www.w3.org/2000/svg" xmlns:xlink="http://www.w3.org/1999/xlink" viewBox="0 0 72 72"><defs><style>.cls-1{fill:#f7922d;}.cls-2{fill:url(#Degradado_sin_nombre_27);}.cls-3{fill:#fff;}</style><linearGradient id="Degradado_sin_nombre_27" x1="36" y1="-11.5" x2="36" y2="91.02" gradientUnits="userSpaceOnUse"><stop offset="0" stop-color="#f7931e" stop-opacity="0.6"/><stop offset="1" stop-opacity="0.7"/></linearGradient></defs><title>Legalizaciones</title><g id="Capa_2" data-name="Capa 2"><g id="Capa_1-2" data-name="Capa 1"><circle class="cls-1" cx="36" cy="36" r="36"/><circle class="cls-2" cx="36" cy="36" r="36"/><path class="cls-3" d="M41.65,17H21.12V55H50.88V26.24ZM42,19.16l6.7,6.71H42ZM22.38,53.73V18.27H40.75v8.86h8.87v26.6Z"/><path class="cls-3" d="M27.45,27.77h5.7a.64.64,0,0,0,.63-.64.63.63,0,0,0-.63-.63h-5.7a.63.63,0,0,0-.63.63.64.64,0,0,0,.63.64Z"/><path class="cls-3" d="M27.45,32.83h3.17a.63.63,0,1,0,0-1.26H27.45a.63.63,0,1,0,0,1.26Z"/><path class="cls-3" d="M37,32.83h4.43a.63.63,0,1,0,0-1.26H37a.63.63,0,1,0,0,1.26Z"/><path class="cls-3" d="M33.33,31.76a.6.6,0,0,0-.18.44.64.64,0,0,0,.18.45.69.69,0,0,0,.45.18.6.6,0,0,0,.45-.19.61.61,0,0,0,.19-.44.65.65,0,0,0-.19-.45.66.66,0,0,0-.9,0Z"/><path class="cls-3" d="M44.55,32.83A.64.64,0,0,0,45,31.75a.67.67,0,0,0-.9,0,.65.65,0,0,0,0,.9.69.69,0,0,0,.45.18Z"/><path class="cls-3" d="M35.05,36.63H30.62a.64.64,0,0,0-.64.64.64.64,0,0,0,.64.63h4.43a.63.63,0,0,0,.63-.63.64.64,0,0,0-.63-.64Z"/><path class="cls-3" d="M27.45,37.9a.69.69,0,0,0,.45-.18.64.64,0,0,0,.18-.45.63.63,0,0,0-.18-.45.65.65,0,0,0-.9,0,.61.61,0,0,0-.18.45.62.62,0,0,0,.63.63Z"/><path class="cls-3" d="M29.44,42.44a4.19,4.19,0,0,0-2,3.53l-.79-.66c-.62-.52-1.52.38-.89.9l1.77,1.49a.64.64,0,0,0,1.08-.45c.05-1.37.11-3,1.49-3.72.73-.37.08-1.47-.64-1.09Z"/><path class="cls-3" d="M33.65,45c-.87.21-1.87,1.33-2.49.07-.36-.73-1.45-.09-1.09.64a2.16,2.16,0,0,0,1.69,1.22,2.08,2.08,0,0,0,1.07-.14c.26-.1,1.22-.83,1.43-.45a.64.64,0,0,0,1.1-.64,1.52,1.52,0,0,0-1.71-.7Z"/><path class="cls-3" d="M46.6,38.86a.42.42,0,0,1-.23-.23.4.4,0,0,1,0-.33,1.66,1.66,0,0,0-.32-1.9,1.68,1.68,0,0,0-1.9-.33.38.38,0,0,1-.33,0,.39.39,0,0,1-.23-.23,1.67,1.67,0,0,0-3.15,0,.37.37,0,0,1-.23.23.36.36,0,0,1-.32,0,1.67,1.67,0,0,0-2.23,2.23.42.42,0,0,1,0,.33.44.44,0,0,1-.24.23,1.67,1.67,0,0,0,0,3.15.4.4,0,0,1,.24.22.44.44,0,0,1,0,.34A1.63,1.63,0,0,0,38,44.46a1.58,1.58,0,0,0,.86.46v7.81L42,49.56l3.16,3.17V44.92a1.66,1.66,0,0,0,1.19-2.35.43.43,0,0,1,0-.34A.38.38,0,0,1,46.6,42a1.67,1.67,0,0,0,0-3.15ZM42,47.77l-1.9,1.9V44.76h0l.08,0a.28.28,0,0,1,.12.08.27.27,0,0,1,.11.16,1.67,1.67,0,0,0,3.15,0,.41.41,0,0,1,.11-.16.35.35,0,0,1,.12-.08l.08,0h0v4.91Zm4.16-7a1.68,1.68,0,0,0-1,.94,1.66,1.66,0,0,0,0,1.36.39.39,0,0,1-.08.46.42.42,0,0,1-.36.11l-.13,0-.18-.06-.13,0-.19,0h-.34a1,1,0,0,0-.16,0,2,2,0,0,0-.33.09l-.08,0a1.27,1.27,0,0,0-.23.12l-.23.2,0,0a1.71,1.71,0,0,0-.36.59.41.41,0,0,1-.77,0,1.43,1.43,0,0,0-.36-.59l0,0a1.57,1.57,0,0,0-.24-.21,2.39,2.39,0,0,0-.22-.12l-.09,0h0a1.72,1.72,0,0,0-.28-.08,2,2,0,0,0-.24,0h-.09a1.48,1.48,0,0,0-.66.14l-.14,0a.4.4,0,0,1-.37-.1.4.4,0,0,1-.08-.46,1.67,1.67,0,0,0-.95-2.3.38.38,0,0,1-.27-.38.4.4,0,0,1,.27-.38,1.68,1.68,0,0,0,1-.93,1.65,1.65,0,0,0,0-1.36.39.39,0,0,1,.08-.46.39.39,0,0,1,.46-.08,1.69,1.69,0,0,0,2.3-.95A.37.37,0,0,1,42,36a.39.39,0,0,1,.38.27,1.67,1.67,0,0,0,2.29.95.39.39,0,0,1,.46.08.39.39,0,0,1,.08.46,1.69,1.69,0,0,0,0,1.36,1.66,1.66,0,0,0,1,.93.4.4,0,0,1,.27.38.38.38,0,0,1-.27.38Z"/></g></g></svg>