<svg xmlns="http://www.w3.org/2000/svg" xmlns:xlink="http://www.w3.org/1999/xlink" viewBox="0 0 72 72"><defs><style>.cls-1{fill:#f7922d;}.cls-2{fill:url(#Degradado_sin_nombre_27);}.cls-3{fill:#fff;}</style><linearGradient id="Degradado_sin_nombre_27" x1="36" y1="-11.5" x2="36" y2="91.02" gradientUnits="userSpaceOnUse"><stop offset="0" stop-color="#f7931e" stop-opacity="0.6"/><stop offset="1" stop-opacity="0.7"/></linearGradient></defs><title>Nuevo presupuesto</title><g id="Capa_2" data-name="Capa 2"><g id="Capa_1-2" data-name="Capa 1"><circle class="cls-1" cx="36" cy="36" r="36"/><circle class="cls-2" cx="36" cy="36" r="36"/><path class="cls-3" d="M49.5,18.32l-6.25,6.25a.18.18,0,0,1-.12.05H18.44a.18.18,0,0,0-.17.17V53.56a.18.18,0,0,0,.17.17H47.21a.18.18,0,0,0,.17-.17V28.87a.18.18,0,0,1,0-.12l6.25-6.25a.16.16,0,0,0,0-.24l-3.94-3.94A.16.16,0,0,0,49.5,18.32ZM39.35,28.46a.13.13,0,0,1-.12.05H22.13V29.8H37.59a.17.17,0,0,1,.12.3L36,31.8a.21.21,0,0,1-.13.05H22.13v1.29H34.25a.18.18,0,0,1,.13.3l-1.7,1.7a.21.21,0,0,1-.13,0H22.13v1.29h9.24a.17.17,0,0,1,.17.22l-.42,1.7a.18.18,0,0,1-.17.13H22.13v1.29h8.41a.18.18,0,0,1,.17.22l-.37,1.49a.17.17,0,0,0,.21.21l5.29-1.42h0l.49-.49h7.16V38.53H38.08a.18.18,0,0,1-.13-.3l1.7-1.7a.19.19,0,0,1,.13-.05h3.74V35.19H41l4.8-4.8a.18.18,0,0,1,.3.12V52.27a.18.18,0,0,1-.17.17H19.73a.18.18,0,0,1-.17-.17V26.08a.18.18,0,0,1,.17-.17H41.49a.18.18,0,0,1,.12.3ZM32.12,39.71l.45-1.8a.18.18,0,0,1,.29-.08l1.33,1.33a.18.18,0,0,1-.08.29l-1.77.48A.19.19,0,0,1,32.12,39.71Zm18-15.5L35.73,38.63a.18.18,0,0,1-.25,0l-2.11-2.11a.18.18,0,0,1,0-.25L47.79,21.85a.18.18,0,0,1,.25,0L50.15,24A.18.18,0,0,1,50.15,24.21ZM52,22.38l-.79.79-2.36-2.36.79-.79Z"/><rect class="cls-3" x="22.13" y="45.21" width="21.39" height="1.29"/><rect class="cls-3" x="22.13" y="48.55" width="21.39" height="1.29"/><rect class="cls-3" x="22.13" y="41.87" width="21.39" height="1.29"/></g></g></svg>