<svg xmlns="http://www.w3.org/2000/svg" xmlns:xlink="http://www.w3.org/1999/xlink" viewBox="0 0 72 72"><defs><style>.cls-1{fill:#f7922d;}.cls-2{fill:url(#Degradado_sin_nombre_27);}.cls-3{fill:#fff;}</style><linearGradient id="Degradado_sin_nombre_27" x1="36" y1="-11.5" x2="36" y2="91.02" gradientUnits="userSpaceOnUse"><stop offset="0" stop-color="#f7931e" stop-opacity="0.6"/><stop offset="1" stop-opacity="0.7"/></linearGradient></defs><title>Pago Clientes</title><g id="Capa_2" data-name="Capa 2"><g id="Capa_1-2" data-name="Capa 1"><circle class="cls-1" cx="36" cy="36" r="36"/><circle class="cls-2" cx="36" cy="36" r="36"/><path class="cls-3" d="M47.4,41.07a1.26,1.26,0,0,1,1.27,1.26.63.63,0,1,0,1.26,0A2.53,2.53,0,0,0,48,39.89V39.8a.63.63,0,1,0-1.26,0v.09a2.53,2.53,0,0,0,.63,5,1.27,1.27,0,1,1-1.27,1.26.63.63,0,1,0-1.26,0,2.54,2.54,0,0,0,1.9,2.45v.09a.63.63,0,0,0,1.26,0v-.09a2.53,2.53,0,0,0-.63-5,1.27,1.27,0,1,1,0-2.53Z"/><path class="cls-3" d="M46.77,30.93a.63.63,0,0,0,0-1.26H43a.63.63,0,1,0,0,1.26Z"/><path class="cls-3" d="M42.33,44.23a.63.63,0,0,0-.63-.63H36a.63.63,0,0,0-.63.63.64.64,0,0,0,.63.64h5.7a.64.64,0,0,0,.63-.64Z"/><path class="cls-3" d="M32.83,30.93h7.6a.63.63,0,1,0,0-1.26h-7.6a.63.63,0,0,0,0,1.26Z"/><path class="cls-3" d="M51.83,22.07H29.67a.63.63,0,1,0,0,1.26H51.83a1.91,1.91,0,0,1,1.9,1.9v28.5H28.4V25.23a3.17,3.17,0,0,0-6.33,0V46.77a1.9,1.9,0,1,1-3.8,0V18.27H43.6v1.9a.63.63,0,0,0,.63.63.64.64,0,0,0,.64-.63V17.63a.64.64,0,0,0-.64-.63H17.63a.63.63,0,0,0-.63.63V46.77a3.17,3.17,0,0,0,6.33,0V25.23a1.9,1.9,0,1,1,3.8,0V48.67H24a.63.63,0,1,0,0,1.26h3.16v4.44a.64.64,0,0,0,.64.63h26.6a.63.63,0,0,0,.63-.63V25.23a3.17,3.17,0,0,0-3.17-3.16Z"/><path class="cls-3" d="M32.83,34.73H49.3a.63.63,0,1,0,0-1.26H32.83a.63.63,0,0,0,0,1.26Z"/><path class="cls-3" d="M36,47.4a.63.63,0,0,0-.63.63.64.64,0,0,0,.63.64h5.07A.64.64,0,0,0,41.7,48a.63.63,0,0,0-.63-.63Z"/><path class="cls-3" d="M32.83,48.67h.64A.64.64,0,0,0,34.1,48a.63.63,0,0,0-.63-.63h-.64a.63.63,0,0,0-.63.63.64.64,0,0,0,.63.64Z"/><path class="cls-3" d="M32.83,44.87h.64a.64.64,0,0,0,.63-.64.63.63,0,0,0-.63-.63h-.64a.63.63,0,0,0-.63.63.64.64,0,0,0,.63.64Z"/><path class="cls-3" d="M36,41.07h4.43a.64.64,0,0,0,.64-.64.64.64,0,0,0-.64-.63H36a.63.63,0,0,0-.63.63.64.64,0,0,0,.63.64Z"/><path class="cls-3" d="M32.83,41.07h.64a.64.64,0,0,0,.63-.64.63.63,0,0,0-.63-.63h-.64a.63.63,0,0,0-.63.63.64.64,0,0,0,.63.64Z"/></g></g></svg>