<svg xmlns="http://www.w3.org/2000/svg" xmlns:xlink="http://www.w3.org/1999/xlink" viewBox="0 0 72 72"><defs><style>.cls-1{fill:#f7922d;}.cls-2{fill:url(#Degradado_sin_nombre_27);}.cls-3{fill:#fff;}</style><linearGradient id="Degradado_sin_nombre_27" x1="36" y1="-11.5" x2="36" y2="91.02" gradientUnits="userSpaceOnUse"><stop offset="0" stop-color="#f7931e" stop-opacity="0.6"/><stop offset="1" stop-opacity="0.7"/></linearGradient></defs><title>Presupuestos</title><g id="Capa_2" data-name="Capa 2"><g id="Capa_1-2" data-name="Capa 1"><circle class="cls-1" cx="36" cy="36" r="36"/><circle class="cls-2" cx="36" cy="36" r="36"/><path class="cls-3" d="M53.41,34.1H51.2v-4a1.74,1.74,0,0,0-1.73-1.73h-.8V17H23.33v1.27h-1.9v1.26h-1.9V24h-.8A1.73,1.73,0,0,0,17,25.7V53.36h0a1.64,1.64,0,0,0,.33,1,1.6,1.6,0,0,0,1.29.64H47a1.6,1.6,0,0,0,1.55-1.15L55,36.1V36a1.7,1.7,0,0,0-1.59-1.88Zm-3.94-4.43a.46.46,0,0,1,.46.46v4H48.67V29.67ZM47.4,18.27V34.1H25.06a1.93,1.93,0,0,0-.42.06h0V18.27ZM23.33,19.53V35.74l0,.11-.59,1.62V19.53ZM20.8,20.8h.63V40.94l-.63,1.74Zm-2.53,4.9a.46.46,0,0,1,.46-.47h.8V46.1l-1.26,3.45ZM47.32,53.47a.38.38,0,0,1-.35.26H18.62a.33.33,0,0,1-.28-.14.35.35,0,0,1-.08-.26l1.27-3.48,1.9-5.21,1.9-5.21h0l1.23-3.36,0-.12.1-.28,0,0a.34.34,0,0,1,.34-.26H53.41c.24,0,.3.34.32.52Z"/><path class="cls-3" d="M28.4,27.77H43.6a.64.64,0,0,0,.63-.64.63.63,0,0,0-.63-.63H28.4a.63.63,0,0,0-.63.63.64.64,0,0,0,.63.64Z"/><path class="cls-3" d="M28.4,23.33h6.33a.63.63,0,1,0,0-1.26H28.4a.63.63,0,0,0,0,1.26Z"/><path class="cls-3" d="M28.4,32.2H43.6a.63.63,0,0,0,.63-.63.64.64,0,0,0-.63-.64H28.4a.64.64,0,0,0-.63.64.63.63,0,0,0,.63.63Z"/></g></g></svg>