<svg xmlns="http://www.w3.org/2000/svg" xmlns:xlink="http://www.w3.org/1999/xlink" viewBox="0 0 72 72"><defs><style>.cls-1{fill:#9ccb3b;}.cls-2{fill:url(#Degradado_sin_nombre_29);}.cls-3{fill:#fff;}</style><linearGradient id="Degradado_sin_nombre_29" x1="36" y1="-11.5" x2="36" y2="91.02" gradientUnits="userSpaceOnUse"><stop offset="0" stop-color="#8cc63f" stop-opacity="0.6"/><stop offset="1" stop-opacity="0.7"/></linearGradient></defs><title>Solicitud Administrativa</title><g id="Capa_2" data-name="Capa 2"><g id="Capa_1-2" data-name="Capa 1"><circle class="cls-1" cx="36" cy="36" r="36"/><circle class="cls-2" cx="36" cy="36" r="36"/><path class="cls-3" d="M51.82,25.1a.56.56,0,0,0-.29-.42L44.15,17.3a.6.6,0,0,0-.42-.29H25.87A1.87,1.87,0,0,0,24,18.9v1.9h-1.9a1.87,1.87,0,0,0-1.9,1.9V53.1a1.86,1.86,0,0,0,1.9,1.9H46.13A1.86,1.86,0,0,0,48,53.1V51.2h1.9a1.86,1.86,0,0,0,1.9-1.9v-24a.49.49,0,0,0,0-.17Zm-2.14-.5H44.87a.6.6,0,0,1-.64-.63V19.16ZM46.77,53.1a.6.6,0,0,1-.64.63H22.07a.6.6,0,0,1-.64-.63V22.7a.64.64,0,0,1,.64-.63H24V49.3a1.86,1.86,0,0,0,1.9,1.9h20.9Zm3.79-3.8a.59.59,0,0,1-.63.63H25.87a.6.6,0,0,1-.64-.63V18.9a.64.64,0,0,1,.64-.63H43V24a1.86,1.86,0,0,0,1.9,1.9h5.69Z"/><path class="cls-3" d="M29,25.87h11.4a.64.64,0,1,0,0-1.27H29a.64.64,0,0,0,0,1.27Z"/><path class="cls-3" d="M28.4,29a.6.6,0,0,0,.63.64H48a.61.61,0,0,0,.64-.64A.6.6,0,0,0,48,28.4H29a.59.59,0,0,0-.63.63Z"/><path class="cls-3" d="M48,32.2H29a.59.59,0,0,0-.63.63.6.6,0,0,0,.63.64H48a.61.61,0,0,0,.64-.64A.6.6,0,0,0,48,32.2Z"/><path class="cls-3" d="M48,36H29a.59.59,0,0,0-.63.63.6.6,0,0,0,.63.64H48a.61.61,0,0,0,.64-.64A.6.6,0,0,0,48,36Z"/><path class="cls-3" d="M48,39.8H29a.59.59,0,0,0-.63.63.6.6,0,0,0,.63.64H48a.61.61,0,0,0,.64-.64A.6.6,0,0,0,48,39.8Z"/><path class="cls-3" d="M48,43.6H29a.59.59,0,0,0-.63.63.6.6,0,0,0,.63.64H48a.61.61,0,0,0,.64-.64A.6.6,0,0,0,48,43.6Z"/></g></g></svg>