<svg xmlns="http://www.w3.org/2000/svg" xmlns:xlink="http://www.w3.org/1999/xlink" viewBox="0 0 72 72"><defs><style>.cls-1{fill:#9ccb3b;}.cls-2{fill:url(#Degradado_sin_nombre_29);}.cls-3{fill:#fff;}</style><linearGradient id="Degradado_sin_nombre_29" x1="36" y1="-11.5" x2="36" y2="91.02" gradientUnits="userSpaceOnUse"><stop offset="0" stop-color="#8cc63f" stop-opacity="0.6"/><stop offset="1" stop-opacity="0.7"/></linearGradient></defs><title>Time Table</title><g id="Capa_2" data-name="Capa 2"><g id="Capa_1-2" data-name="Capa 1"><circle class="cls-1" cx="36" cy="36" r="36"/><circle class="cls-2" cx="36" cy="36" r="36"/><path class="cls-3" d="M41.74,48.06a.77.77,0,0,0,.57-.25l1.58-1.72a1.84,1.84,0,0,0,1.25-3.44V39.22a.78.78,0,0,0-1.55,0v3.43a1.85,1.85,0,0,0-1.06,1.67,1.7,1.7,0,0,0,.17.77l-1.53,1.67a.78.78,0,0,0,0,1.1A.79.79,0,0,0,41.74,48.06Zm2.34-3.74a.29.29,0,1,1,.28.28A.29.29,0,0,1,44.08,44.32Z"/><path class="cls-3" d="M51.92,38.13V28.57a.88.88,0,0,0,0-.16v-5.7a.78.78,0,0,0-.8-.77h-3V20.28a2.34,2.34,0,0,0-4.67,0v1.66H26.38V20.28a2.34,2.34,0,0,0-4.68,0v1.66H18.65a.77.77,0,0,0-.78.77V48.14a.78.78,0,0,0,.78.78H35.8A9.74,9.74,0,1,0,51.92,38.13Zm-13-5.41v1.84H37.1V32.72Zm6.21,0v1.84H43.31V32.72Zm5.21,3.89a9.28,9.28,0,0,0-2-1.18l-.4-.17a9.85,9.85,0,0,0-1.3-.42V32a.78.78,0,0,0-.78-.78H42.54a.78.78,0,0,0-.78.78v3a9.27,9.27,0,0,0-1.28.46s0,0,0,0V32a.78.78,0,0,0-.78-.78H36.32a.78.78,0,0,0-.77.78v3.39a.77.77,0,0,0,.77.77h2.79a9.75,9.75,0,0,0-4.47,8.2l0,.76a9.9,9.9,0,0,0,.46,2.29H19.42V29.18H50.36Zm-6-.5.67,0a8.22,8.22,0,0,1,2.71.7l.11-.22h0l0,.27.26.12a8.19,8.19,0,1,1-11.88,8.13l0-.83A8.2,8.2,0,0,1,44.38,36.11ZM24,26.74a2.34,2.34,0,0,0,2.34-2.34v-.91H43.45v.91a2.34,2.34,0,1,0,4.67,0v-.91h2.24v4.14H19.44V23.49H21.7v.91A2.34,2.34,0,0,0,24,26.74ZM46.57,24.4a.88.88,0,0,1,0,.16A.78.78,0,0,1,45,24.4V20.28a.79.79,0,0,1,1.57,0Zm-21.74,0a.79.79,0,0,1-.79.78.78.78,0,0,1-.78-.78V20.28A.78.78,0,0,1,24,19.5a.79.79,0,0,1,.79.78Z"/><path class="cls-3" d="M23.9,36.11h3.39a.77.77,0,0,0,.78-.77V32a.78.78,0,0,0-.78-.78H23.9a.77.77,0,0,0-.77.78v3.39A.76.76,0,0,0,23.9,36.11Zm.78-1.55V32.72h1.83v1.84Z"/><path class="cls-3" d="M30.11,36.11H33.5a.77.77,0,0,0,.78-.77V32a.78.78,0,0,0-.78-.78H30.11a.77.77,0,0,0-.77.78v3.39A.76.76,0,0,0,30.11,36.11Zm.78-1.55V32.72h1.84v1.84Z"/><path class="cls-3" d="M23.9,43.39h3.39a.78.78,0,0,0,.78-.78V39.22a.78.78,0,0,0-.78-.77H23.9a.77.77,0,0,0-.77.77v3.39A.77.77,0,0,0,23.9,43.39Zm.78-1.55V40h1.83v1.84Z"/><path class="cls-3" d="M30.11,43.39H33.5a.78.78,0,0,0,.78-.78V39.22a.78.78,0,0,0-.78-.77H30.11a.77.77,0,0,0-.77.77v3.39A.77.77,0,0,0,30.11,43.39Zm.78-1.55V40h1.84v1.84Z"/></g></g></svg>