<svg xmlns="http://www.w3.org/2000/svg" xmlns:xlink="http://www.w3.org/1999/xlink" viewBox="0 0 72 72"><defs><style>.cls-1{fill:#9ccb3b;}.cls-2{fill:url(#Degradado_sin_nombre_29);}.cls-3{fill:#fff;stroke:#fff;stroke-miterlimit:10;stroke-width:0.25px;}</style><linearGradient id="Degradado_sin_nombre_29" x1="36" y1="-11.5" x2="36" y2="91.02" gradientUnits="userSpaceOnUse"><stop offset="0" stop-color="#8cc63f" stop-opacity="0.6"/><stop offset="1" stop-opacity="0.7"/></linearGradient></defs><title>Trafico administrativo</title><g id="Capa_2" data-name="Capa 2"><g id="Capa_1-2" data-name="Capa 1"><circle class="cls-1" cx="36" cy="36" r="36"/><circle class="cls-2" cx="36" cy="36" r="36"/><path class="cls-3" d="M34.88,25.74a4.23,4.23,0,1,0-4.22-4.22A4.23,4.23,0,0,0,34.88,25.74Zm0-7.24a3,3,0,1,1-3,3A3,3,0,0,1,34.88,18.5Z"/><rect class="cls-3" x="36.69" y="31.77" width="3.62" height="1.21"/><rect class="cls-3" x="34.27" y="34.79" width="1.21" height="1.21"/><rect class="cls-3" x="34.27" y="37.21" width="1.21" height="1.21"/><rect class="cls-3" x="34.27" y="39.62" width="1.21" height="1.21"/><path class="cls-3" d="M47,44.45H42.13V43.24h.6V32.38A5.44,5.44,0,0,0,37.3,27h-.87l-1.54,3.37L33.34,27h-.87A5.44,5.44,0,0,0,27,32.38V43.24h3V54.71h9.66v-3H47V44.45Zm-6,0H39.71V43.24h1.21ZM28.24,42V32.38a4.24,4.24,0,0,1,4.23-4.23h.1l2.32,5.07,2.32-5.07h.09a4.23,4.23,0,0,1,4.23,4.23V42Zm6,11.47h-3V43.24h3Zm4.23,0h-3V43.24h3v1.21H36.09v7.24H38.5Zm7.24-3H37.29V45.66h8.45Z"/></g></g></svg>