<svg xmlns="http://www.w3.org/2000/svg" xmlns:xlink="http://www.w3.org/1999/xlink" viewBox="0 0 72 72"><defs><style>.cls-1{fill:url(#Degradado_sin_nombre_14);}.cls-2{fill:url(#Degradado_sin_nombre_17);}.cls-3{fill:#fff;}</style><linearGradient id="Degradado_sin_nombre_14" x1="36" x2="36" y2="72" gradientUnits="userSpaceOnUse"><stop offset="0.02" stop-color="#667eea" stop-opacity="0.8"/><stop offset="1" stop-color="#764ba2" stop-opacity="0.67"/></linearGradient><linearGradient id="Degradado_sin_nombre_17" x1="36" y1="-11.5" x2="36" y2="91.02" gradientUnits="userSpaceOnUse"><stop offset="0" stop-color="#667eea" stop-opacity="0.8"/><stop offset="1" stop-opacity="0.6"/></linearGradient></defs><title>Clientes y productos a usuario</title><g id="Capa_2" data-name="Capa 2"><g id="Capa_1-2" data-name="Capa 1"><circle class="cls-1" cx="36" cy="36" r="36"/><circle class="cls-2" cx="36" cy="36" r="36"/><path class="cls-3" d="M36,28.56a4.14,4.14,0,1,0,4.13,4.14A4.14,4.14,0,0,0,36,28.56Zm0,6.61a2.48,2.48,0,1,1,2.48-2.47A2.48,2.48,0,0,1,36,35.17Z"/><path class="cls-3" d="M36,35.17c-4.12,0-7.43,5-7.43,9.09a.83.83,0,0,0,.82.83H42.61a.83.83,0,0,0,.82-.83c0-4.11-3.31-9.09-7.43-9.09Zm-5.73,8.26c.4-3.1,2.92-6.6,5.73-6.6s5.33,3.5,5.73,6.6Z"/><path class="cls-3" d="M42.61,25.26a4.13,4.13,0,0,0-3.32,1.68.83.83,0,0,0,.17,1.15,5.73,5.73,0,0,1,2.32,4.61.83.83,0,0,0,.83.82,4.13,4.13,0,1,0,0-8.26Zm.77,6.49a7.42,7.42,0,0,0-2.21-4.37,2.43,2.43,0,0,1,1.44-.47,2.48,2.48,0,0,1,.77,4.84Z"/><path class="cls-3" d="M42.61,31.87a.83.83,0,0,0-.83.83,5.78,5.78,0,0,1-.5,2.33.83.83,0,0,0,.18.93A12.46,12.46,0,0,1,44.6,41.2a.82.82,0,0,0,.79.58h3.83A.82.82,0,0,0,50,41c0-4.12-3.31-9.09-7.43-9.09ZM46,40.13a14.29,14.29,0,0,0-3-5,7.11,7.11,0,0,0,.38-1.56c2.49.55,4.6,3.7,5,6.52Z"/><path class="cls-3" d="M32.71,26.94a4.13,4.13,0,1,0-3.32,6.58.83.83,0,0,0,.83-.82,5.73,5.73,0,0,1,2.32-4.61.83.83,0,0,0,.17-1.15Zm-4.09,4.81a2.48,2.48,0,0,1,.77-4.84,2.43,2.43,0,0,1,1.44.47,7.42,7.42,0,0,0-2.21,4.37Z"/><path class="cls-3" d="M30.72,35a5.78,5.78,0,0,1-.5-2.33.83.83,0,0,0-.83-.83c-4.12,0-7.43,5-7.43,9.09a.82.82,0,0,0,.82.82h3.83a.84.84,0,0,0,.79-.58A12.56,12.56,0,0,1,30.54,36a.83.83,0,0,0,.18-.93ZM26,40.13H23.66c.36-2.82,2.47-6,5-6.52A7.72,7.72,0,0,0,29,35.17a14.29,14.29,0,0,0-3,5Z"/><path class="cls-3" d="M36,17A19,19,0,1,0,55,36,19,19,0,0,0,36,17Zm0,36.35A17.35,17.35,0,1,1,53.35,36,17.37,17.37,0,0,1,36,53.35Z"/><path class="cls-3" d="M36,17a.83.83,0,0,0-.83.83v5a.83.83,0,0,0,1.66,0v-5A.83.83,0,0,0,36,17Z"/><path class="cls-3" d="M36,48.39a.83.83,0,0,0-.83.83v5a.83.83,0,0,0,1.66,0v-5a.83.83,0,0,0-.83-.83Z"/><path class="cls-3" d="M21.13,35.17h-3.3a.83.83,0,0,0,0,1.66h3.3a.83.83,0,0,0,0-1.66Z"/><path class="cls-3" d="M54.17,35.17h-3.3a.83.83,0,0,0,0,1.66h3.3a.83.83,0,0,0,0-1.66Z"/></g></g></svg>