<svg xmlns="http://www.w3.org/2000/svg" xmlns:xlink="http://www.w3.org/1999/xlink" viewBox="0 0 72 72"><defs><style>.cls-1{fill:url(#Degradado_sin_nombre_14);}.cls-2{fill:url(#Degradado_sin_nombre_17);}.cls-3{fill:#fff;}</style><linearGradient id="Degradado_sin_nombre_14" x1="36" x2="36" y2="72" gradientUnits="userSpaceOnUse"><stop offset="0.02" stop-color="#667eea" stop-opacity="0.8"/><stop offset="1" stop-color="#764ba2" stop-opacity="0.67"/></linearGradient><linearGradient id="Degradado_sin_nombre_17" x1="36" y1="-11.5" x2="36" y2="91.02" gradientUnits="userSpaceOnUse"><stop offset="0" stop-color="#667eea" stop-opacity="0.8"/><stop offset="1" stop-opacity="0.6"/></linearGradient></defs><title>Contactos Personales</title><g id="Capa_2" data-name="Capa 2"><g id="Capa_1-2" data-name="Capa 1"><circle class="cls-1" cx="36" cy="36" r="36"/><circle class="cls-2" cx="36" cy="36" r="36"/><path class="cls-3" d="M36,31.29a2.92,2.92,0,1,0,2.92,2.92A2.92,2.92,0,0,0,36,31.29Zm0,4.29a1.37,1.37,0,1,1,1.37-1.37A1.37,1.37,0,0,1,36,35.58Z"/><path class="cls-3" d="M36,28a8,8,0,1,0,8,8,8,8,0,0,0-8-8ZM33,41.7V39.08a.77.77,0,0,1,.52-.73L36,40.67l2.43-2.32a.77.77,0,0,1,.52.73V41.7a6.42,6.42,0,0,1-5.91,0Zm7.46-1.12v-1.5a2.32,2.32,0,0,0-2.32-2.32h-.32L36,38.53l-1.86-1.77h-.33a2.32,2.32,0,0,0-2.31,2.32v1.5a6.42,6.42,0,1,1,9,0Z"/><path class="cls-3" d="M25.62,29.3a3.83,3.83,0,1,0-3.83-3.83,3.83,3.83,0,0,0,3.83,3.83Zm0-6.11a2.28,2.28,0,1,1-2.28,2.28,2.29,2.29,0,0,1,2.28-2.28Z"/><path class="cls-3" d="M24.8,36A3.83,3.83,0,1,0,21,39.83,3.83,3.83,0,0,0,24.8,36ZM21,38.28A2.29,2.29,0,1,1,23.26,36,2.29,2.29,0,0,1,21,38.28Z"/><path class="cls-3" d="M51,32.17A3.83,3.83,0,1,0,54.86,36,3.82,3.82,0,0,0,51,32.17Zm0,6.11A2.29,2.29,0,1,1,53.31,36,2.29,2.29,0,0,1,51,38.28Z"/><path class="cls-3" d="M36,24.65a3.83,3.83,0,1,0-3.83-3.83A3.84,3.84,0,0,0,36,24.65Zm0-6.11a2.29,2.29,0,1,1-2.29,2.28A2.28,2.28,0,0,1,36,18.54Z"/><path class="cls-3" d="M46.65,29.33a3.83,3.83,0,1,0-3.83-3.83,3.84,3.84,0,0,0,3.83,3.83Zm0-6.12a2.29,2.29,0,1,1-2.29,2.29,2.29,2.29,0,0,1,2.29-2.29Z"/><path class="cls-3" d="M46.49,42.69a3.83,3.83,0,1,0,3.83,3.83,3.84,3.84,0,0,0-3.83-3.83Zm0,6.11a2.28,2.28,0,1,1,2.28-2.28,2.29,2.29,0,0,1-2.28,2.28Z"/><path class="cls-3" d="M36.13,47.34A3.83,3.83,0,1,0,40,51.17a3.84,3.84,0,0,0-3.84-3.83Zm0,6.11a2.28,2.28,0,1,1,2.29-2.28,2.29,2.29,0,0,1-2.29,2.28Z"/><path class="cls-3" d="M25.47,42.66a3.83,3.83,0,1,0,3.83,3.83,3.83,3.83,0,0,0-3.83-3.83Zm0,6.12a2.29,2.29,0,1,1,2.28-2.29,2.3,2.3,0,0,1-2.28,2.29Z"/></g></g></svg>