<svg xmlns="http://www.w3.org/2000/svg" xmlns:xlink="http://www.w3.org/1999/xlink" viewBox="0 0 72 72"><defs><style>.cls-1{fill:url(#Degradado_sin_nombre_14);}.cls-2{fill:url(#Degradado_sin_nombre_17);}.cls-3{fill:#fff;}</style><linearGradient id="Degradado_sin_nombre_14" x1="36" x2="36" y2="72" gradientUnits="userSpaceOnUse"><stop offset="0.02" stop-color="#667eea" stop-opacity="0.8"/><stop offset="1" stop-color="#764ba2" stop-opacity="0.67"/></linearGradient><linearGradient id="Degradado_sin_nombre_17" x1="36" y1="-11.5" x2="36" y2="91.02" gradientUnits="userSpaceOnUse"><stop offset="0" stop-color="#667eea" stop-opacity="0.8"/><stop offset="1" stop-opacity="0.6"/></linearGradient></defs><title>Empresas a usuario</title><g id="Capa_2" data-name="Capa 2"><g id="Capa_1-2" data-name="Capa 1"><circle class="cls-1" cx="36" cy="36" r="36"/><circle class="cls-2" cx="36" cy="36" r="36"/><path class="cls-3" d="M53.1,25.09H51.83v-1.9H45.5v1.9H43V21.42a2,2,0,0,0-2-2H31.06a2,2,0,0,0-2,2v3.67H26.5v-1.9H20.17v1.9H18.9A1.91,1.91,0,0,0,17,27V49.79a1.91,1.91,0,0,0,1.9,1.9H53.1a1.91,1.91,0,0,0,1.9-1.9V27a1.91,1.91,0,0,0-1.9-1.91Zm-6.33-.63h3.8v.63h-3.8Zm-16.47-3a.76.76,0,0,1,.76-.76h9.88a.76.76,0,0,1,.76.76v3.67H30.3ZM29,26.36H48.67V50.43H23.33V26.36Zm-7.6-1.9h3.8v.63h-3.8ZM18.27,49.79V27a.64.64,0,0,1,.63-.64h3.17V50.43H18.9a.64.64,0,0,1-.63-.64Zm35.46,0a.64.64,0,0,1-.63.64H49.93V26.36H53.1a.64.64,0,0,1,.63.64Z"/></g></g></svg>