<svg xmlns="http://www.w3.org/2000/svg" xmlns:xlink="http://www.w3.org/1999/xlink" viewBox="0 0 72 72"><defs><style>.cls-1{fill:url(#Degradado_sin_nombre_14);}.cls-2{fill:url(#Degradado_sin_nombre_17);}.cls-3{fill:#fff;}</style><linearGradient id="Degradado_sin_nombre_14" x1="36" x2="36" y2="72" gradientUnits="userSpaceOnUse"><stop offset="0.02" stop-color="#667eea" stop-opacity="0.8"/><stop offset="1" stop-color="#764ba2" stop-opacity="0.67"/></linearGradient><linearGradient id="Degradado_sin_nombre_17" x1="36" y1="-11.5" x2="36" y2="91.02" gradientUnits="userSpaceOnUse"><stop offset="0" stop-color="#667eea" stop-opacity="0.8"/><stop offset="1" stop-opacity="0.6"/></linearGradient></defs><title>Grupos Tarifarios</title><g id="Capa_2" data-name="Capa 2"><g id="Capa_1-2" data-name="Capa 1"><circle class="cls-1" cx="36" cy="36" r="36"/><circle class="cls-2" cx="36" cy="36" r="36"/><path class="cls-3" d="M54.63,20.1h-2v-2a.63.63,0,0,0-.66-.67H37.21a2.66,2.66,0,0,0-5.16,0H20a.64.64,0,0,0-.67.67v32a.64.64,0,0,0,.67.67h2v2a.62.62,0,0,0,.66.66h32a.63.63,0,0,0,.67-.66v-32a.64.64,0,0,0-.67-.67Zm-20-3.33a1.37,1.37,0,0,1,1.16.66H33.48a1.34,1.34,0,0,1,1.15-.66Zm-14,2H32V22.1a2.67,2.67,0,1,0,5.33,0,.64.64,0,0,0-.67-.67.63.63,0,0,0-.66.67,1.34,1.34,0,0,1-2.67,0V18.77h18V49.43H20.63ZM54,52.1H23.3V50.77H52a.63.63,0,0,0,.66-.67V21.43H54Z"/><path class="cls-3" d="M42.63,29.43H45.3a.63.63,0,0,0,.67-.66.64.64,0,0,0-.67-.67H42.63a.63.63,0,0,0-.66.67.62.62,0,0,0,.66.66Z"/><path class="cls-3" d="M35.3,29.43H40a.62.62,0,0,0,.66-.66A.63.63,0,0,0,40,28.1H35.3a.64.64,0,0,0-.67.67.63.63,0,0,0,.67.66Z"/><path class="cls-3" d="M26.63,29.43h6a.63.63,0,0,0,.67-.66.64.64,0,0,0-.67-.67h-6a.63.63,0,0,0-.66.67.62.62,0,0,0,.66.66Z"/><path class="cls-3" d="M45.3,32.1H40a.64.64,0,0,0-.67.67.63.63,0,0,0,.67.66H45.3a.63.63,0,0,0,.67-.66.64.64,0,0,0-.67-.67Z"/><path class="cls-3" d="M36,32.1H31.3a.64.64,0,0,0-.67.67.63.63,0,0,0,.67.66H36a.62.62,0,0,0,.66-.66A.63.63,0,0,0,36,32.1Z"/><path class="cls-3" d="M26.63,33.43h2a.63.63,0,0,0,.67-.66.64.64,0,0,0-.67-.67h-2a.63.63,0,0,0-.66.67.62.62,0,0,0,.66.66Z"/><path class="cls-3" d="M45.3,36.1h-2a.64.64,0,0,0-.67.67.63.63,0,0,0,.67.66h2a.63.63,0,0,0,.67-.66.64.64,0,0,0-.67-.67Z"/><path class="cls-3" d="M33.3,36.77a.63.63,0,0,0,.67.66h6.66a.63.63,0,0,0,.67-.66.64.64,0,0,0-.67-.67H34a.64.64,0,0,0-.67.67Z"/><path class="cls-3" d="M26.63,37.43H30a.62.62,0,0,0,.66-.66A.63.63,0,0,0,30,36.1H26.63a.63.63,0,0,0-.66.67.62.62,0,0,0,.66.66Z"/><path class="cls-3" d="M45.3,40.1H38a.64.64,0,0,0-.67.67.63.63,0,0,0,.67.66H45.3a.63.63,0,0,0,.67-.66.64.64,0,0,0-.67-.67Z"/><path class="cls-3" d="M34,40.1H31.3a.64.64,0,0,0-.67.67.63.63,0,0,0,.67.66H34a.62.62,0,0,0,.66-.66A.63.63,0,0,0,34,40.1Z"/><path class="cls-3" d="M26.63,41.43h2a.63.63,0,0,0,.67-.66.64.64,0,0,0-.67-.67h-2a.63.63,0,0,0-.66.67.62.62,0,0,0,.66.66Z"/></g></g></svg>