<svg xmlns="http://www.w3.org/2000/svg" xmlns:xlink="http://www.w3.org/1999/xlink" viewBox="0 0 72 72"><defs><style>.cls-1{fill:#00aeef;}.cls-2{fill:url(#Degradado_sin_nombre_33);}.cls-3{fill:#fff;}</style><linearGradient id="Degradado_sin_nombre_33" x1="36" y1="-11.5" x2="36" y2="91.02" gradientUnits="userSpaceOnUse"><stop offset="0" stop-color="#29abe2" stop-opacity="0.8"/><stop offset="1" stop-opacity="0.6"/></linearGradient></defs><title>Jerarquía de aprobaciones</title><g id="Capa_2" data-name="Capa 2"><g id="Capa_1-2" data-name="Capa 1"><circle class="cls-1" cx="36" cy="36" r="36"/><circle class="cls-2" cx="36" cy="36" r="36"/><path class="cls-3" d="M51.18,18.71H20.82a.55.55,0,0,0-.55.55v8.83a.55.55,0,0,0,.55.55H51.18a.55.55,0,0,0,.55-.55V19.26a.55.55,0,0,0-.55-.55Zm-29.81,1.1H41.8v7.73H21.37Zm29.26,7.73H42.9V19.81h7.73Z"/><path class="cls-3" d="M29.65,45.93h9.66a.54.54,0,0,0,.55-.55.55.55,0,0,0-.55-.55H29.65a.55.55,0,0,0-.55.55.55.55,0,0,0,.55.55Z"/><path class="cls-3" d="M49,41.89H29.65a.55.55,0,0,0-.55.55.55.55,0,0,0,.55.55H49a.55.55,0,0,0,.55-.55.54.54,0,0,0-.55-.55Z"/><path class="cls-3" d="M29.65,37.1h9.66a.54.54,0,0,0,.55-.55.55.55,0,0,0-.55-.55H29.65a.55.55,0,0,0-.55.55.55.55,0,0,0,.55.55Z"/><path class="cls-3" d="M29.65,34.16H49a.55.55,0,0,0,.55-.55.54.54,0,0,0-.55-.55H29.65a.55.55,0,0,0-.55.55.55.55,0,0,0,.55.55Z"/><path class="cls-3" d="M51.18,30.11H20.82a.55.55,0,0,0-.55.55V39.5a.55.55,0,0,0,.55.55H51.18a.55.55,0,0,0,.55-.55V30.66a.55.55,0,0,0-.55-.55Zm-.55,8.83H21.37V31.22H50.63Z"/><path class="cls-3" d="M44.66,24.76a2.25,2.25,0,0,0,1.6.66,2.28,2.28,0,0,0,1.15-.31l1.17,1.16a.55.55,0,0,0,.78-.78l-1.17-1.17a2.19,2.19,0,0,0,.32-1.15,2.25,2.25,0,0,0-2.25-2.26,2.29,2.29,0,0,0-1.6.66,2.26,2.26,0,0,0,0,3.19Zm.78-2.41a1.18,1.18,0,0,1,.82-.33,1.14,1.14,0,0,1,1.15,1.15,1.16,1.16,0,0,1-1.15,1.15,1.15,1.15,0,0,1-.82-.34,1.17,1.17,0,0,1,0-1.63Z"/><path class="cls-3" d="M27.45,41.15H23a.55.55,0,0,0-.55.55v4.42a.55.55,0,0,0,.55.55h4.42a.55.55,0,0,0,.55-.55V41.7a.55.55,0,0,0-.55-.55Zm-.56,4.42H23.58V42.26h3.31Z"/><path class="cls-3" d="M39.31,51.45H29.65a.56.56,0,0,0,0,1.11h9.66a.56.56,0,0,0,0-1.11Z"/><path class="cls-3" d="M49,48.51H29.65a.55.55,0,0,0-.55.55.55.55,0,0,0,.55.55H49a.54.54,0,0,0,.55-.55.55.55,0,0,0-.55-.55Z"/><path class="cls-3" d="M27.45,47.77H23a.55.55,0,0,0-.55.56v4.41a.54.54,0,0,0,.55.55h4.42a.55.55,0,0,0,.55-.55V48.33a.56.56,0,0,0-.55-.56Zm-.56,4.42H23.58V48.88h3.31Z"/><path class="cls-3" d="M23,37.84h4.42a.55.55,0,0,0,.55-.55V32.87a.55.55,0,0,0-.55-.55H23a.55.55,0,0,0-.55.55v4.42a.55.55,0,0,0,.55.55Zm.55-4.42h3.31v3.32H23.58Z"/></g></g></svg>