<svg xmlns="http://www.w3.org/2000/svg" xmlns:xlink="http://www.w3.org/1999/xlink" viewBox="0 0 72 72"><defs><style>.cls-1{fill:url(#Degradado_sin_nombre_14);}.cls-2{fill:url(#Degradado_sin_nombre_17);}.cls-3{fill:#fafafa;}</style><linearGradient id="Degradado_sin_nombre_14" x1="36" x2="36" y2="72" gradientUnits="userSpaceOnUse"><stop offset="0.02" stop-color="#667eea" stop-opacity="0.8"/><stop offset="1" stop-color="#764ba2" stop-opacity="0.67"/></linearGradient><linearGradient id="Degradado_sin_nombre_17" x1="36" y1="-11.5" x2="36" y2="91.02" gradientUnits="userSpaceOnUse"><stop offset="0" stop-color="#667eea" stop-opacity="0.8"/><stop offset="1" stop-opacity="0.6"/></linearGradient></defs><title>Jerarquia de aprobación de presupuestos internos</title><g id="Capa_2" data-name="Capa 2"><g id="Capa_1-2" data-name="Capa 1"><circle class="cls-1" cx="36" cy="36" r="36"/><circle class="cls-2" cx="36" cy="36" r="36"/><path class="cls-3" d="M50,42.37a4.68,4.68,0,0,0-9.35,0V43H38v12H52.69V43H50Zm-8,0a3.34,3.34,0,0,1,6.68,0V43H42Zm9.34,2v9.35h-12V44.37Z"/><path class="cls-3" d="M44.68,51.62v.76a.67.67,0,0,0,1.34,0v-.76a2.67,2.67,0,1,0-1.34,0Zm.67-3.91A1.34,1.34,0,1,1,44,49a1.34,1.34,0,0,1,1.34-1.33Z"/><path class="cls-3" d="M36,26.35H48A.67.67,0,0,0,48,25H36a.67.67,0,0,0,0,1.34Z"/><path class="cls-3" d="M36,35.69H48a.67.67,0,1,0,0-1.33H36a.67.67,0,1,0,0,1.33Z"/><path class="cls-3" d="M31.72,21.83a.68.68,0,0,0-.95.08L26.6,26.77l-2.55-1.91a.67.67,0,0,0-.93.13.66.66,0,0,0,.13.93l3.05,2.29a.66.66,0,0,0,.91-.09l4.58-5.35a.67.67,0,0,0-.07-.94Z"/><path class="cls-3" d="M31.72,31.18a.68.68,0,0,0-.95.07L26.6,36.12,24.05,34.2a.67.67,0,0,0-.93.14.66.66,0,0,0,.13.93l3.05,2.29a.67.67,0,0,0,.4.14.69.69,0,0,0,.51-.24l4.58-5.34a.67.67,0,0,0-.07-.94Z"/><path class="cls-3" d="M30.77,41.27,26.6,46.13l-2.55-1.91a.67.67,0,0,0-.93.13.66.66,0,0,0,.13.93l3.05,2.3a.73.73,0,0,0,.4.13.68.68,0,0,0,.51-.23l4.58-5.34a.67.67,0,1,0-1-.87Z"/><path class="cls-3" d="M45.9,17H26.11A8.14,8.14,0,0,0,18,25.13V44.92a8.14,8.14,0,0,0,8.13,8.13H36a.67.67,0,0,0,.67-.67.66.66,0,0,0-.67-.66H26.11a6.81,6.81,0,0,1-6.8-6.8V25.13a6.8,6.8,0,0,1,6.8-6.79H45.9a6.8,6.8,0,0,1,6.79,6.79v16a.66.66,0,0,0,.67.66.65.65,0,0,0,.66-.66v-16A8.13,8.13,0,0,0,45.9,17Z"/></g></g></svg>