<svg xmlns="http://www.w3.org/2000/svg" xmlns:xlink="http://www.w3.org/1999/xlink" viewBox="0 0 72 72"><defs><style>.cls-1{fill:url(#Degradado_sin_nombre_14);}.cls-2{fill:url(#Degradado_sin_nombre_17);}.cls-3{fill:#fafafa;}</style><linearGradient id="Degradado_sin_nombre_14" x1="36" x2="36" y2="72" gradientUnits="userSpaceOnUse"><stop offset="0.02" stop-color="#667eea" stop-opacity="0.8"/><stop offset="1" stop-color="#764ba2" stop-opacity="0.67"/></linearGradient><linearGradient id="Degradado_sin_nombre_17" x1="36" y1="-11.5" x2="36" y2="91.02" gradientUnits="userSpaceOnUse"><stop offset="0" stop-color="#667eea" stop-opacity="0.8"/><stop offset="1" stop-opacity="0.6"/></linearGradient></defs><title>Jerarquia de aprobación de facturas proveedor</title><g id="Capa_2" data-name="Capa 2"><g id="Capa_1-2" data-name="Capa 1"><circle class="cls-1" cx="36" cy="36" r="36"/><circle class="cls-2" cx="36" cy="36" r="36"/><path class="cls-3" d="M35.85,26.49h12.2a.68.68,0,1,0,0-1.35H35.85a.68.68,0,1,0,0,1.35Z"/><path class="cls-3" d="M35.85,36h12.2a.68.68,0,0,0,0-1.36H35.85a.68.68,0,0,0,0,1.36Z"/><path class="cls-3" d="M31.49,21.91a.69.69,0,0,0-1,.07L26.3,26.93,23.71,25a.68.68,0,0,0-.95.14.68.68,0,0,0,.14.95L26,28.39a.67.67,0,0,0,.4.14.69.69,0,0,0,.52-.24l4.64-5.43a.66.66,0,0,0-.07-.95Z"/><path class="cls-3" d="M31.49,31.4a.68.68,0,0,0-1,.08L26.3,36.42l-2.59-1.94a.68.68,0,1,0-.81,1.08L26,37.89a.66.66,0,0,0,.4.13.71.71,0,0,0,.52-.23l4.64-5.43a.67.67,0,0,0-.07-1Z"/><path class="cls-3" d="M30.53,41.65,26.3,46.59l-2.59-1.94a.68.68,0,1,0-.81,1.08L26,48.06a.67.67,0,0,0,.4.14.72.72,0,0,0,.52-.24l4.64-5.43a.66.66,0,0,0-.07-1,.67.67,0,0,0-1,.07Z"/><path class="cls-3" d="M45.9,17H25.79a8.28,8.28,0,0,0-8.26,8.26v20.1a8.27,8.27,0,0,0,8.26,8.26H35.85a.68.68,0,1,0,0-1.35H25.79a6.92,6.92,0,0,1-6.9-6.91V25.26a6.91,6.91,0,0,1,6.9-6.9H45.9a6.91,6.91,0,0,1,6.9,6.9V35.31a.68.68,0,1,0,1.36,0v-10A8.28,8.28,0,0,0,45.9,17Z"/><path class="cls-3" d="M54,38H38.55a.43.43,0,0,0-.43.43v16a.43.43,0,0,0,.22.38.44.44,0,0,0,.43,0l1.9-1.14L42.39,55l2.15-1.29L46.27,55l2.15-1.29L50.14,55l2.15-1.29,1.49,1.12a.44.44,0,0,0,.25.08.42.42,0,0,0,.44-.43v-16A.44.44,0,0,0,54,38Zm-.84,15.19L52,52.32l-2,1.22-1.41-1.06a.41.41,0,0,0-.24-.08.42.42,0,0,0-.21.06l-1.79,1.08-1.63-1.22-2,1.22L41,52.32l-1.65,1v-14h13.8v13.9Z"/><path class="cls-3" d="M44.92,41.65H42A.68.68,0,0,0,42,43h2.92a.68.68,0,0,0,0-1.35Z"/><path class="cls-3" d="M50.17,43.8H42a.68.68,0,0,0,0,1.35h8.17a.68.68,0,0,0,0-1.35Z"/><path class="cls-3" d="M50.17,46H42a.68.68,0,0,0,0,1.35h8.17a.68.68,0,0,0,0-1.35Z"/></g></g></svg>