<svg xmlns="http://www.w3.org/2000/svg" xmlns:xlink="http://www.w3.org/1999/xlink" viewBox="0 0 72 72"><defs><style>.cls-1{fill:#00aeef;}.cls-2{fill:url(#Degradado_sin_nombre_33);}.cls-3{fill:#fff;}</style><linearGradient id="Degradado_sin_nombre_33" x1="36" y1="-11.5" x2="36" y2="91.02" gradientUnits="userSpaceOnUse"><stop offset="0" stop-color="#29abe2" stop-opacity="0.8"/><stop offset="1" stop-opacity="0.6"/></linearGradient></defs><title>Personas</title><g id="Capa_2" data-name="Capa 2"><g id="Capa_1-2" data-name="Capa 1"><circle class="cls-1" cx="36" cy="36" r="36"/><circle class="cls-2" cx="36" cy="36" r="36"/><path class="cls-3" d="M36,49.45a2.87,2.87,0,0,0,2.86-2.86V46a2.86,2.86,0,1,0-5.72,0v.58A2.87,2.87,0,0,0,36,49.45ZM34.28,46a1.72,1.72,0,0,1,3.44,0v.58a1.72,1.72,0,0,1-3.44,0Z"/><path class="cls-3" d="M38.29,49.47h-.48a.58.58,0,0,0-.49.27,1.45,1.45,0,0,1-2.64,0,.58.58,0,0,0-.49-.27h-.48a2.4,2.4,0,0,0-2.29,2.27V53a1,1,0,0,0,1,1.05h7.06a1,1,0,0,0,1-1.05V51.74A2.31,2.31,0,0,0,40,50.25a2.2,2.2,0,0,0-1.67-.78Zm1.14,3.41H32.57V51.74a1.25,1.25,0,0,1,1.14-1.13h.18a2.53,2.53,0,0,0,4.22,0h.18a1.25,1.25,0,0,1,1.14,1.13Z"/><path class="cls-3" d="M36,24.27a2.86,2.86,0,0,0,2.86-2.86v-.58a2.86,2.86,0,0,0-5.72,0v.58A2.86,2.86,0,0,0,36,24.27Zm-1.72-3.44a1.72,1.72,0,0,1,3.44,0v.58a1.72,1.72,0,0,1-3.44,0Z"/><path class="cls-3" d="M38.29,24.29h-.48a.58.58,0,0,0-.49.27,1.45,1.45,0,0,1-2.64,0,.58.58,0,0,0-.49-.27h-.48a2.4,2.4,0,0,0-2.29,2.27V27.8a1,1,0,0,0,1,1.05h7.06a1,1,0,0,0,1-1.05V26.56A2.31,2.31,0,0,0,40,25.07a2.2,2.2,0,0,0-1.67-.78Zm1.14,3.41H32.57V26.56a1.25,1.25,0,0,1,1.14-1.13h.18a2.53,2.53,0,0,0,4.22,0h.18a1.25,1.25,0,0,1,1.14,1.13Z"/><path class="cls-3" d="M46.87,33.42V34a2.87,2.87,0,0,0,5.73,0v-.58a2.87,2.87,0,0,0-5.73,0Zm1.15,0a1.72,1.72,0,0,1,3.43,0V34A1.72,1.72,0,0,1,48,34Z"/><path class="cls-3" d="M53.69,37.66A2.2,2.2,0,0,0,52,36.88h-.49a.55.55,0,0,0-.48.27,1.46,1.46,0,0,1-2.65,0,.56.56,0,0,0-.48-.27h-.49a2.39,2.39,0,0,0-2.28,2.27v1.24a1,1,0,0,0,1.05,1h7.06a1,1,0,0,0,1-1V39.15a2.31,2.31,0,0,0-.62-1.49Zm-.52,2.63H46.3V39.15A1.25,1.25,0,0,1,47.44,38h.18a2.54,2.54,0,0,0,4.23,0H52a1.26,1.26,0,0,1,1.14,1.13Z"/><path class="cls-3" d="M22.27,36.86A2.87,2.87,0,0,0,25.13,34v-.58a2.87,2.87,0,0,0-5.73,0V34a2.87,2.87,0,0,0,2.87,2.86Zm-1.72-3.44a1.72,1.72,0,0,1,3.43,0V34a1.72,1.72,0,0,1-3.43,0Z"/><path class="cls-3" d="M26.84,40.39V39.15a2.31,2.31,0,0,0-.62-1.49,2.2,2.2,0,0,0-1.66-.78h-.49a.56.56,0,0,0-.48.27,1.46,1.46,0,0,1-2.65,0,.55.55,0,0,0-.48-.27H20a2.39,2.39,0,0,0-2.28,2.27v1.24a1,1,0,0,0,1,1H25.8a1,1,0,0,0,1-1Zm-1.14-.1H18.83V39.15A1.26,1.26,0,0,1,20,38h.19a2.63,2.63,0,0,0,2.11,1.13A2.66,2.66,0,0,0,24.38,38h.18a1.25,1.25,0,0,1,1.14,1.13v1.14Z"/><path class="cls-3" d="M30.61,48.92a13.78,13.78,0,0,1-6.66-6,.58.58,0,1,0-1,.55A15,15,0,0,0,30.16,50a.58.58,0,0,0,.45-1.06Z"/><path class="cls-3" d="M48.83,42.65a.57.57,0,0,0-.78.23,13.78,13.78,0,0,1-6.66,6,.58.58,0,0,0-.3.75.56.56,0,0,0,.53.35.44.44,0,0,0,.22-.05,15,15,0,0,0,7.22-6.54.57.57,0,0,0-.23-.78Z"/><path class="cls-3" d="M40.4,23.27a13.78,13.78,0,0,1,7.33,5.87.58.58,0,0,0,.49.28.61.61,0,0,0,.3-.08.57.57,0,0,0,.19-.79,14.85,14.85,0,0,0-8-6.36.56.56,0,0,0-.72.36.57.57,0,0,0,.36.72Z"/><path class="cls-3" d="M23.48,29.34a.64.64,0,0,0,.3.08.58.58,0,0,0,.49-.28,13.8,13.8,0,0,1,7.34-5.87.57.57,0,0,0,.35-.73.55.55,0,0,0-.72-.35,14.89,14.89,0,0,0-7.95,6.36.57.57,0,0,0,.19.79Z"/></g></g></svg>