<svg xmlns="http://www.w3.org/2000/svg" xmlns:xlink="http://www.w3.org/1999/xlink" viewBox="0 0 72 72"><defs><style>.cls-1{fill:#00aeef;}.cls-2{fill:url(#Degradado_sin_nombre_33);}.cls-3{fill:#fff;}</style><linearGradient id="Degradado_sin_nombre_33" x1="36" y1="-11.5" x2="36" y2="91.02" gradientUnits="userSpaceOnUse"><stop offset="0" stop-color="#29abe2" stop-opacity="0.8"/><stop offset="1" stop-opacity="0.6"/></linearGradient></defs><title>PPTOS Generales</title><g id="Capa_2" data-name="Capa 2"><g id="Capa_1-2" data-name="Capa 1"><circle class="cls-1" cx="36" cy="36" r="36"/><circle class="cls-2" cx="36" cy="36" r="36"/><path class="cls-3" d="M36,35.16a3.69,3.69,0,1,0,3.68,3.68A3.69,3.69,0,0,0,36,35.16Zm0,6.19a2.51,2.51,0,1,1,2.5-2.51A2.5,2.5,0,0,1,36,41.35Z"/><path class="cls-3" d="M45.15,36.71H42.43a7.09,7.09,0,0,0-.37-.9L44,33.89a.59.59,0,0,0,.06-.76,9.83,9.83,0,0,0-2.32-2.32.58.58,0,0,0-.76.06L39,32.79a8.64,8.64,0,0,0-.9-.38V29.7a.59.59,0,0,0-.5-.58,9.68,9.68,0,0,0-3.28,0,.58.58,0,0,0-.49.58v2.71a8,8,0,0,0-.91.38L31,30.87a.57.57,0,0,0-.75-.06A9.69,9.69,0,0,0,28,33.13a.59.59,0,0,0,.06.76L30,35.81a5.92,5.92,0,0,0-.38.9H26.85a.6.6,0,0,0-.58.49,9.73,9.73,0,0,0,0,3.29.6.6,0,0,0,.58.49h2.72a7.09,7.09,0,0,0,.37.9L28,43.8a.59.59,0,0,0-.06.76,9.83,9.83,0,0,0,2.32,2.32.59.59,0,0,0,.76-.06L33,44.9a6.83,6.83,0,0,0,.9.37V48a.59.59,0,0,0,.5.58,9.68,9.68,0,0,0,3.28,0,.58.58,0,0,0,.49-.58V45.27A6.43,6.43,0,0,0,39,44.9L41,46.82a.58.58,0,0,0,.75.06A9.69,9.69,0,0,0,44,44.56.59.59,0,0,0,44,43.8l-1.93-1.92a5.92,5.92,0,0,0,.38-.9h2.72a.6.6,0,0,0,.58-.49,9.73,9.73,0,0,0,0-3.29.6.6,0,0,0-.58-.49Zm-.52,3.09H42a.59.59,0,0,0-.57.44,5.56,5.56,0,0,1-.6,1.45.58.58,0,0,0,.09.71l1.87,1.87a8.68,8.68,0,0,1-1.35,1.36l-1.87-1.87a.59.59,0,0,0-.72-.09,5.85,5.85,0,0,1-1.44.6.58.58,0,0,0-.44.56v2.65a8.8,8.8,0,0,1-1.92,0V44.83a.58.58,0,0,0-.44-.56,5.85,5.85,0,0,1-1.44-.6.59.59,0,0,0-.72.09l-1.87,1.87a8.68,8.68,0,0,1-1.35-1.36l1.87-1.87a.58.58,0,0,0,.09-.71,5.56,5.56,0,0,1-.6-1.45A.59.59,0,0,0,30,39.8H27.37a7.63,7.63,0,0,1,0-1.91H30a.59.59,0,0,0,.57-.44,5.56,5.56,0,0,1,.6-1.45.58.58,0,0,0-.09-.71l-1.87-1.87a8.68,8.68,0,0,1,1.35-1.36l1.87,1.87a.59.59,0,0,0,.72.09,5.85,5.85,0,0,1,1.44-.6.58.58,0,0,0,.44-.57V30.21a8.8,8.8,0,0,1,1.92,0v2.65a.58.58,0,0,0,.44.56,5.85,5.85,0,0,1,1.44.6.59.59,0,0,0,.72-.09l1.87-1.87a8.68,8.68,0,0,1,1.35,1.36l-1.87,1.87a.58.58,0,0,0-.09.71,5.56,5.56,0,0,1,.6,1.45.59.59,0,0,0,.57.44h2.64a7.63,7.63,0,0,1,0,1.91Z"/><path class="cls-3" d="M51.3,22.7H38.35a.58.58,0,0,0-.58.59.59.59,0,0,0,.58.59H51.3a2,2,0,0,1,2,2v.69a3.12,3.12,0,0,0-2-.69H36.59V23.29a3.15,3.15,0,0,0-3.14-3.14H20.7a3.15,3.15,0,0,0-3.14,3.14v28a.58.58,0,0,0,.59.59h35.7a.58.58,0,0,0,.59-.59V25.84A3.15,3.15,0,0,0,51.3,22.7Zm2,28H18.74V23.29a2,2,0,0,1,2-2H33.45a2,2,0,0,1,2,2v3.14A.6.6,0,0,0,36,27H51.3a2,2,0,0,1,2,2Z"/></g></g></svg>