<svg xmlns="http://www.w3.org/2000/svg" xmlns:xlink="http://www.w3.org/1999/xlink" viewBox="0 0 72 72"><defs><style>.cls-1{fill:url(#Degradado_sin_nombre_14);}.cls-2{fill:url(#Degradado_sin_nombre_17);}.cls-3{fill:#fff;}</style><linearGradient id="Degradado_sin_nombre_14" x1="36" x2="36" y2="72" gradientUnits="userSpaceOnUse"><stop offset="0.02" stop-color="#667eea" stop-opacity="0.8"/><stop offset="1" stop-color="#764ba2" stop-opacity="0.67"/></linearGradient><linearGradient id="Degradado_sin_nombre_17" x1="36" y1="-11.5" x2="36" y2="91.02" gradientUnits="userSpaceOnUse"><stop offset="0" stop-color="#667eea" stop-opacity="0.8"/><stop offset="1" stop-opacity="0.6"/></linearGradient></defs><title>Tarifario (grupos e items)</title><g id="Capa_2" data-name="Capa 2"><g id="Capa_1-2" data-name="Capa 1"><circle class="cls-1" cx="36" cy="36" r="36"/><circle class="cls-2" cx="36" cy="36" r="36"/><path class="cls-3" d="M45.49,17H25.24a.22.22,0,0,0-.18.06H25c-.06.07-.12.07-.19.13l-7.59,7.59c-.06.07-.06.13-.13.19V25c0,.07-.06.13-.06.19v29.1a.6.6,0,0,0,.63.64H45.49a.6.6,0,0,0,.63-.64V17.63a.59.59,0,0,0-.63-.63ZM24.61,19.15v5.44H19.17ZM44.86,53.69H18.29V25.86h7a.61.61,0,0,0,.64-.64V18.27h19Z"/><path class="cls-3" d="M42.33,29H20.82a.6.6,0,0,0-.64.63V49.9a.6.6,0,0,0,.64.63H42.33A.59.59,0,0,0,43,49.9V29.65a.59.59,0,0,0-.63-.63Zm-.64,3.8H26.51V30.29H41.69ZM26.51,42.31H41.69v3.16H26.51Zm0-1.27V37.88H41.69V41Zm0-4.43V34.08H41.69v2.53Zm-1.27-6.32v2.53H21.45V30.29Zm-3.79,3.79h3.79V49.27H21.45Zm5.06,15.19V46.74H41.69v2.53Z"/><rect class="cls-3" x="22.71" y="35.35" width="1.27" height="1.27"/><rect class="cls-3" x="22.71" y="39.14" width="1.27" height="1.27"/><rect class="cls-3" x="22.71" y="42.94" width="1.27" height="1.26"/><rect class="cls-3" x="22.71" y="46.74" width="1.27" height="1.26"/><rect class="cls-3" x="37.9" y="20.8" width="5.06" height="1.26"/><rect class="cls-3" x="33.47" y="23.33" width="9.49" height="1.27"/><path class="cls-3" d="M53.71,32.18V50.53H52.45V23.33a.69.69,0,0,0-.13-.38l-1.83-5.51a.62.62,0,0,0-.57-.44.61.61,0,0,0-.57.44L47.51,23a.89.89,0,0,0-.12.38v31A.6.6,0,0,0,48,55h3.8a.6.6,0,0,0,.63-.64V51.8h1.9a.6.6,0,0,0,.63-.64v-19ZM48.65,24h2.53V46.74H48.65Zm1.27-4.3,1,3h-2Zm1.26,34H48.65V48h2.53Z"/></g></g></svg>