<svg xmlns="http://www.w3.org/2000/svg" xmlns:xlink="http://www.w3.org/1999/xlink" viewBox="0 0 72 72"><defs><style>.cls-1{fill:url(#Degradado_sin_nombre_14);}.cls-2{fill:url(#Degradado_sin_nombre_17);}.cls-3{fill:#fff;}</style><linearGradient id="Degradado_sin_nombre_14" x1="36" x2="36" y2="72" gradientUnits="userSpaceOnUse"><stop offset="0.02" stop-color="#667eea" stop-opacity="0.8"/><stop offset="1" stop-color="#764ba2" stop-opacity="0.67"/></linearGradient><linearGradient id="Degradado_sin_nombre_17" x1="36" y1="-11.5" x2="36" y2="91.02" gradientUnits="userSpaceOnUse"><stop offset="0" stop-color="#667eea" stop-opacity="0.8"/><stop offset="1" stop-opacity="0.6"/></linearGradient></defs><title>Usuario Asignados</title><g id="Capa_2" data-name="Capa 2"><g id="Capa_1-2" data-name="Capa 1"><circle class="cls-1" cx="36" cy="36" r="36"/><circle class="cls-2" cx="36" cy="36" r="36"/><path class="cls-3" d="M55.3,45.24a.66.66,0,0,0-.54-.45l-5.09-.72-2.28-4.44a.67.67,0,0,0-1.16,0L44,44.07l-5.09.72a.65.65,0,0,0-.36,1.12l3.67,3.45-.86,4.87a.64.64,0,0,0,.25.64.66.66,0,0,0,.69.06l4.56-2.31,4.56,2.31a.78.78,0,0,0,.3.07.63.63,0,0,0,.39-.13.64.64,0,0,0,.25-.64l-.86-4.87,3.67-3.45a.67.67,0,0,0,.18-.67Zm-5,3.41a.64.64,0,0,0-.19.59l.69,3.92L47.1,51.3a.59.59,0,0,0-.29-.07.66.66,0,0,0-.3.07l-3.68,1.86.69-3.92a.64.64,0,0,0-.19-.59L40.39,45.9l4.08-.58A.62.62,0,0,0,45,45l1.85-3.6L48.66,45a.62.62,0,0,0,.49.35l4.08.58Z"/><path class="cls-3" d="M34.69,51.72c-.42,0-.83,0-1.24,0l-.22,0q-.61,0-1.23-.15h-.06a15.83,15.83,0,0,1-2.55-.63l-.07,0c-.42-.14-.82-.3-1.22-.47h0c-.38-.16-.75-.34-1.12-.54l-.14-.07q-.51-.27-1-.57L25.56,49a10.61,10.61,0,0,1-.88-.61l-.09-.07.06,0,5.19-2.83A2.76,2.76,0,0,0,31.28,43V40.66l-.15-.18a10.94,10.94,0,0,1-2-4.08l-.06-.25L28.88,36a1.07,1.07,0,0,1-.51-.91V32.77a1.12,1.12,0,0,1,.37-.81l.22-.19V28a4,4,0,0,1,.92-2.86c.94-1.08,2.57-1.63,4.82-1.63s3.86.55,4.81,1.62A4,4,0,0,1,40.43,28v3.73l.22.2a1.07,1.07,0,0,1,.36.8v2.32a1.09,1.09,0,0,1-.77,1,.66.66,0,0,0-.43.82.64.64,0,0,0,.82.43,2.38,2.38,0,0,0,1.69-2.28V32.77a2.33,2.33,0,0,0-.58-1.55V28.16a5.23,5.23,0,0,0-1.23-3.84c-1.21-1.38-3.16-2.08-5.81-2.08s-4.6.7-5.81,2.08a5.23,5.23,0,0,0-1.23,3.84v3.06a2.33,2.33,0,0,0-.58,1.55v2.32a2.4,2.4,0,0,0,.87,1.85,12.08,12.08,0,0,0,2,4.18V43a1.45,1.45,0,0,1-.76,1.28L24,47.13a4.53,4.53,0,0,0-.5.31A16.7,16.7,0,1,1,51.39,35a.66.66,0,0,0,1.32,0A18,18,0,1,0,22.52,48.29l0,0,.59.49.12.09c.31.25.63.5.95.73l.32.23c.36.24.71.47,1.08.69l.24.14c.4.23.82.44,1.23.64l.1,0a17.94,17.94,0,0,0,4.35,1.38l.13,0c.47.08,1,.15,1.44.19l.17,0Q34,53,34.69,53a.66.66,0,0,0,.66-.65.67.67,0,0,0-.66-.66Z"/></g></g></svg>