<svg xmlns="http://www.w3.org/2000/svg" xmlns:xlink="http://www.w3.org/1999/xlink" viewBox="0 0 72 72"><defs><style>.cls-1{fill:url(#Degradado_sin_nombre_14);}.cls-2{fill:url(#Degradado_sin_nombre_17);}.cls-3{fill:#fff;}</style><linearGradient id="Degradado_sin_nombre_14" x1="36" x2="36" y2="72" gradientUnits="userSpaceOnUse"><stop offset="0.02" stop-color="#667eea" stop-opacity="0.8"/><stop offset="1" stop-color="#764ba2" stop-opacity="0.67"/></linearGradient><linearGradient id="Degradado_sin_nombre_17" x1="36" y1="-11.5" x2="36" y2="91.02" gradientUnits="userSpaceOnUse"><stop offset="0" stop-color="#667eea" stop-opacity="0.8"/><stop offset="1" stop-opacity="0.6"/></linearGradient></defs><title>Usuarios</title><g id="Capa_2" data-name="Capa 2"><g id="Capa_1-2" data-name="Capa 1"><circle class="cls-1" cx="36" cy="36" r="36"/><circle class="cls-2" cx="36" cy="36" r="36"/><path class="cls-3" d="M55,36A19,19,0,1,0,20.19,46.52v0l.13.19.36.49.14.19c.15.21.31.4.47.59l.13.17a19.43,19.43,0,0,0,2.4,2.4l.16.13.58.46.23.17c.19.14.37.27.57.4l.3.2c.27.17.53.34.8.49s.38.22.58.33l.35.18c.2.1.41.21.62.3l.32.15.73.3.24.1a19.56,19.56,0,0,0,2.09.65l.08,0q.48.12,1,.21l.25.05c.27,0,.54.09.82.12l.31,0c.26,0,.53.06.8.07l.3,0c.36,0,.72,0,1.09,0s.73,0,1.09,0l.3,0,.8-.07.31,0,.82-.13.25,0q.48-.09,1-.21l.08,0a19.56,19.56,0,0,0,2.09-.65l.24-.1.73-.3.32-.15c.21-.09.42-.2.62-.3l.35-.18.58-.33c.27-.15.54-.32.8-.49l.31-.2.56-.4a2.49,2.49,0,0,1,.24-.17L48,50.7l.16-.13a19.43,19.43,0,0,0,2.4-2.4l.13-.17c.16-.19.32-.38.47-.59l.14-.19.36-.49.13-.19v0A18.89,18.89,0,0,0,55,36Zm-1.27,0a17.64,17.64,0,0,1-2.27,8.67,8.65,8.65,0,0,0-8.3-6.14H39.4a.23.23,0,0,1-.23-.23v-.41a.25.25,0,0,1,.17-.22c4.08-1.53,6.62-7.89,6.09-12.34a9.5,9.5,0,0,0-3.09-5.89A17.77,17.77,0,0,1,53.73,36ZM50.27,46.51l-.15.2c-.14.19-.28.37-.43.55l0,.06A18,18,0,0,1,48,49.05l-.11.1-.53.47-.18.14-.53.42-.19.13-.32.23V47.4H44.87v4l-.08,0-.48.27-.34.18-.58.27-.29.13-.74.31-.15.06a18.16,18.16,0,0,1-1.94.6l-.14,0c-.27.07-.55.13-.83.18l-.24,0-.74.12-.29,0-.74.07-.28,0c-.34,0-.67,0-1,0s-.67,0-1,0l-.28,0L34,53.61l-.28,0-.75-.11-.24,0c-.28-.05-.56-.11-.83-.18l-.14,0a18.16,18.16,0,0,1-1.94-.6l-.15-.06-.74-.31-.29-.13L28,51.84l-.34-.18-.48-.27-.08,0v-4H25.87v3.14l-.32-.23-.19-.13-.53-.42-.18-.14-.53-.47-.11-.1a18,18,0,0,1-1.65-1.73l-.05-.06c-.15-.18-.29-.36-.43-.55l-.15-.2-.23-.32a7.38,7.38,0,0,1,7.34-6.39h1.83L36,45.13l5.33-5.33h1.83a7.38,7.38,0,0,1,7.34,6.39l-.23.32Zm-17.12-10c-3-1.12-5.38-6.29-5.38-10,0-.08,0-.16,0-.24l.46-.57a3.74,3.74,0,0,1,4.44-.89,5.08,5.08,0,0,0,6.5-2.21,10.47,10.47,0,0,1,5,3.48c.19,3.86-2.08,9.2-5.31,10.42a1.49,1.49,0,0,0-1,1.4v.41a1.5,1.5,0,0,0,1.5,1.5h.14L36,43.34,32.46,39.8h.14a1.5,1.5,0,0,0,1.5-1.5v-.4a1.48,1.48,0,0,0-1-1.4ZM36,18.27h0a8.72,8.72,0,0,1,.9.05,8.27,8.27,0,0,1,6.81,5.44A12.09,12.09,0,0,0,39,21.21l-.54-.15-.21.52A3.8,3.8,0,0,1,34.73,24a3.66,3.66,0,0,1-1.53-.33,5.09,5.09,0,0,0-5.08.47A8.21,8.21,0,0,1,36,18.27Zm-6.37,1.18-.36.33A9.42,9.42,0,0,0,26.5,26.5c0,4.2,2.65,9.87,6.2,11.19a.21.21,0,0,1,.13.21v.4a.23.23,0,0,1-.23.23H28.84a8.65,8.65,0,0,0-8.3,6.14,17.72,17.72,0,0,1,9.11-25.22Z"/></g></g></svg>