<svg xmlns="http://www.w3.org/2000/svg" xmlns:xlink="http://www.w3.org/1999/xlink" viewBox="0 0 72 72"><defs><style>.cls-1{fill:url(#Degradado_sin_nombre_14);}.cls-2{fill:url(#Degradado_sin_nombre_17);}.cls-3{fill:#fff;}</style><linearGradient id="Degradado_sin_nombre_14" x1="36" x2="36" y2="72" gradientUnits="userSpaceOnUse"><stop offset="0.02" stop-color="#667eea" stop-opacity="0.8"/><stop offset="1" stop-color="#764ba2" stop-opacity="0.67"/></linearGradient><linearGradient id="Degradado_sin_nombre_17" x1="36" y1="-11.5" x2="36" y2="91.02" gradientUnits="userSpaceOnUse"><stop offset="0" stop-color="#667eea" stop-opacity="0.8"/><stop offset="1" stop-opacity="0.6"/></linearGradient></defs><title>Usuario Responsable de Depto</title><g id="Capa_2" data-name="Capa 2"><g id="Capa_1-2" data-name="Capa 1"><circle class="cls-1" cx="36" cy="36" r="36"/><circle class="cls-2" cx="36" cy="36" r="36"/><path class="cls-3" d="M43.29,27.09a.74.74,0,0,0,0-.14,1.25,1.25,0,0,0-.16-.24L43,26.62l-.12-.06-.14,0a1.4,1.4,0,0,0-.29,0l-.13,0a.52.52,0,0,0-.13.06l-.11.09-.09.12a.47.47,0,0,0-.07.12.74.74,0,0,0,0,.14.66.66,0,0,0,0,.14.73.73,0,0,0,.21.52.76.76,0,0,0,.52.21h.14l.14,0,.12-.07.11-.09a.74.74,0,0,0,.22-.52.68.68,0,0,0,0-.14Z"/><path class="cls-3" d="M52.77,54,48.38,41.6a.72.72,0,0,0-.69-.48h-9.5V30.88H52.08a.73.73,0,0,0,.62-.34.75.75,0,0,0,0-.71L50,24.31l2.76-5.52a.74.74,0,0,0,0-.71.72.72,0,0,0-.62-.35H38.19a.73.73,0,0,0-.73-.73H34.54a.73.73,0,0,0-.73.73V41.12h-9.5a.72.72,0,0,0-.69.48L19.23,54a.74.74,0,0,0,.1.66.73.73,0,0,0,.59.31H52.08a.73.73,0,0,0,.59-.31.74.74,0,0,0,.1-.66ZM38.19,28h2.19a.73.73,0,1,0,0-1.46H38.19V19.19h12.7L48.5,24a.74.74,0,0,0,0,.65l2.39,4.79H38.19ZM35.27,41.85V18.46h1.46v30H35.27ZM21,53.54l.51-1.46h2.84a.73.73,0,0,0,0-1.46H22l2.83-8h9v6.57a.72.72,0,0,0,.73.73h2.92a.72.72,0,0,0,.73-.73V42.58h9l3.86,11Z"/><path class="cls-3" d="M27.22,51.2a.69.69,0,0,0,0-.13.52.52,0,0,0-.06-.13L27,50.83l-.11-.09-.13-.07-.14,0a.66.66,0,0,0-.28,0l-.14,0-.13.07-.11.09-.09.11a.52.52,0,0,0-.06.13.69.69,0,0,0,0,.13.76.76,0,0,0,0,.15.71.71,0,0,0,0,.14.78.78,0,0,0,0,.14.67.67,0,0,0,.06.12l.09.11a.44.44,0,0,0,.11.09l.13.07.14,0,.14,0,.14,0,.14,0,.13-.07a.44.44,0,0,0,.11-.09l.09-.11a.67.67,0,0,0,.06-.12.78.78,0,0,0,0-.14.71.71,0,0,0,0-.14.76.76,0,0,0,0-.15Z"/></g></g></svg>