<svg xmlns="http://www.w3.org/2000/svg" xmlns:xlink="http://www.w3.org/1999/xlink" viewBox="0 0 72 72"><defs><style>.cls-1{fill:#f7922d;}.cls-2{fill:url(#Degradado_sin_nombre_27);}.cls-3{fill:#fff;}</style><linearGradient id="Degradado_sin_nombre_27" x1="36" y1="-11.5" x2="36" y2="91.02" gradientUnits="userSpaceOnUse"><stop offset="0" stop-color="#f7931e" stop-opacity="0.6"/><stop offset="1" stop-opacity="0.7"/></linearGradient></defs><title>Aprobaciones</title><g id="Capa_2" data-name="Capa 2"><g id="Capa_1-2" data-name="Capa 1"><circle class="cls-1" cx="36" cy="36" r="36"/><circle class="cls-2" cx="36" cy="36" r="36"/><path class="cls-3" d="M36,18.61A17.39,17.39,0,1,0,53.39,36,17.38,17.38,0,0,0,36,18.61Zm0,32.61A15.22,15.22,0,1,1,51.22,36,15.21,15.21,0,0,1,36,51.22Z"/><path class="cls-3" d="M43.94,29.9,32.75,41,28.1,36.43a1.1,1.1,0,0,0-1.56,0,1.09,1.09,0,0,0,0,1.53L32,43.29a1.12,1.12,0,0,0,1.55,0l12-11.85a1.08,1.08,0,0,0,0-1.54,1.11,1.11,0,0,0-1.55,0Z"/></g></g></svg>