<svg xmlns="http://www.w3.org/2000/svg" xmlns:xlink="http://www.w3.org/1999/xlink" viewBox="0 0 72 72"><defs><style>.cls-1{fill:#f7922d;}.cls-2{fill:url(#Degradado_sin_nombre_27);}.cls-3{fill:#fff;}</style><linearGradient id="Degradado_sin_nombre_27" x1="36" y1="-11.5" x2="36" y2="91.02" gradientUnits="userSpaceOnUse"><stop offset="0" stop-color="#f7931e" stop-opacity="0.6"/><stop offset="1" stop-opacity="0.7"/></linearGradient></defs><title>Desembolsos de anticipos</title><g id="Capa_2" data-name="Capa 2"><g id="Capa_1-2" data-name="Capa 1"><circle class="cls-1" cx="36" cy="36" r="36"/><circle class="cls-2" cx="36" cy="36" r="36"/><path class="cls-3" d="M51,54.1H21A4.07,4.07,0,0,1,17,50V31.87a4.15,4.15,0,0,1,1.7-3.38L22.09,26a.82.82,0,0,1,1.15.18.83.83,0,0,1-.18,1.16l-3.39,2.46a2.53,2.53,0,0,0-1,2.05V50A2.41,2.41,0,0,0,21,52.44H51A2.41,2.41,0,0,0,53.35,50V31.87a2.53,2.53,0,0,0-1-2.05L49,27.38a.82.82,0,1,1,1-1.33l3.35,2.44A4.15,4.15,0,0,1,55,31.87V50A4.07,4.07,0,0,1,51,54.1Z"/><path class="cls-3" d="M29.19,22.7a.82.82,0,0,1-.49-1.49L31,19.53a8.49,8.49,0,0,1,10,0l2.27,1.66a.82.82,0,0,1-1,1.33L40,20.87a6.84,6.84,0,0,0-8.06,0l-2.29,1.67A.82.82,0,0,1,29.19,22.7Z"/><path class="cls-3" d="M36,42.67a8.37,8.37,0,0,1-4.64-1.41L20.67,34.13a.83.83,0,1,1,.92-1.37l10.69,7.12a6.68,6.68,0,0,0,7.44,0l10.69-7.12a.83.83,0,1,1,.92,1.37l-10.7,7.13A8.31,8.31,0,0,1,36,42.67Z"/><path class="cls-3" d="M49.22,35.1a.83.83,0,0,1-.83-.83V22.7H23.61V34.27a.83.83,0,1,1-1.65,0V21.88a.83.83,0,0,1,.82-.83H49.22a.83.83,0,0,1,.82.83V34.27A.83.83,0,0,1,49.22,35.1Z"/><path class="cls-3" d="M36,34.27c-2.22,0-4-1-4.12-2.27a.82.82,0,0,1,.71-.92.84.84,0,0,1,.93.71c0,.24.93.83,2.48.83s2.48-.66,2.48-.83c0,0,0-.52-2.41-.81l-.18,0c-1.21-.15-4-.49-4-2.47C31.87,27.07,33.65,26,36,26s4,.95,4.12,2.27a.82.82,0,0,1-.71.92.83.83,0,0,1-.93-.71c0-.24-.93-.83-2.48-.83s-2.48.62-2.48.83c0,0,0,.52,2.42.81l.17,0c1.21.15,4,.49,4,2.47C40.13,33.2,38.35,34.27,36,34.27Z"/><path class="cls-3" d="M36,35.92a.83.83,0,0,1-.83-.82V25.18a.83.83,0,0,1,1.66,0V35.1A.83.83,0,0,1,36,35.92Z"/><path class="cls-3" d="M42.61,39.23h-14a.83.83,0,0,1,0-1.66h14a.83.83,0,0,1,0,1.66Z"/><path class="cls-3" d="M45.91,26h-3.3a.83.83,0,1,1,0-1.65h3.3a.83.83,0,1,1,0,1.65Z"/><path class="cls-3" d="M29.39,35.92h-3.3a.83.83,0,1,1,0-1.65h3.3a.83.83,0,1,1,0,1.65Z"/></g></g></svg>