<svg xmlns="http://www.w3.org/2000/svg" xmlns:xlink="http://www.w3.org/1999/xlink" viewBox="0 0 72 72"><defs><style>.cls-1{fill:#f7922d;}.cls-2{fill:url(#Degradado_sin_nombre_27);}.cls-3{fill:#fff;}</style><linearGradient id="Degradado_sin_nombre_27" x1="36" y1="-11.5" x2="36" y2="91.02" gradientUnits="userSpaceOnUse"><stop offset="0" stop-color="#f7931e" stop-opacity="0.6"/><stop offset="1" stop-opacity="0.7"/></linearGradient></defs><title>Facturas Clientes</title><g id="Capa_2" data-name="Capa 2"><g id="Capa_1-2" data-name="Capa 1"><circle class="cls-1" cx="36" cy="36" r="36"/><circle class="cls-2" cx="36" cy="36" r="36"/><path class="cls-3" d="M46.85,43.33a6.34,6.34,0,1,0,6.34,6.34,6.34,6.34,0,0,0-6.34-6.34Zm0,11.26a4.93,4.93,0,1,1,4.93-4.92,4.93,4.93,0,0,1-4.93,4.92Z"/><path class="cls-3" d="M50.12,47a.71.71,0,0,0-1,.1l-3,3.63-1.57-1.57a.7.7,0,1,0-1,1l2.11,2.12a.7.7,0,0,0,.5.2h0a.72.72,0,0,0,.51-.25L50.21,48a.71.71,0,0,0-.09-1Z"/><path class="cls-3" d="M46.85,18H21.52a.7.7,0,0,0-.71.7V53.89a.7.7,0,0,0,.36.61.7.7,0,0,0,.71,0L25,52.62l2.44,1.83a.7.7,0,0,0,.78,0l3.12-1.87,2.43,1.83a.69.69,0,0,0,.43.14.68.68,0,0,0,.36-.1l3.52-2.11a.71.71,0,0,0-.73-1.21L34.23,53l-2.44-1.83a.71.71,0,0,0-.78,0L27.9,53l-2.44-1.83a.71.71,0,0,0-.78,0l-2.46,1.48V19.41H46.15V41.22a.7.7,0,0,0,.7.71.71.71,0,0,0,.71-.71V18.7a.7.7,0,0,0-.71-.7Z"/><path class="cls-3" d="M28.56,24.33H25a.71.71,0,0,0-.71.71.7.7,0,0,0,.71.7h3.52a.7.7,0,0,0,.7-.7.71.71,0,0,0-.7-.71Z"/><path class="cls-3" d="M41.93,27.85H38.41a.71.71,0,1,0,0,1.41h3.52a.71.71,0,0,0,0-1.41Z"/><path class="cls-3" d="M41.93,31.37H38.41a.71.71,0,1,0,0,1.41h3.52a.71.71,0,0,0,0-1.41Z"/><path class="cls-3" d="M41.93,34.89H38.41a.7.7,0,0,0-.71.7.71.71,0,0,0,.71.71h3.52a.71.71,0,0,0,.7-.71.7.7,0,0,0-.7-.7Z"/><path class="cls-3" d="M41.93,38.41H38.41a.7.7,0,1,0,0,1.4h3.52a.7.7,0,0,0,0-1.4Z"/><path class="cls-3" d="M41.93,41.93H38.41a.7.7,0,1,0,0,1.4h3.52a.7.7,0,1,0,0-1.4Z"/><path class="cls-3" d="M34.89,27.85H25a.71.71,0,1,0,0,1.41h9.85a.71.71,0,0,0,0-1.41Z"/><path class="cls-3" d="M34.89,31.37H25a.71.71,0,1,0,0,1.41h9.85a.71.71,0,0,0,0-1.41Z"/><path class="cls-3" d="M34.89,34.89H25a.7.7,0,0,0-.71.7.71.71,0,0,0,.71.71h9.85a.7.7,0,0,0,.7-.71.7.7,0,0,0-.7-.7Z"/><path class="cls-3" d="M34.89,38.41H25a.7.7,0,1,0,0,1.4h9.85a.7.7,0,0,0,0-1.4Z"/><path class="cls-3" d="M34.89,41.93H25a.7.7,0,1,0,0,1.4h9.85a.7.7,0,0,0,0-1.4Z"/></g></g></svg>