<svg xmlns="http://www.w3.org/2000/svg" xmlns:xlink="http://www.w3.org/1999/xlink" viewBox="0 0 72 72"><defs><style>.cls-1{fill:#f7922d;}.cls-2{fill:url(#Degradado_sin_nombre_27);}.cls-3{fill:#fafafa;}</style><linearGradient id="Degradado_sin_nombre_27" x1="36" y1="-11.5" x2="36" y2="91.02" gradientUnits="userSpaceOnUse"><stop offset="0" stop-color="#f7931e" stop-opacity="0.6"/><stop offset="1" stop-opacity="0.7"/></linearGradient></defs><title>Pago Proveedor</title><g id="Capa_2" data-name="Capa 2"><g id="Capa_1-2" data-name="Capa 1"><circle class="cls-1" cx="36" cy="36" r="36"/><circle class="cls-2" cx="36" cy="36" r="36"/><path class="cls-3" d="M54.66,39.79c-1.11-1.54-2.24-1.57-5.06-.09L44.14,43a11,11,0,0,1-4.08.59,2.1,2.1,0,0,0-.38-2.12,5.19,5.19,0,0,0-2-1.74,5.63,5.63,0,0,0,2.1-4.4A5.7,5.7,0,1,0,29.05,38s0,0,0,0c-2.28-1.71-6.08-2-7.59-2V34.08H17V54.37h4.44v-1.9h8.23a25.13,25.13,0,0,0,3.87-.3l8.21-1.25a4.07,4.07,0,0,0,.87-.09,3.83,3.83,0,0,0,2.09-1l9.6-7.47,0,0a1.85,1.85,0,0,0,.33-2.5Zm-23-.72a4.43,4.43,0,1,1,4.55.18l-.24,0a1.81,1.81,0,0,0-.23,0,4.4,4.4,0,0,0-.62,0H32.65a6.8,6.8,0,0,1-1-.08Zm-11.5,14h-1.9V35.35h1.9ZM53.53,41.31,43.91,48.8l0,0a2.59,2.59,0,0,1-1.48.74,3.23,3.23,0,0,1-.68.08l-8.35,1.26a24,24,0,0,1-3.68.28H21.44V37.27c1.4,0,4.87.25,6.82,1.72a7.14,7.14,0,0,0,2.94,1.28h0l.11,0h0c.21,0,.42.06.63.08h0c.22,0,.43,0,.65,0h2.48a4.53,4.53,0,0,1,1,.12h0a4,4,0,0,1,2.42,1.67c.27.39.37.73.29.88s-1,.47-1.75.51H30.3c-2,0-3.17.95-3.17,2.53a.64.64,0,0,0,.64.64.64.64,0,0,0,.63-.64c0-.31,0-1.26,1.9-1.26h6.14c.14,0,.42,0,.77,0h.33c3,.06,5.77,0,7.23-.74l5.46-3.34c2.61-1.37,2.87-1,3.4-.27a.59.59,0,0,1-.1.78Z"/><path class="cls-3" d="M37.27,35.37a3.17,3.17,0,1,0-3.17,3.16,3.17,3.17,0,0,0,3.17-3.16ZM34.1,37.26A1.9,1.9,0,1,1,36,35.37a1.9,1.9,0,0,1-1.9,1.89Z"/><path class="cls-3" d="M43.6,29a5.7,5.7,0,1,0-5.7-5.7A5.71,5.71,0,0,0,43.6,29Zm0-10.13a4.43,4.43,0,1,1-4.43,4.43A4.43,4.43,0,0,1,43.6,18.9Z"/><path class="cls-3" d="M43.6,26.5a3.17,3.17,0,1,0-3.16-3.17A3.17,3.17,0,0,0,43.6,26.5Zm0-5.07a1.9,1.9,0,1,1-1.9,1.9,1.9,1.9,0,0,1,1.9-1.9Z"/></g></g></svg>