<svg xmlns="http://www.w3.org/2000/svg" xmlns:xlink="http://www.w3.org/1999/xlink" viewBox="0 0 72 72"><defs><style>.cls-1{fill:#9ccb3b;}.cls-2{fill:url(#Degradado_sin_nombre_29);}.cls-3{fill:#fafafa;}</style><linearGradient id="Degradado_sin_nombre_29" x1="36" y1="-11.5" x2="36" y2="91.02" gradientUnits="userSpaceOnUse"><stop offset="0" stop-color="#8cc63f" stop-opacity="0.6"/><stop offset="1" stop-opacity="0.7"/></linearGradient></defs><title>Mis solicitudes pendientes</title><g id="Capa_2" data-name="Capa 2"><g id="Capa_1-2" data-name="Capa 1"><circle class="cls-1" cx="36" cy="36" r="36"/><circle class="cls-2" cx="36" cy="36" r="36"/><path class="cls-3" d="M46.67,53.8h-.59V48.51a6.45,6.45,0,0,0-1.17-3.7l-6.12-8.72,6.12-8.79a6.54,6.54,0,0,0,1.17-3.73V18.24h.59a.6.6,0,0,0,0-1.19H25.33a.6.6,0,0,0,0,1.19h.59v5.33a6.54,6.54,0,0,0,1.17,3.73l6.12,8.79-6.12,8.72a6.45,6.45,0,0,0-1.17,3.7V53.8h-.59a.6.6,0,0,0,0,1.19H46.67a.6.6,0,0,0,0-1.19ZM27.11,48.51a5.27,5.27,0,0,1,.95-3l6.36-9.06a.6.6,0,0,0,0-.68l-6.36-9.13a5.34,5.34,0,0,1-.95-3.05V18.24H44.89v5.33a5.34,5.34,0,0,1-1,3.05l-6.36,9.13a.6.6,0,0,0,0,.68l6.36,9.06a5.27,5.27,0,0,1,1,3V53.8H27.11Z"/><path class="cls-3" d="M39.56,51.43H38.37a.6.6,0,0,0,0,1.19h1.19a.6.6,0,0,0,0-1.19Z"/><path class="cls-3" d="M36,35.52a.6.6,0,0,0,.5-.27c.13-.2,2.56-3.69,4.16-6a.6.6,0,0,0,0-.62.6.6,0,0,0-.52-.32H31.82a.6.6,0,0,0-.52.32.6.6,0,0,0,0,.62c1.6,2.31,4,5.8,4.16,6a.6.6,0,0,0,.5.27Zm3-6-3,4.39L33,29.5Z"/><path class="cls-3" d="M40.18,42.2a.58.58,0,0,0-.49-.25H32.31a.58.58,0,0,0-.49.25l-2.79,4a4.09,4.09,0,0,0-.74,2.34V52a.6.6,0,0,0,.6.6H36a.6.6,0,0,0,0-1.19H29.48V48.51A2.86,2.86,0,0,1,30,46.86l2.61-3.73h6.78L42,46.86a2.86,2.86,0,0,1,.52,1.65v2.92h-.59a.6.6,0,1,0,0,1.19h1.18a.6.6,0,0,0,.6-.6V48.51A4.09,4.09,0,0,0,43,46.17Z"/><path class="cls-3" d="M41.49,27a.6.6,0,0,0,.34.11.58.58,0,0,0,.48-.26l.65-.93a4.12,4.12,0,0,0,.75-2.37V23a.6.6,0,0,0-1.19,0v.59a3,3,0,0,1-.53,1.7l-.65.93a.58.58,0,0,0,.15.82Z"/><path class="cls-3" d="M43.11,21.2a.59.59,0,0,0,.6-.59V20a.6.6,0,1,0-1.19,0v.59a.59.59,0,0,0,.59.59Z"/></g></g></svg>