<svg xmlns="http://www.w3.org/2000/svg" xmlns:xlink="http://www.w3.org/1999/xlink" viewBox="0 0 72 72"><defs><style>.cls-1{fill:#9ccb3b;}.cls-2{fill:url(#Degradado_sin_nombre_29);}.cls-3{fill:#fff;}</style><linearGradient id="Degradado_sin_nombre_29" x1="36" y1="-11.5" x2="36" y2="91.02" gradientUnits="userSpaceOnUse"><stop offset="0" stop-color="#8cc63f" stop-opacity="0.6"/><stop offset="1" stop-opacity="0.7"/></linearGradient></defs><title>Trafico cliente</title><g id="Capa_2" data-name="Capa 2"><g id="Capa_1-2" data-name="Capa 1"><circle class="cls-1" cx="36" cy="36" r="36"/><circle class="cls-2" cx="36" cy="36" r="36"/><path class="cls-3" d="M36,29a4.86,4.86,0,1,0-4.87-4.86A4.87,4.87,0,0,0,36,29Zm0-8.64a3.78,3.78,0,1,1-3.78,3.78A3.78,3.78,0,0,1,36,20.35Z"/><path class="cls-3" d="M36,29.1a5,5,0,1,1,5-5A5,5,0,0,1,36,29.1Zm0-9.72a4.75,4.75,0,1,0,4.76,4.75A4.76,4.76,0,0,0,36,19.38ZM36,28a3.89,3.89,0,1,1,3.89-3.89A3.89,3.89,0,0,1,36,28Zm0-7.56a3.67,3.67,0,1,0,3.67,3.67A3.68,3.68,0,0,0,36,20.46Z"/><path class="cls-3" d="M43,34.92a4.86,4.86,0,0,0-4.87-4.85H33.83A4.86,4.86,0,0,0,29,34.92V43h2.16v9.72h9.72V43H43V34.92Zm-1.08,7H39.79v9.72H36.55V44.09H35.47v7.56H32.23V41.93H30.07v-7a3.79,3.79,0,0,1,3.78-3.78h4.32A3.78,3.78,0,0,1,42,34.92v7Z"/><path class="cls-3" d="M41,52.84H31V43.12H28.86v-8.2a5,5,0,0,1,5-5h4.33a5,5,0,0,1,5,5l0,8.2H41Zm-9.72-.22h9.5V42.9H42.9l0-8.09a4.75,4.75,0,0,0-4.76-4.63H33.83a4.75,4.75,0,0,0-4.75,4.74v8h2.16Zm8.66-.86H36.44V44.2h-.86v7.56H32.12V42H30V34.92A3.89,3.89,0,0,1,33.85,31h4.32a3.89,3.89,0,0,1,3.89,3.89V42H39.9Zm-3.24-.22h3V41.82h2.16v-6.9a3.67,3.67,0,0,0-3.67-3.67H33.85a3.67,3.67,0,0,0-3.67,3.67v6.9h2.16v9.72h3V44h1.3Z"/><path class="cls-3" d="M25.19,32.82A3.81,3.81,0,1,0,21.38,29,3.82,3.82,0,0,0,25.19,32.82Zm0-6.53A2.73,2.73,0,1,1,22.46,29,2.73,2.73,0,0,1,25.19,26.29Z"/><path class="cls-3" d="M25.19,32.93A3.92,3.92,0,1,1,29.12,29,3.93,3.93,0,0,1,25.19,32.93Zm0-7.61A3.7,3.7,0,1,0,28.9,29,3.7,3.7,0,0,0,25.19,25.32Zm0,6.53A2.84,2.84,0,1,1,28,29,2.84,2.84,0,0,1,25.19,31.85Zm0-5.46A2.62,2.62,0,1,0,27.82,29,2.63,2.63,0,0,0,25.19,26.39Z"/><path class="cls-3" d="M27.89,51.65H25.75v-5.4H24.67v5.4H22V44.09H20.39l0-6.23a3,3,0,0,1,3.06-3h4.44V33.8H23.41a4.12,4.12,0,0,0-4.14,4.07l.05,7.3H20.9v7.56H29V45.17h1.08V44.09H27.89Z"/><path class="cls-3" d="M29.08,52.84H20.79V45.28H19.21l-.05-7.41a4.23,4.23,0,0,1,4.25-4.18H28V35H23.41a2.91,2.91,0,0,0-2.95,2.87l0,6.12h1.59v7.56h2.47V46.15h1.3v5.39h1.92V44h2.38v1.3H29.08ZM21,52.62h7.85V45.06h1.08V44.2H28v7.56H25.64v-5.4h-.87v5.4h-2.9V44.2H20.28l0-6.34a3.14,3.14,0,0,1,3.17-3.09h4.33v-.86H23.41a4,4,0,0,0-4,4l.05,7.19H21Z"/><path class="cls-3" d="M46.81,32.82A3.81,3.81,0,1,0,43,29,3.82,3.82,0,0,0,46.81,32.82Zm0-6.53A2.73,2.73,0,1,1,44.07,29,2.72,2.72,0,0,1,46.81,26.29Z"/><path class="cls-3" d="M46.81,32.93A3.92,3.92,0,1,1,50.73,29,3.93,3.93,0,0,1,46.81,32.93Zm0-7.61A3.7,3.7,0,1,0,50.51,29,3.7,3.7,0,0,0,46.81,25.32Zm0,6.53A2.84,2.84,0,1,1,49.65,29,2.85,2.85,0,0,1,46.81,31.85Zm0-5.46A2.62,2.62,0,1,0,49.43,29,2.64,2.64,0,0,0,46.81,26.39Z"/><path class="cls-3" d="M48.59,33.81H44.11v1.08h4.48a3,3,0,0,1,3.06,3l0,6.23H50v7.56H47.33v-5.4H46.25v5.4H44.11V44.09H42v1.08H43v7.56H51.1V45.17h1.58l0-7.3A4.11,4.11,0,0,0,48.59,33.81Z"/><path class="cls-3" d="M51.21,52.84H42.92V45.28H41.84V44h2.38v7.56h1.92V46.15h1.3v5.39h2.47V44H51.5l0-6.12A2.91,2.91,0,0,0,48.59,35H44V33.7h4.59a4.22,4.22,0,0,1,4.25,4.17l-.05,7.41H51.21Zm-8.07-.22H51V45.06h1.58l0-7.19a4,4,0,0,0-4-3.95H44.22v.86h4.37a3.13,3.13,0,0,1,3.17,3.08l0,6.34H50.13v7.56H47.22v-5.4h-.86v5.4H44V44.2H42.06v.86h1.08Z"/></g></g></svg>