<svg xmlns="http://www.w3.org/2000/svg" xmlns:xlink="http://www.w3.org/1999/xlink" viewBox="0 0 72 72"><defs><style>.cls-1{fill:#00a79d;}.cls-2{fill:url(#Degradado_sin_nombre_24);}.cls-3{fill:#fff;}</style><linearGradient id="Degradado_sin_nombre_24" x1="36" y1="-11.5" x2="36" y2="91.02" gradientUnits="userSpaceOnUse"><stop offset="0" stop-color="#00b8d4" stop-opacity="0.6"/><stop offset="1" stop-opacity="0.8"/></linearGradient></defs><title>Empleado cliente</title><g id="Capa_2" data-name="Capa 2"><g id="Capa_1-2" data-name="Capa 1"><circle class="cls-1" cx="36" cy="36" r="36"/><circle class="cls-2" cx="36" cy="36" r="36"/><path class="cls-3" d="M52.9,25.59a3.05,3.05,0,0,0-2.15-.89h-8l-.6-2.42A3,3,0,0,0,39.21,20H32.79a3,3,0,0,0-2.95,2.3l-.6,2.42h-8a3,3,0,0,0-3,3V49a3.05,3.05,0,0,0,3,3h29.5a3.05,3.05,0,0,0,3-3V27.74A3.05,3.05,0,0,0,52.9,25.59ZM33.32,23.7h5.36l.25,1H33.07Zm-2.68,1,.52-2.09a1.68,1.68,0,0,1,1.63-1.27h6.42a1.68,1.68,0,0,1,1.63,1.27l.52,2.09h-1l-.46-1.84a.68.68,0,0,0-.66-.52H32.79a.68.68,0,0,0-.66.52l-.46,1.84Zm6.45,16.7v1H34.91v-1Zm0-3.54V40H34.91V37.86Zm11.33-.55a2.27,2.27,0,0,1-2.16,1.55H38.45V37.77a1.27,1.27,0,0,0-1.27-1.27H34.82a1.27,1.27,0,0,0-1.27,1.27v1.09H25.74a2.27,2.27,0,0,1-2.16-1.55L20,26.6a1.71,1.71,0,0,1,1.24-.54h29.5A1.71,1.71,0,0,1,52,26.6ZM25.74,40.22h7.81v2.27a1.27,1.27,0,0,0,1.27,1.27h2.36a1.27,1.27,0,0,0,1.27-1.27V40.22h7.81a3.64,3.64,0,0,0,3.45-2.48l2.72-8.18V49a1.68,1.68,0,0,1-1.68,1.68H21.25A1.68,1.68,0,0,1,19.57,49V29.56l2.72,8.18A3.64,3.64,0,0,0,25.74,40.22Z"/></g></g></svg>