<svg xmlns="http://www.w3.org/2000/svg" xmlns:xlink="http://www.w3.org/1999/xlink" viewBox="0 0 72 72"><defs><style>.cls-1{fill:#9ccb3b;}.cls-2{fill:url(#Degradado_sin_nombre_29);}.cls-3{fill:#fdfdfd;}</style><linearGradient id="Degradado_sin_nombre_29" x1="36" y1="-11.5" x2="36" y2="91.02" gradientUnits="userSpaceOnUse"><stop offset="0" stop-color="#8cc63f" stop-opacity="0.6"/><stop offset="1" stop-opacity="0.7"/></linearGradient></defs><title>Reportes</title><g id="Capa_2" data-name="Capa 2"><g id="Capa_1-2" data-name="Capa 1"><circle class="cls-1" cx="36" cy="36" r="36"/><circle class="cls-2" cx="36" cy="36" r="36"/><path class="cls-3" d="M49.49,32l-13.8,5.52V22.61a.58.58,0,0,0-.58-.59A16.29,16.29,0,1,0,50.25,32.27a.59.59,0,0,0-.76-.32Zm-15,4.65L26.4,26a15,15,0,0,1,8.12-2.75Zm.59,16.87a15.14,15.14,0,0,1-9.63-26.82l9.16,12,0,0,0,0,0,0,0,0,0,0h0l0,0h0l0,0h.43l14-5.62A15.13,15.13,0,0,1,35.11,53.47Z"/><path class="cls-3" d="M53.16,27.61a16.28,16.28,0,0,0-5.9-7.37L46.89,20h0A16.21,16.21,0,0,0,38,17.37a.58.58,0,0,0-.58.58V33.67a.58.58,0,0,0,.25.48.56.56,0,0,0,.33.1.52.52,0,0,0,.21,0l1.64-.65h0a.6.6,0,0,0,.41-.17L45,31.49h0l4.85-1.94h0l2.94-1.18a.57.57,0,0,0,.32-.31.63.63,0,0,0,0-.45Zm-5.93,1.75,3.66-3.66c.16.26.32.53.46.8l-2,2ZM42.38,31.3,49.67,24c.19.23.38.46.55.71l-5.74,5.74Zm5-9.54L38.6,30.52V29.25l8-8c.25.17.49.35.73.54ZM38.6,20.52l1.8-1.8c.36.05.71.12,1.06.2L38.6,21.78Zm0,2.91,4.15-4.15.92.34L38.6,24.69Zm0,2.91,6.21-6.21c.27.14.55.29.82.45l-7,7V26.34Zm.32-7.78-.32.31v-.33l.32,0Zm-.32,13.6,9.65-9.65c.22.21.43.41.64.63L39.63,32.4l-1,.41Z"/></g></g></svg>