<svg xmlns="http://www.w3.org/2000/svg" xmlns:xlink="http://www.w3.org/1999/xlink" viewBox="0 0 72 72"><defs><style>.cls-1{fill:#00a79d;}.cls-2{fill:url(#Degradado_sin_nombre_24);}.cls-3{fill:#fff;}</style><linearGradient id="Degradado_sin_nombre_24" x1="36" y1="-11.5" x2="36" y2="91.02" gradientUnits="userSpaceOnUse"><stop offset="0" stop-color="#00b8d4" stop-opacity="0.6"/><stop offset="1" stop-opacity="0.8"/></linearGradient></defs><title>Tiempo adicional</title><g id="Capa_2" data-name="Capa 2"><g id="Capa_1-2" data-name="Capa 1"><circle class="cls-1" cx="36" cy="36" r="36"/><circle class="cls-2" cx="36" cy="36" r="36"/><path class="cls-3" d="M47,27.83a16.32,16.32,0,0,0-2.47-2l.79-1.37.94.54a.82.82,0,0,0,1.1-.29.79.79,0,0,0,.08-.62.81.81,0,0,0-.38-.49l-3.25-1.88a.81.81,0,0,0-.81,1.4l.92.53L43.14,25a15.34,15.34,0,0,0-5.61-1.65,3.08,3.08,0,1,0-3.06,0A15.56,15.56,0,1,0,47,27.83ZM36,19.22a1.46,1.46,0,0,1,.81,2.68V20.68a.81.81,0,1,0-1.62,0V21.9A1.46,1.46,0,0,1,36,19.22Zm0,33.56A13.95,13.95,0,1,1,49.94,38.84,14,14,0,0,1,36,52.78Z"/><path class="cls-3" d="M47.21,36.15a.37.37,0,0,1,0-.09,12.47,12.47,0,0,0-1.14-2.86.47.47,0,0,0-.08-.14,11.74,11.74,0,0,0-1.64-2.27,1,1,0,0,0-.12-.14,12.52,12.52,0,0,0-4.89-3.21l-.12-.05a12.33,12.33,0,0,0-4.09-.69.89.89,0,0,0-.88.89V39.17a.84.84,0,0,0,.26.62L42.68,48a.85.85,0,0,0,.62.26.88.88,0,0,0,.63-.26,12.38,12.38,0,0,0,3.65-8.81A12.61,12.61,0,0,0,47.21,36.15ZM45.3,42.46a10.77,10.77,0,0,1-2,3.62l-.8-.8ZM42.36,31.31,36,37.68V36.32l5.63-5.63C41.88,30.89,42.13,31.09,42.36,31.31ZM36,33.82V32.46l3.18-3.19c.31.13.62.28.92.44ZM36,30V28.51a9.1,9.1,0,0,1,1.26.18Zm8.12,3.45-6.75,6.76-.68-.68,6.87-6.88C43.76,32.87,44,33.14,44.12,33.41Zm1.23,2.64L39.3,42.1l-.68-.68L45,35.05C45.12,35.38,45.24,35.71,45.35,36.05Zm.46,3.12v.28L41.23,44l-.68-.68,5.21-5.21C45.79,38.48,45.81,38.83,45.81,39.17Zm-1.74-8.32Z"/></g></g></svg>