<svg xmlns="http://www.w3.org/2000/svg" xmlns:xlink="http://www.w3.org/1999/xlink" viewBox="0 0 72 72"><defs><style>.cls-1{fill:#00aeef;}.cls-2{fill:url(#Degradado_sin_nombre_33);}.cls-3{fill:#fff;}</style><linearGradient id="Degradado_sin_nombre_33" x1="36" y1="-11.5" x2="36" y2="91.02" gradientUnits="userSpaceOnUse"><stop offset="0" stop-color="#29abe2" stop-opacity="0.8"/><stop offset="1" stop-opacity="0.6"/></linearGradient></defs><title>Gestión</title><g id="Capa_2" data-name="Capa 2"><g id="Capa_1-2" data-name="Capa 1"><circle class="cls-1" cx="36" cy="36" r="36"/><circle class="cls-2" cx="36" cy="36" r="36"/><path class="cls-3" d="M29.5,49.41A14.81,14.81,0,0,1,21.11,36a.71.71,0,0,0-.7-.7H19.1a.33.33,0,0,1-.33-.33.32.32,0,0,1,.14-.27l4.39-3.14a1.76,1.76,0,0,1,2,0l4.4,3.14a.34.34,0,0,1,.13.27.33.33,0,0,1-.33.33h-1.2a.7.7,0,0,0-.7.7,8.43,8.43,0,0,0,3.47,6.8.71.71,0,0,0,.52.13.7.7,0,0,0,.46-.28.69.69,0,0,0,.12-.52.7.7,0,0,0-.28-.46,7,7,0,0,1-2.86-5h.47a1.73,1.73,0,0,0,1-3.13l-4.39-3.14a3.16,3.16,0,0,0-1.82-.59,3.11,3.11,0,0,0-1.82.59l-4.4,3.14a1.72,1.72,0,0,0-.72,1.4A1.74,1.74,0,0,0,19.1,36.7h.62a16.29,16.29,0,0,0,9.17,14,.66.66,0,0,0,.3.07.69.69,0,0,0,.63-.39.7.7,0,0,0,0-.53A.71.71,0,0,0,29.5,49.41Z"/><path class="cls-3" d="M21.66,29.82a.66.66,0,0,0,.53,0,.71.71,0,0,0,.4-.36A14.81,14.81,0,0,1,36,21.11a.71.71,0,0,0,.7-.7V19.1a.33.33,0,0,1,.33-.33.32.32,0,0,1,.27.14l3.14,4.39a1.74,1.74,0,0,1,0,2l-3.14,4.4a.34.34,0,0,1-.27.13.33.33,0,0,1-.33-.33v-1.2a.7.7,0,0,0-.7-.7,8.43,8.43,0,0,0-6.8,3.47.7.7,0,0,0,.15,1,.69.69,0,0,0,.41.13.7.7,0,0,0,.57-.29,7,7,0,0,1,5-2.86v.47A1.73,1.73,0,0,0,37,31.24a1.75,1.75,0,0,0,1.41-.72l3.13-4.39a3.16,3.16,0,0,0,.59-1.82,3.11,3.11,0,0,0-.59-1.82l-3.13-4.4a1.73,1.73,0,0,0-3.14,1v.62a16.29,16.29,0,0,0-14,9.17.7.7,0,0,0,0,.53A.66.66,0,0,0,21.66,29.82Z"/><path class="cls-3" d="M50.34,42.18a.69.69,0,0,0-.93.32A14.81,14.81,0,0,1,36,50.89a.71.71,0,0,0-.7.7V52.9a.33.33,0,0,1-.33.33.32.32,0,0,1-.27-.14L31.56,48.7a1.74,1.74,0,0,1,0-2l3.14-4.4a.34.34,0,0,1,.27-.13.33.33,0,0,1,.33.33v1.2a.7.7,0,0,0,.7.7,8.43,8.43,0,0,0,6.8-3.47.7.7,0,1,0-1.13-.82,7,7,0,0,1-5,2.86v-.47a1.73,1.73,0,0,0-3.13-1l-3.14,4.39a3.16,3.16,0,0,0-.59,1.82,3.11,3.11,0,0,0,.59,1.82l3.14,4.4a1.72,1.72,0,0,0,1.4.72A1.74,1.74,0,0,0,36.7,52.9v-.62a16.29,16.29,0,0,0,14-9.17A.7.7,0,0,0,50.34,42.18Z"/><path class="cls-3" d="M52.9,35.3h-.62a16.38,16.38,0,0,0-9.76-14.23.68.68,0,0,0-.54,0,.63.63,0,0,0-.38.37.65.65,0,0,0,0,.53.69.69,0,0,0,.37.38A14.91,14.91,0,0,1,50.89,36a.71.71,0,0,0,.7.7H52.9a.33.33,0,0,1,.33.33.32.32,0,0,1-.14.27L48.7,40.44a1.76,1.76,0,0,1-2,0l-4.4-3.14a.34.34,0,0,1-.13-.27.33.33,0,0,1,.33-.33h1.2a.7.7,0,0,0,.7-.7,8.43,8.43,0,0,0-3.47-6.8.7.7,0,0,0-1,.15.69.69,0,0,0-.12.52.7.7,0,0,0,.28.46,7,7,0,0,1,2.86,5h-.47a1.73,1.73,0,0,0-1,3.13l4.39,3.14a3.16,3.16,0,0,0,1.82.59,3.11,3.11,0,0,0,1.82-.59l4.4-3.14a1.72,1.72,0,0,0,.72-1.4A1.74,1.74,0,0,0,52.9,35.3Z"/></g></g></svg>