<svg xmlns="http://www.w3.org/2000/svg" xmlns:xlink="http://www.w3.org/1999/xlink" viewBox="0 0 72 72"><defs><style>.cls-1{fill:#00a79d;}.cls-2{fill:url(#Degradado_sin_nombre_24);}.cls-3{fill:#fff;}</style><linearGradient id="Degradado_sin_nombre_24" x1="36" y1="-11.5" x2="36" y2="91.02" gradientUnits="userSpaceOnUse"><stop offset="0" stop-color="#00b8d4" stop-opacity="0.6"/><stop offset="1" stop-opacity="0.8"/></linearGradient></defs><title>Horas Hombre</title><g id="Capa_2" data-name="Capa 2"><g id="Capa_1-2" data-name="Capa 1"><circle class="cls-1" cx="36" cy="36" r="36"/><circle class="cls-2" cx="36" cy="36" r="36"/><path class="cls-3" d="M47.84,41.64a5.1,5.1,0,0,0,1.73-3.84V34.21A5.14,5.14,0,0,0,47.3,30,14.84,14.84,0,1,0,32.72,47.6a14.59,14.59,0,0,0,2.56-.22,8.61,8.61,0,0,0-.54,3v2.73a1,1,0,0,0,1,1H53.15a1,1,0,0,0,1-1V50.39A9.68,9.68,0,0,0,47.84,41.64ZM44.21,45.4h.45l.86,3.73-1.09,1-1.08-1Zm.63-1.95H44L43.78,43h.06l.31,0h.62L45,43h.07ZM44.57,41h-.26a3.4,3.4,0,0,1-.65-.09l-.13,0a3.25,3.25,0,0,1-2.27-2.68l0-.19V36.92a6.66,6.66,0,0,0,3.86-1.71,4.49,4.49,0,0,0,2.53,1.66v.93A3.19,3.19,0,0,1,44.57,41Zm3.06-6.17a3.22,3.22,0,0,1-1.49-1.62,1,1,0,0,0-.84-.62h0a1,1,0,0,0-.92.5A4.32,4.32,0,0,1,41.24,35v-.74l.07-.66c0-.1,0-.2.07-.3l.11-.29a3.25,3.25,0,0,1,1-1.32l.26-.17.07,0a2.88,2.88,0,0,1,.83-.33,3.14,3.14,0,0,1,.75-.09h.41a3.23,3.23,0,0,1,1.11.37l.09,0a3.21,3.21,0,0,1,1.59,2.76Zm-3.18-5.75h0a6.38,6.38,0,0,0-2.18.49l-.3.15A5.17,5.17,0,0,0,39.45,33l-.05.24c0,.08,0,.16,0,.27a2.65,2.65,0,0,0,0,.27l0,.24c0,.08,0,.16,0,.24v3.92h0c0,.06,0,.12,0,.24l.1.61c0,.07,0,.13.07.27a7.29,7.29,0,0,0,1.5,2.4,10.16,10.16,0,0,0-4.32,3.22l-.17.22A12.91,12.91,0,0,1,19.82,32.76,12.9,12.9,0,0,1,45.1,29.13ZM36.69,52.15V50.39a6.94,6.94,0,0,1,1.13-3.78l.1-.15a8.16,8.16,0,0,1,2.79-2.52,7.54,7.54,0,0,1,1.12-.51l.57,1.12-1.08,4.7a1,1,0,0,0,.3.93l2.14,2H36.69Zm10.56-2a1,1,0,0,0,.29-.93l-1.08-4.7L47,43.43a8.21,8.21,0,0,1,2.81,1.75,7.18,7.18,0,0,1,2.33,5.21v1.76H45.1Z"/><path class="cls-3" d="M33.69,30.32V24.86a1,1,0,0,0-1.95,0v5.46a2.61,2.61,0,0,0-1.64,2.43A2.54,2.54,0,0,0,30.41,34l-2.48,2.7A1,1,0,0,0,29.37,38l2.54-2.77a2.73,2.73,0,0,0,.8.13,2.62,2.62,0,0,0,1-5Zm-.3,2.43a.68.68,0,1,1-.68-.67A.67.67,0,0,1,33.39,32.75Z"/></g></g></svg>