<svg xmlns="http://www.w3.org/2000/svg" xmlns:xlink="http://www.w3.org/1999/xlink" viewBox="0 0 72 72"><defs><style>.cls-1{fill:#f7922d;}.cls-2{fill:url(#Degradado_sin_nombre_27);}.cls-3{fill:#fdfdfd;}</style><linearGradient id="Degradado_sin_nombre_27" x1="36" y1="-11.5" x2="36" y2="91.02" gradientUnits="userSpaceOnUse"><stop offset="0" stop-color="#f7931e" stop-opacity="0.6"/><stop offset="1" stop-opacity="0.7"/></linearGradient></defs><title>Producción</title><g id="Capa_2" data-name="Capa 2"><g id="Capa_1-2" data-name="Capa 1"><circle class="cls-1" cx="36" cy="36" r="36"/><circle class="cls-2" cx="36" cy="36" r="36"/><path class="cls-3" d="M54.87,35.39l-9.13-9.13h0l-9.13-9.13a.86.86,0,0,0-1.22,0l-9.13,9.13h0l-9.13,9.13a.86.86,0,0,0,0,1.22l9.13,9.13h0l9.13,9.13a.85.85,0,0,0,1.22,0l9.13-9.13h0l9.13-9.13A.86.86,0,0,0,54.87,35.39ZM36,19l7.91,7.92-2.8,2.8a.86.86,0,0,0-.25.61.88.88,0,0,0,.25.61l.91.9a.87.87,0,0,0,.65.25,1.64,1.64,0,0,1,1.27.46,1.68,1.68,0,0,1-2.37,2.38,2,2,0,0,1-.52-1.3A.88.88,0,0,0,40.8,33l-.9-.91a.87.87,0,0,0-1.22,0L36,34.78l-2.13-2.13.05,0a3.55,3.55,0,0,0,2.12-1,3.4,3.4,0,0,0,0-4.81A3.41,3.41,0,0,0,30.24,29l0,0-2.13-2.13ZM19,36l7.92-7.91,2.74,2.73a.85.85,0,0,0,1.21,0l.89-.88a.87.87,0,0,0,.25-.65A1.63,1.63,0,0,1,32.45,28a1.68,1.68,0,0,1,2.37,0,1.69,1.69,0,0,1,0,2.38,2.06,2.06,0,0,1-1.32.49.9.9,0,0,0-.58.25L32,32a.88.88,0,0,0,0,1.22L34.78,36l-2.13,2.13,0-.05a3.55,3.55,0,0,0-1-2.12,3.41,3.41,0,0,0-2.41-1,3.41,3.41,0,0,0-.26,6.8l0,0-2.13,2.13ZM36,53.05l-7.91-7.92,2.73-2.74a.85.85,0,0,0,0-1.21l-.88-.89a.87.87,0,0,0-.65-.25A1.63,1.63,0,0,1,28,39.55a1.71,1.71,0,0,1-.49-1.19A1.68,1.68,0,0,1,28,37.18a1.69,1.69,0,0,1,2.38,0,2.06,2.06,0,0,1,.49,1.32.9.9,0,0,0,.25.58L32,40a.88.88,0,0,0,1.22,0L36,37.22l2.07,2.07-.07.07a3.54,3.54,0,0,0-2.09,1,3.41,3.41,0,0,0,2.4,5.81,3.41,3.41,0,0,0,2.41-1,3.37,3.37,0,0,0,1-2.18l0,0,2.19,2.19Zm9.13-9.14-2.8-2.8a.86.86,0,0,0-.61-.25.88.88,0,0,0-.61.25l-.9.91a.87.87,0,0,0-.25.65,1.64,1.64,0,0,1-.46,1.27,1.68,1.68,0,0,1-2.38-2.37,2,2,0,0,1,1.3-.52A.88.88,0,0,0,39,40.8l.91-.9a.88.88,0,0,0,0-1.22L37.22,36l2.07-2.07.07.07a3.54,3.54,0,0,0,1,2.09,3.41,3.41,0,0,0,5.81-2.4,3.41,3.41,0,0,0-1-2.41,3.37,3.37,0,0,0-2.18-1l0,0,2.19-2.19L53.05,36Z"/></g></g></svg>