<svg xmlns="http://www.w3.org/2000/svg" xmlns:xlink="http://www.w3.org/1999/xlink" viewBox="0 0 72 72"><defs><style>.cls-1{fill:#9ccb3b;}.cls-2{fill:url(#Degradado_sin_nombre_29);}.cls-3{fill:#f2f2f2;}</style><linearGradient id="Degradado_sin_nombre_29" x1="36" y1="-11.5" x2="36" y2="91.02" gradientUnits="userSpaceOnUse"><stop offset="0" stop-color="#8cc63f" stop-opacity="0.6"/><stop offset="1" stop-opacity="0.7"/></linearGradient></defs><title>Trafico</title><g id="Capa_2" data-name="Capa 2"><g id="Capa_1-2" data-name="Capa 1"><circle class="cls-1" cx="36" cy="36" r="36"/><circle class="cls-2" cx="36" cy="36" r="36"/><path class="cls-3" d="M49.33,22h-1.7V20.86a.73.73,0,0,0-.73-.73H45.2V19a.72.72,0,0,0-.72-.72h-15a2.09,2.09,0,0,0-4.14,0H22.68A.73.73,0,0,0,22,19V49.93a.73.73,0,0,0,.73.72h1.09v1.7a.73.73,0,0,0,.72.73h1.09v1.69a.73.73,0,0,0,.73.73h23a.73.73,0,0,0,.73-.73V22.68A.73.73,0,0,0,49.33,22ZM27,53.08H46.9a.73.73,0,0,0,.73-.73v-29h1V54.05H27ZM46.17,21.59v30h-21v-1H44.48a.72.72,0,0,0,.72-.72V21.59Zm-19.3-3.27a.63.63,0,0,1,.57-.37.65.65,0,0,1,.58.37Zm.57,7.8A2.1,2.1,0,0,0,29.53,24V21.31a.73.73,0,0,0-.73-.73.73.73,0,0,0-.72.73V24a.64.64,0,0,1-.64.64.64.64,0,0,1-.63-.64V19.77H43.75V49.2H23.4V19.77h2V24A2.1,2.1,0,0,0,27.44,26.12Z"/><path class="cls-3" d="M29.34,31.28h8.48a.73.73,0,0,0,0-1.46H29.34a.73.73,0,0,0,0,1.46Z"/><path class="cls-3" d="M29.34,33.7h8.48a.73.73,0,0,0,.72-.73.72.72,0,0,0-.72-.72H29.34a.73.73,0,0,0-.73.72A.73.73,0,0,0,29.34,33.7Z"/><path class="cls-3" d="M35.39,34.67H31.76a.73.73,0,0,0-.73.72.73.73,0,0,0,.73.73h3.63a.73.73,0,0,0,.73-.73A.73.73,0,0,0,35.39,34.67Z"/></g></g></svg>