<svg xmlns="http://www.w3.org/2000/svg" xmlns:xlink="http://www.w3.org/1999/xlink" viewBox="0 0 72 72"><defs><style>.cls-1{fill:#757575;}.cls-2{fill:url(#Degradado_sin_nombre_11);}.cls-3{fill:#fdfdfd;}</style><linearGradient id="Degradado_sin_nombre_11" x1="36" y1="-11.5" x2="36" y2="91.02" gradientUnits="userSpaceOnUse"><stop offset="0" stop-color="#00bfa5" stop-opacity="0.8"/><stop offset="1" stop-opacity="0.8"/></linearGradient></defs><title>Configuración Software</title><g id="Capa_2" data-name="Capa 2"><g id="Capa_1-2" data-name="Capa 1"><circle class="cls-1" cx="36" cy="36" r="36"/><circle class="cls-2" cx="36" cy="36" r="36"/><path class="cls-3" d="M54.19,19H17.81a.6.6,0,0,0-.6.6V52.39a.6.6,0,0,0,.6.6H54.19a.6.6,0,0,0,.6-.6V19.61a.6.6,0,0,0-.6-.6Zm-.6,32.78H18.41V20.21H40.6v3.6H20.21a.6.6,0,0,0,0,1.2H51.79a.6.6,0,1,0,0-1.2h-10v-3.6H53.59Z"/><path class="cls-3" d="M48.31,22a.6.6,0,1,1-.6-.6.6.6,0,0,1,.6.6Z"/><path class="cls-3" d="M45,22a.6.6,0,1,1-.6-.6.6.6,0,0,1,.6.6Z"/><path class="cls-3" d="M51.59,22a.6.6,0,1,1-.6-.6.6.6,0,0,1,.6.6Z"/><path class="cls-3" d="M36,33.74a4.44,4.44,0,1,0,2,8.39.6.6,0,1,0-.55-1.07,3.17,3.17,0,0,1-1.48.36,3.25,3.25,0,1,1,3.24-3.24,3.17,3.17,0,0,1-.36,1.48.61.61,0,0,0,.26.81.6.6,0,0,0,.81-.26,4.44,4.44,0,0,0-4-6.47Z"/><path class="cls-3" d="M45.84,36H43.32a8,8,0,0,0-.59-1.42l1.78-1.78a.64.64,0,0,0,.18-.43.6.6,0,0,0-.18-.42l-2.26-2.26a.59.59,0,0,0-.85,0l-1.78,1.78a8,8,0,0,0-1.42-.59V28.34a.6.6,0,0,0-.6-.6H34.4a.6.6,0,0,0-.6.6v2.52a8,8,0,0,0-1.42.59L30.6,29.67a.59.59,0,0,0-.85,0l-2.26,2.26a.6.6,0,0,0-.18.42.64.64,0,0,0,.18.43l1.78,1.78A8,8,0,0,0,28.68,36H26.16a.6.6,0,0,0-.6.6v3.2a.6.6,0,0,0,.6.6h2.52a8.35,8.35,0,0,0,.59,1.42l-1.78,1.78a.59.59,0,0,0,0,.85l2.26,2.26a.61.61,0,0,0,.85,0l1.78-1.78a8,8,0,0,0,1.42.59V48a.6.6,0,0,0,.6.6h3.2a.6.6,0,0,0,.6-.6V45.5a8,8,0,0,0,1.42-.59l1.78,1.78a.61.61,0,0,0,.85,0l2.26-2.26a.59.59,0,0,0,0-.85L42.73,41.8a8.35,8.35,0,0,0,.59-1.42h2.52a.6.6,0,0,0,.6-.6v-3.2a.6.6,0,0,0-.6-.6Zm-.6,3.2H42.86a.61.61,0,0,0-.59.46,6.47,6.47,0,0,1-.8,1.94.61.61,0,0,0,.08.74L43.24,44l-1.41,1.41-1.69-1.69a.59.59,0,0,0-.74-.08,6.47,6.47,0,0,1-1.94.8A.61.61,0,0,0,37,45v2.38H35V45a.61.61,0,0,0-.46-.59,6.47,6.47,0,0,1-1.94-.8.59.59,0,0,0-.74.08l-1.69,1.69L28.76,44l1.69-1.69a.61.61,0,0,0,.08-.74,6.47,6.47,0,0,1-.8-1.94.61.61,0,0,0-.59-.46H26.76v-2h2.38a.61.61,0,0,0,.59-.46,6.47,6.47,0,0,1,.8-1.94.6.6,0,0,0-.08-.74l-1.69-1.69,1.41-1.41,1.69,1.69a.6.6,0,0,0,.74.08,6.22,6.22,0,0,1,1.94-.8.61.61,0,0,0,.46-.59V28.94h2v2.38a.61.61,0,0,0,.46.59,6.22,6.22,0,0,1,1.94.8.6.6,0,0,0,.74-.08l1.69-1.69,1.41,1.41L41.55,34a.6.6,0,0,0-.08.74,6.47,6.47,0,0,1,.8,1.94.61.61,0,0,0,.59.46h2.38Z"/></g></g></svg>