<svg xmlns="http://www.w3.org/2000/svg" xmlns:xlink="http://www.w3.org/1999/xlink" viewBox="0 0 72 72"><defs><style>.cls-1{fill:#00aeef;}.cls-2{fill:url(#Degradado_sin_nombre_33);}.cls-3{fill:#fff;}</style><linearGradient id="Degradado_sin_nombre_33" x1="36" y1="-11.5" x2="36" y2="91.02" gradientUnits="userSpaceOnUse"><stop offset="0" stop-color="#29abe2" stop-opacity="0.8"/><stop offset="1" stop-opacity="0.6"/></linearGradient></defs><title>Deptos trafico</title><g id="Capa_2" data-name="Capa 2"><g id="Capa_1-2" data-name="Capa 1"><circle class="cls-1" cx="36" cy="36" r="36"/><circle class="cls-2" cx="36" cy="36" r="36"/><path class="cls-3" d="M25.79,33a5.4,5.4,0,1,0,5.4-5.4A5.4,5.4,0,0,0,25.79,33Zm9.48,0a4.08,4.08,0,1,1-4.08-4.08A4.08,4.08,0,0,1,35.27,33Z"/><path class="cls-3" d="M36,41.1a.67.67,0,0,0-.47.2.66.66,0,0,0,0,.93.68.68,0,0,0,.94,0A.67.67,0,0,0,36,41.1Z"/><path class="cls-3" d="M26.38,42.42h7.2a.66.66,0,0,0,0-1.32h-7.2a.66.66,0,1,0,0,1.32Z"/><path class="cls-3" d="M36,44.11H26.38a.66.66,0,0,0,0,1.32H36a.66.66,0,1,0,0-1.32Z"/><path class="cls-3" d="M36,47.12H29a.66.66,0,1,0,0,1.31h7a.66.66,0,1,0,0-1.31Z"/><path class="cls-3" d="M26.38,47.12a.7.7,0,0,0-.47.19.66.66,0,0,0,0,.93.68.68,0,0,0,.94,0,.66.66,0,0,0,0-.93A.7.7,0,0,0,26.38,47.12Z"/><path class="cls-3" d="M50.43,19.13H31.19a.67.67,0,0,0-.66.66v2.9h-9a.67.67,0,0,0-.66.66V52.21a.67.67,0,0,0,.66.66H40.81a.67.67,0,0,0,.66-.66v-2.9h9a.67.67,0,0,0,.66-.66V19.79A.67.67,0,0,0,50.43,19.13ZM40.15,51.55H22.23V24H40.15ZM49.77,48h-8.3V23.35a.67.67,0,0,0-.66-.66h-9V20.45H49.77Z"/></g></g></svg>