<svg xmlns="http://www.w3.org/2000/svg" xmlns:xlink="http://www.w3.org/1999/xlink" viewBox="0 0 72 72"><defs><style>.cls-1{fill:#757575;}.cls-2{fill:url(#Degradado_sin_nombre_11);}.cls-3{fill:#fff;}</style><linearGradient id="Degradado_sin_nombre_11" x1="36" y1="-11.5" x2="36" y2="91.02" gradientUnits="userSpaceOnUse"><stop offset="0" stop-color="#00bfa5" stop-opacity="0.8"/><stop offset="1" stop-opacity="0.8"/></linearGradient></defs><title>Entidades de </title><g id="Capa_2" data-name="Capa 2"><g id="Capa_1-2" data-name="Capa 1"><circle class="cls-1" cx="36" cy="36" r="36"/><circle class="cls-2" cx="36" cy="36" r="36"/><path class="cls-3" d="M39.79,37.36a.69.69,0,0,0,1.37,0c0-2.16-2-4-4.48-4.22V32a.68.68,0,0,0-1.36,0v1.15c-2.53.27-4.48,2.06-4.48,4.22s1.95,4,4.48,4.23v5.78c-1.77-.25-3.11-1.43-3.11-2.85a.69.69,0,0,0-1.37,0c0,2.16,1.95,3.95,4.48,4.22v1.15a.68.68,0,0,0,1.36,0V48.74c2.52-.27,4.48-2.06,4.48-4.22s-2-4-4.48-4.22V34.51c1.77.25,3.11,1.43,3.11,2.85Zm-7.58,0c0-1.42,1.34-2.6,3.11-2.85v5.7c-1.77-.25-3.11-1.43-3.11-2.85Zm7.58,7.16c0,1.42-1.34,2.6-3.11,2.85v-5.7c1.77.25,3.11,1.43,3.11,2.85Z"/><path class="cls-3" d="M39.82,27.31l1.48-1.47h0a6,6,0,0,0,1.66-3,3,3,0,0,0-.7-2.82,3.24,3.24,0,0,0-3.45-.53A3.23,3.23,0,0,0,36,17.47a3.23,3.23,0,0,0-2.81,2.06,3.24,3.24,0,0,0-3.45.53,3,3,0,0,0-.7,2.82,6,6,0,0,0,1.66,3h0l1.48,1.47a17.24,17.24,0,0,0-6.26,6.61,28.35,28.35,0,0,0-4,13.2c0,3.15,1.06,5.21,3.22,6.31s4.79,1.1,7.48,1.1h6.82c2.69,0,5.47-.08,7.48-1.1s3.22-3.16,3.22-6.31a28.35,28.35,0,0,0-4-13.2,17.24,17.24,0,0,0-6.26-6.61Zm-8.15-2.44h0a4.49,4.49,0,0,1-1.29-2.25A1.76,1.76,0,0,1,30.71,21a2.23,2.23,0,0,1,2.54,0,.69.69,0,0,0,1-.4c.36-1.1,1.06-1.81,1.79-1.81s1.43.71,1.79,1.81a.69.69,0,0,0,1,.4,2.23,2.23,0,0,1,2.54,0,1.76,1.76,0,0,1,.33,1.59,4.49,4.49,0,0,1-1.29,2.25h0l-1.85,1.86a7.37,7.37,0,0,0-5,0Zm14.6,27.34c-1.57.8-3.78,1-6.86,1H32.59c-3.08,0-5.29-.16-6.86-1-1.06-.53-2.47-1.65-2.47-5.09,0-7.33,5.95-19.46,12.74-19.46S48.74,39.79,48.74,47.12c0,3.44-1.41,4.56-2.47,5.09Z"/></g></g></svg>