<svg xmlns="http://www.w3.org/2000/svg" xmlns:xlink="http://www.w3.org/1999/xlink" viewBox="0 0 72 72"><defs><style>.cls-1{fill:#757575;}.cls-2{fill:url(#Degradado_sin_nombre_11);}.cls-3{fill:#fff;}</style><linearGradient id="Degradado_sin_nombre_11" x1="36" y1="-11.5" x2="36" y2="91.02" gradientUnits="userSpaceOnUse"><stop offset="0" stop-color="#00bfa5" stop-opacity="0.8"/><stop offset="1" stop-opacity="0.8"/></linearGradient></defs><title>Entidades de cesantia</title><g id="Capa_2" data-name="Capa 2"><g id="Capa_1-2" data-name="Capa 1"><circle class="cls-1" cx="36" cy="36" r="36"/><circle class="cls-2" cx="36" cy="36" r="36"/><path class="cls-3" d="M52.18,52.76V22.7H46.41V18.08H25.59V22.7H19.82V52.76H18.08v1.16H53.92V52.76ZM21,52.76V23.86h4.62v28.9Zm12.14,0V43.51h5.78v9.25Zm12.14,0h-5.2V42.36H32v10.4h-5.2V19.24h18.5V52.76Zm5.78,0H46.41V23.86H51Z"/><path class="cls-3" d="M33.69,21.55H29.07v4.62h4.62ZM32.53,25H30.21V22.71h2.32Z"/><path class="cls-3" d="M42.93,21.55H38.31v4.62h4.62ZM41.78,25H39.46V22.71h2.32Z"/><path class="cls-3" d="M33.69,28.49H29.07v4.62h4.62ZM32.53,32H30.21V29.64h2.32Z"/><path class="cls-3" d="M42.93,28.49H38.31v4.62h4.62ZM41.78,32H39.46V29.64h2.32Z"/><path class="cls-3" d="M33.69,35.42H29.07V40h4.62Zm-1.16,3.47H30.21V36.58h2.32Z"/><path class="cls-3" d="M42.93,35.42H38.31V40h4.62Zm-1.15,3.47H39.46V36.58h2.32Z"/><rect class="cls-3" x="22.7" y="26.17" width="1.16" height="2.31"/><rect class="cls-3" x="22.7" y="33.11" width="1.16" height="2.31"/><rect class="cls-3" x="22.7" y="40.62" width="1.16" height="2.31"/><rect class="cls-3" x="22.7" y="48.14" width="1.16" height="2.31"/><rect class="cls-3" x="48.14" y="26.17" width="1.16" height="2.31"/><rect class="cls-3" x="48.14" y="33.11" width="1.16" height="2.31"/><rect class="cls-3" x="48.14" y="40.62" width="1.16" height="2.31"/><rect class="cls-3" x="48.14" y="48.14" width="1.16" height="2.31"/></g></g></svg>