<svg xmlns="http://www.w3.org/2000/svg" xmlns:xlink="http://www.w3.org/1999/xlink" viewBox="0 0 72 72"><defs><style>.cls-1{fill:#757575;}.cls-2{fill:url(#Degradado_sin_nombre_11);}.cls-3{fill:#fff;}</style><linearGradient id="Degradado_sin_nombre_11" x1="36" y1="-11.5" x2="36" y2="91.02" gradientUnits="userSpaceOnUse"><stop offset="0" stop-color="#00bfa5" stop-opacity="0.8"/><stop offset="1" stop-opacity="0.8"/></linearGradient></defs><title>Entidades de atención</title><g id="Capa_2" data-name="Capa 2"><g id="Capa_1-2" data-name="Capa 1"><circle class="cls-1" cx="36" cy="36" r="36"/><circle class="cls-2" cx="36" cy="36" r="36"/><path class="cls-3" d="M45.22,31.08a.76.76,0,0,0-.11-.14.44.44,0,0,0-.06-.16.59.59,0,0,0-.8-.22l-2.09,1.22a1.66,1.66,0,0,0-.68-.36,1.74,1.74,0,0,0-1.32.17l-1.85,1.07a3.25,3.25,0,0,0-.57-.33V30.2a1.75,1.75,0,0,0-1.16-1.65V26.73a9.4,9.4,0,0,1,3.79,1.07.58.58,0,0,0,.79-.23.59.59,0,0,0-.24-.79A10.45,10.45,0,0,0,27,30.73l0,.05,0,0a10.44,10.44,0,0,0,.62,11.33.58.58,0,0,0,.47.23.53.53,0,0,0,.34-.11.58.58,0,0,0,.13-.81l-.23-.32,1.58-.92a1.66,1.66,0,0,0,.68.36,1.76,1.76,0,0,0,.46.06,1.73,1.73,0,0,0,.86-.23l1.85-1.07a3.25,3.25,0,0,0,.57.33V41.8a1.72,1.72,0,0,0,1.16,1.64v1.83A9.28,9.28,0,0,1,30,43.1a.58.58,0,0,0-.82.07.58.58,0,0,0,.07.82A10.43,10.43,0,0,0,45,41.26l0,0,0,0a10.43,10.43,0,0,0,.15-10.1ZM40.74,32.6a.56.56,0,0,1,.44-.06.56.56,0,0,1,.35.27.59.59,0,0,1-.21.79l-1.55.89a4.15,4.15,0,0,0-.58-1Zm-1,4.91,1.55.89a.58.58,0,0,1,.21.79.56.56,0,0,1-.35.27.56.56,0,0,1-.44-.06l-1.55-.89a4.15,4.15,0,0,0,.58-1ZM36,29.62a.58.58,0,0,1,.58.58V32a4.23,4.23,0,0,0-1.16,0V30.2a.58.58,0,0,1,.58-.58Zm-.58-2.89v1.82a1.75,1.75,0,0,0-1.16,1.65v2.13a3.25,3.25,0,0,0-.57.33l-1.85-1.07a1.74,1.74,0,0,0-1.32-.17,1.66,1.66,0,0,0-.68.36l-1.57-.91a9.3,9.3,0,0,1,7.15-4.14ZM29.29,38.45a1.68,1.68,0,0,0,0,.77l-1.58.91a9.28,9.28,0,0,1,0-8.26l1.58.91a1.68,1.68,0,0,0,0,.77,1.76,1.76,0,0,0,.81,1.06L32,35.67c0,.11,0,.22,0,.33s0,.22,0,.33L30.1,37.39a1.76,1.76,0,0,0-.81,1.06Zm2,.95a.58.58,0,0,1-.79-.21.58.58,0,0,1,.21-.79l1.55-.89a3.84,3.84,0,0,0,.58,1Zm1-4.91-1.55-.89a.59.59,0,0,1-.21-.79.58.58,0,0,1,.79-.21l1.55.89a3.84,3.84,0,0,0-.58,1ZM33.1,36A2.9,2.9,0,1,1,36,38.9,2.9,2.9,0,0,1,33.1,36ZM36,42.38a.58.58,0,0,1-.58-.58V40a4.22,4.22,0,0,0,1.16,0V41.8a.58.58,0,0,1-.58.58Zm.58,2.89V43.44a1.72,1.72,0,0,0,1.16-1.64V39.67a3.25,3.25,0,0,0,.57-.33l1.85,1.07a1.73,1.73,0,0,0,.86.23,1.82,1.82,0,0,0,.46-.06,1.66,1.66,0,0,0,.68-.36l1.57.91a9.3,9.3,0,0,1-7.15,4.14Zm7.73-5.14-1.57-.91a1.76,1.76,0,0,0-.84-1.83l-1.85-1.06c0-.11,0-.22,0-.33s0-.22,0-.33l1.85-1.06a1.76,1.76,0,0,0,.84-1.83l1.58-.91a9.35,9.35,0,0,1,1,4.13,9.11,9.11,0,0,1-1,4.13Z"/><path class="cls-3" d="M51.45,42.91l-3-1.74a1.61,1.61,0,0,0-.66-.22,12.75,12.75,0,0,0,0-9.9,1.61,1.61,0,0,0,.66-.22l3-1.74a1.74,1.74,0,1,0-1.75-3l-3,1.74a1.66,1.66,0,0,0-.52.46,12.8,12.8,0,0,0-8.57-5,1.72,1.72,0,0,0,.14-.68V19.17a1.74,1.74,0,0,0-3.48,0v3.48a1.72,1.72,0,0,0,.14.68,12.8,12.8,0,0,0-8.57,5,1.78,1.78,0,0,0-.52-.46l-3-1.74A1.7,1.7,0,0,0,21,25.9a1.71,1.71,0,0,0-1,.81,1.74,1.74,0,0,0,.63,2.38l3,1.74a1.61,1.61,0,0,0,.66.22,12.75,12.75,0,0,0,0,9.9,1.61,1.61,0,0,0-.66.22l-3,1.74a1.74,1.74,0,0,0-.63,2.38,1.71,1.71,0,0,0,1,.81,1.82,1.82,0,0,0,.46.06,1.64,1.64,0,0,0,.86-.24l3-1.74a1.78,1.78,0,0,0,.52-.46,12.8,12.8,0,0,0,8.57,5,1.72,1.72,0,0,0-.14.68v3.48a1.74,1.74,0,0,0,3.48,0V49.35a1.72,1.72,0,0,0-.14-.68,12.8,12.8,0,0,0,8.57-5,1.66,1.66,0,0,0,.52.46l3,1.74a1.73,1.73,0,0,0,2.38-.63,1.73,1.73,0,0,0-.63-2.38ZM47.27,28.82l3-1.74a.54.54,0,0,1,.28-.08l.16,0a.59.59,0,0,1,.35.27.57.57,0,0,1,.06.44.61.61,0,0,1-.27.36l-3,1.74a.57.57,0,0,1-.79-.21.59.59,0,0,1,.21-.8ZM35.42,19.17a.58.58,0,0,1,1.16,0v3.48a.58.58,0,1,1-1.16,0ZM24.15,29.83l-3-1.74A.59.59,0,0,1,21.27,27l.15,0a.6.6,0,0,1,.29.08l3,1.74a.61.61,0,0,1,.27.36.57.57,0,0,1-.06.44.59.59,0,0,1-.35.27.56.56,0,0,1-.44-.06Zm.85,13a.61.61,0,0,1-.27.36l-3,1.74a.56.56,0,0,1-.44.06.59.59,0,0,1-.14-1.07l3-1.74a.6.6,0,0,1,.29-.08l.15,0a.59.59,0,0,1,.35.27.57.57,0,0,1,.06.44Zm11.58,10a.58.58,0,0,1-1.16,0V49.35a.58.58,0,1,1,1.16,0ZM36,47.61A11.61,11.61,0,1,1,47.61,36,11.63,11.63,0,0,1,36,47.61Zm15.08-2.9a.59.59,0,0,1-.35.27.56.56,0,0,1-.44-.06l-3-1.74a.59.59,0,0,1-.21-.8.56.56,0,0,1,.35-.27l.15,0a.6.6,0,0,1,.29.08l3,1.74a.62.62,0,0,1,.27.35.59.59,0,0,1-.06.45Z"/></g></g></svg>