<svg xmlns="http://www.w3.org/2000/svg" xmlns:xlink="http://www.w3.org/1999/xlink" viewBox="0 0 72 72"><defs><style>.cls-1{fill:#757575;}.cls-2{fill:url(#Degradado_sin_nombre_11);}.cls-3{fill:#f2f2f2;}</style><linearGradient id="Degradado_sin_nombre_11" x1="36" y1="-11.5" x2="36" y2="91.02" gradientUnits="userSpaceOnUse"><stop offset="0" stop-color="#00bfa5" stop-opacity="0.8"/><stop offset="1" stop-opacity="0.8"/></linearGradient></defs><title>Países</title><g id="Capa_2" data-name="Capa 2"><g id="Capa_1-2" data-name="Capa 1"><circle class="cls-1" cx="36" cy="36" r="36"/><circle class="cls-2" cx="36" cy="36" r="36"/><path class="cls-3" d="M51.65,37.88l.84-.88a1,1,0,0,0,.17-1.16l-.49-1,1.13-.7a1,1,0,0,0,.44-.58l.53-1.8a1,1,0,0,0-.57-1.22l-.64-.27.06-.32.79-.33a1,1,0,0,0,.58-.64v0l.78.93a1,1,0,0,0,1.8-.66V27.84l0-1.52A2.12,2.12,0,0,0,55,24.26l-.25,0-7.45.89a1.06,1.06,0,0,0-.16-.73,1,1,0,0,0-.81-.45l-1,0a1,1,0,0,0-.85.41L42,27.56l-2,1-1.67-.85a1,1,0,0,0-1.21.2l-1.64,1.75a1,1,0,0,0-.21,1.05l.24.66-.9.86-1,.58a1,1,0,0,0-.5,1l.09.56a1,1,0,0,0,1,.87,1,1,0,0,0,.42-.09l1.81-.79,1,.69a1,1,0,0,0,.39.17l.93.18L36.14,35a1.19,1.19,0,0,0-.53.06L33.36,36a1,1,0,0,0-.62.73l-.44,2a1,1,0,0,0,.31,1l1,.93a1,1,0,0,0,.79.26l1.76-.19.06,2.76a.86.86,0,0,0,0,.28l.37,1.2a1.94,1.94,0,0,0,1.88,1.4,2,2,0,0,0,1.74-1.06l2.77-5.31a1,1,0,0,0-.21-1.21l-.09-.09.21-.07a1,1,0,0,0,.67-.73,1.05,1.05,0,0,0-.09-.72l.46.31,1.37,2a1,1,0,0,0,.84.43,1,1,0,0,0,.9-.55l.51-1,1.18.84A1,1,0,0,0,50.18,39a1,1,0,0,0,.23-.73l.55,0A1,1,0,0,0,51.65,37.88Zm-10-2.41-.06.07a1,1,0,0,0,0,1.4l.56.56-.43.15L40.59,36v-.68a1,1,0,0,0-.83-1L38.13,34l-1.05-.74a1,1,0,0,0-1-.1L35,33.66l-.59.27,0-.12.87-.5a1.33,1.33,0,0,0,.19-.14l1-1a1,1,0,0,0,.26-1.09l-.25-.67L38,28.88l1.62.84a1.06,1.06,0,0,0,.92,0l2.15-1.08a1,1,0,0,0,.36-.3l2.36-3.15.58,0a1,1,0,0,0,.15.8,1,1,0,0,0,1,.43l7.8-.94a.86.86,0,0,1,.95.83l0,1.51v.79l-.66-.78a1,1,0,0,0-.77-.36,1,1,0,0,0-1,.72l-.1.31-.81.34a1,1,0,0,0-.61.76l-.11.62a1,1,0,0,0,.6,1.11l.62.26-.45,1.53-1.23.75A1,1,0,0,0,51,35.23l.52,1-.67.71-.72,0a1,1,0,0,0-.74.38h0a1.05,1.05,0,0,0-.21.47l-1-.72a1.05,1.05,0,0,0-1.5.36l-.45.89L45,36.68a.9.9,0,0,0-.28-.27L43,35.29a1.07,1.07,0,0,0-.55-.16A1,1,0,0,0,41.69,35.47Zm.19,4-2.69,5.17a.73.73,0,0,1-.64.39.72.72,0,0,1-.69-.52l-.36-1.17-.06-3a1,1,0,0,0-.34-.75,1.05,1.05,0,0,0-.78-.25l-1.91.2-.87-.78.39-1.74L36,36.27l3.61.54,1.44,1.88Z"/><path class="cls-3" d="M57.38,44.41l-.93-1.78a1,1,0,0,0-.9-.54,1,1,0,0,0-.65.23l-.09-.1A1,1,0,0,0,53.49,42l-2.21,1.33a1,1,0,0,0-.49.76l-.19,1.65a1,1,0,0,0,.25.79,1,1,0,0,0,.89.33l1.71-.21.23.55a1,1,0,0,0,.94.62h.18l1-.18a1,1,0,0,0,.74-.56l.83-1.72A1,1,0,0,0,57.38,44.41Zm-1.15.48L55.5,46.4l-.74.13L54.53,46a1,1,0,0,0-.94-.62h-.12l-1.6.21L52,44.32l2-1.18.13.17a1.06,1.06,0,0,0,1.4.18Z"/><path class="cls-3" d="M30.27,41.19l-3.79-2.46a1.52,1.52,0,0,0-1.87.2L24,38.56l-1.25-1.77h.35a1,1,0,0,0,.65-.23l2.85-2.35,1.6-.91a1,1,0,0,0,.49-.66,1,1,0,0,0-.16-.81l-1.42-2a1,1,0,0,0-1.7,0l-.57.94-.49-.55,1.48-1.08a1,1,0,0,0,.31-1.26L25.69,27a1,1,0,0,0-.62-.53,1,1,0,0,0-.81.09l-.63.37-3.16-1.34-2.36-1.33A1,1,0,0,0,17,24.4l-1.25,1a1,1,0,0,0-.31.43l-.85,2.34a1,1,0,0,0,.93,1.36l1.66,0,1.07,2.64L18,35a1.07,1.07,0,0,0,.16.62L19.73,38a1,1,0,0,0,.49.4l2.92,1.12.09.06.66.37-.33.5a1,1,0,0,0,0,1l.94,1.72-.12,4.25a1,1,0,0,0,.21.65l.79,1a1,1,0,0,0,.8.39,1,1,0,0,0,1-1l0-1.34L30,44.4a1.08,1.08,0,0,0,.28-.47l.43-1.63A1,1,0,0,0,30.27,41.19Zm-4.38,6.64-.32-.4.13-4.23a1.06,1.06,0,0,0-.13-.52L24.66,41l.79-1.18a.27.27,0,0,1,.36-.08l3.65,2.37-.38,1.41-2.9,2.77a1,1,0,0,0-.31.76Zm-6.5-16L18.25,29a1,1,0,0,0-.92-.64l-1.49,0,.71-2,1.08-.9,2.23,1.26.1.05,3.29,1.39a1,1,0,0,0,.91-.06l.51-.31.23.48-1.52,1.12a1,1,0,0,0-.16,1.49l.84.95a1,1,0,0,0,1.63-.13l.56-.9,1.09,1.55L26,33.13a.78.78,0,0,0-.15.1L23,35.54h-.82a1,1,0,0,0-.84.53,1,1,0,0,0,.07,1l.43.61-1.09-.42L19.28,35l.18-2.72A1.12,1.12,0,0,0,19.39,31.83Z"/><path class="cls-3" d="M28.27,25.75l.35.26v3.86a1,1,0,0,0,1.57.85l2.74-1.79a1,1,0,0,0,.43-.62l.92-3.84a1,1,0,0,0-.32-1l-.84-.75a1,1,0,0,0-1.06-.19L28.5,24a1,1,0,0,0-.62.81A1,1,0,0,0,28.27,25.75Zm1.19-.66L29.34,25l3.06-1.26.64.57-.86,3.63-2.32,1.51V25.9A1,1,0,0,0,29.46,25.09Z"/></g></g></svg>