<svg xmlns="http://www.w3.org/2000/svg" xmlns:xlink="http://www.w3.org/1999/xlink" viewBox="0 0 72 72"><defs><style>.cls-1{fill:#757575;}.cls-2{fill:url(#Degradado_sin_nombre_11);}.cls-3{fill:#fdfdfd;}</style><linearGradient id="Degradado_sin_nombre_11" x1="36" y1="-11.5" x2="36" y2="91.02" gradientUnits="userSpaceOnUse"><stop offset="0" stop-color="#00bfa5" stop-opacity="0.8"/><stop offset="1" stop-opacity="0.8"/></linearGradient></defs><title>Roles</title><g id="Capa_2" data-name="Capa 2"><g id="Capa_1-2" data-name="Capa 1"><circle class="cls-1" cx="36" cy="36" r="36"/><circle class="cls-2" cx="36" cy="36" r="36"/><path class="cls-3" d="M32.55,39l-2.28.59h0a3.17,3.17,0,0,0-2.21,3v.66a1.36,1.36,0,0,0,1.41,1.31H42.55A1.36,1.36,0,0,0,44,43.31v-.66a3.17,3.17,0,0,0-2.21-3h0L39.46,39a.87.87,0,0,1-.38-.21V37.58h0a5.3,5.3,0,0,0,1.21-3.41v-.92a8.6,8.6,0,0,0,0-5.39h0a.08.08,0,0,0,0,0v0l0,0,0,0,0,0h0l0,0h0l0,0h0l0,0h0l0,0H39.6a6.17,6.17,0,0,1-2.07-.27c-1.35-.33-2.87-.69-4.2.27a2.48,2.48,0,0,0-2.2,2.65,17.57,17.57,0,0,0,.61,3.39v.51a5.51,5.51,0,0,0,1.19,3.44v1.33a.94.94,0,0,1-.38.21ZM33,33.84a7.59,7.59,0,0,1,.45-2.06,18,18,0,0,1,5.66,1v1.36a4.07,4.07,0,0,1-1,2.75h0a2.77,2.77,0,0,1-2,.94c-1.62,0-3-1.78-3-3.81Zm1.19,4.72a3.61,3.61,0,0,0,1.86.53,3.76,3.76,0,0,0,1.85-.49v.23a1.18,1.18,0,0,0,.28.76L36,40.85l-2.13-1.27a1.17,1.17,0,0,0,.27-.75ZM29.46,43.4a.21.21,0,0,1-.19-.09v-.66a1.92,1.92,0,0,1,1.31-1.85l2.07-.54,2.74,1.65V43.4Zm13.28-.75v.66a.23.23,0,0,1-.19.08H36.61V41.91l2.78-1.64,2,.53a1.92,1.92,0,0,1,1.31,1.85ZM33.55,28.71h.23l0,0h0l0,0h0l0,0h0c.9-.73,2.07-.45,3.3-.15a9.44,9.44,0,0,0,2,.32,7.52,7.52,0,0,1,.14,2.88A19.2,19.2,0,0,0,33,30.55h-.2l0,0h0l-.05,0h0l0,0s0,0,0,0l0,0,0,0h0l0,0h0l0,0v0l0,0v.08a4.66,4.66,0,0,1-.07-.77c0-.66.31-1.44,1.19-1.44Z"/><path class="cls-3" d="M51.58,26.2a.76.76,0,0,0,.75-.75V20.36l0-.16-.24.08h0l.21-.14L52.16,20a.57.57,0,0,0-.11-.11l-.11-.08-5.39-.09a.76.76,0,0,0,0,1.51h3.21l-4.54,4.53a13.81,13.81,0,0,0-18.44,0l-4.54-4.53h3.21a.76.76,0,0,0,0-1.51h-5.1l0,.25h0l-.09-.24-.34.16a1,1,0,0,0-.12.14l-.05.07-.1,5.4a.76.76,0,0,0,1.51,0V22.24l4.53,4.54a13.81,13.81,0,0,0,0,18.44l-4.53,4.54V46.55a.76.76,0,0,0-1.51,0v5l.25.05-.24,0,.16.39.1.1L20.1,52h0l-.1.23.06,0,5.39.09a.76.76,0,0,0,0-1.51H22.24l4.54-4.53a13.81,13.81,0,0,0,18.44,0l4.54,4.53H46.55a.76.76,0,0,0,0,1.51h5.11l0-.25.09.24L52,52.2,51.88,52l.18.18a.81.81,0,0,0,.11-.13l.07-.09.09-5.39a.76.76,0,0,0-1.51,0v3.21l-4.53-4.54a13.81,13.81,0,0,0,0-18.44l4.53-4.54v3.21A.76.76,0,0,0,51.58,26.2ZM36,48.31A12.31,12.31,0,1,1,48.31,36,12.32,12.32,0,0,1,36,48.31ZM51.77,20ZM20,20.1Zm-.1.25ZM52,51.9Z"/></g></g></svg>