<svg xmlns="http://www.w3.org/2000/svg" xmlns:xlink="http://www.w3.org/1999/xlink" viewBox="0 0 72 72"><defs><style>.cls-1{fill:#757575;}.cls-2{fill:url(#Degradado_sin_nombre_11);}.cls-3{fill:#fff;}</style><linearGradient id="Degradado_sin_nombre_11" x1="36" y1="-11.5" x2="36" y2="91.02" gradientUnits="userSpaceOnUse"><stop offset="0" stop-color="#00bfa5" stop-opacity="0.8"/><stop offset="1" stop-opacity="0.8"/></linearGradient></defs><title>Servicios proveedores</title><g id="Capa_2" data-name="Capa 2"><g id="Capa_1-2" data-name="Capa 1"><circle class="cls-1" cx="36" cy="36" r="36"/><circle class="cls-2" cx="36" cy="36" r="36"/><path class="cls-3" d="M50.17,21.83h-.75l-1-2.47A.57.57,0,0,0,47.9,19H37.7a.57.57,0,0,0-.53.36l-1,2.47H21.83A2.84,2.84,0,0,0,19,24.67V46.2A2.83,2.83,0,0,0,21.83,49H32.6v4h1.13V49h8.5a.56.56,0,0,0,.57-.56V45.63a2.26,2.26,0,0,1,1.7-2.19V53h1.13V49h4.54A2.83,2.83,0,0,0,53,46.2V24.67A2.84,2.84,0,0,0,50.17,21.83ZM21.83,23H36.57a.55.55,0,0,0,.52-.36l1-2.48h9.44l1,2.48A.55.55,0,0,0,49,23h1.14a1.7,1.7,0,0,1,1.7,1.7H37.13a.56.56,0,0,0-.52.35l-1,2.48H20.13V24.67A1.7,1.7,0,0,1,21.83,23Zm30,2.83v2.83H39.4a.57.57,0,0,0-.53.36l-1,2.48H20.13V28.63H36a.58.58,0,0,0,.53-.35l1-2.48Zm-1.7,22.1H45.63V42.8a.57.57,0,0,0-.56-.57,3.4,3.4,0,0,0-3.4,3.4V47.9H21.83a1.7,1.7,0,0,1-1.7-1.7V32.6H38.27a.55.55,0,0,0,.52-.36l1-2.47H51.87V46.2A1.7,1.7,0,0,1,50.17,47.9Z"/><path class="cls-3" d="M36,34.3A5.67,5.67,0,1,0,41.67,40,5.68,5.68,0,0,0,36,34.3Zm0,10.2A4.54,4.54,0,1,1,40.53,40,4.53,4.53,0,0,1,36,44.5Z"/><path class="cls-3" d="M35.43,40.87l-1.3-1.3-.8.8,1.7,1.7a.57.57,0,0,0,.4.16.55.55,0,0,0,.4-.16l3.4-3.4-.8-.8Z"/><rect class="cls-3" x="33.17" y="24.67" width="1.13" height="1.13"/><rect class="cls-3" x="30.9" y="24.67" width="1.13" height="1.13"/><rect class="cls-3" x="28.63" y="24.67" width="1.13" height="1.13"/><rect class="cls-3" x="26.37" y="24.67" width="1.13" height="1.13"/><rect class="cls-3" x="24.1" y="24.67" width="1.13" height="1.13"/><rect class="cls-3" x="21.83" y="24.67" width="1.13" height="1.13"/></g></g></svg>