<svg xmlns="http://www.w3.org/2000/svg" xmlns:xlink="http://www.w3.org/1999/xlink" viewBox="0 0 72 72"><defs><style>.cls-1{fill:#757575;}.cls-2{fill:url(#Degradado_sin_nombre_11);}.cls-3{fill:#fff;}</style><linearGradient id="Degradado_sin_nombre_11" x1="36" y1="-11.5" x2="36" y2="91.02" gradientUnits="userSpaceOnUse"><stop offset="0" stop-color="#00bfa5" stop-opacity="0.8"/><stop offset="1" stop-opacity="0.8"/></linearGradient></defs><title>Tipos de documentos</title><g id="Capa_2" data-name="Capa 2"><g id="Capa_1-2" data-name="Capa 1"><circle class="cls-1" cx="36" cy="36" r="36"/><circle class="cls-2" cx="36" cy="36" r="36"/><path class="cls-3" d="M52,22.11H49.65a.7.7,0,0,0-.7.71.7.7,0,0,0,.7.7H51.3V49.18a2.12,2.12,0,0,1-4.24,0V20a.7.7,0,0,0-.7-.7H20a.7.7,0,0,0-.7.7V49.18a3.53,3.53,0,0,0,3.53,3.53H49.18a3.53,3.53,0,0,0,3.53-3.53V22.82a.7.7,0,0,0-.7-.71ZM22.82,51.3a2.12,2.12,0,0,1-2.12-2.12V20.7h25V49.18a3.47,3.47,0,0,0,.71,2.12Z"/><path class="cls-3" d="M33.18,36.71a6.37,6.37,0,1,0-3.54-1.08v5.08a.71.71,0,0,0,.38.62.71.71,0,0,0,.72,0l2.44-1.63,2.43,1.63a.77.77,0,0,0,.39.11.64.64,0,0,0,.33-.08.71.71,0,0,0,.38-.62V37.88a.71.71,0,0,0-1.42,0v1.51l-1.72-1.15a.71.71,0,0,0-.79,0l-1.72,1.15v-3a6.17,6.17,0,0,0,2.12.37Zm-4.95-6.36a4.95,4.95,0,1,1,4.95,4.94,4.95,4.95,0,0,1-4.95-4.94Z"/><path class="cls-3" d="M33.18,26.82a3.53,3.53,0,1,0,3.53,3.53,3.54,3.54,0,0,0-3.53-3.53Zm0,5.65a2.12,2.12,0,1,1,2.11-2.12,2.12,2.12,0,0,1-2.11,2.12Z"/><path class="cls-3" d="M39.77,43.77H26.58a.7.7,0,0,0-.7.7.7.7,0,0,0,.7.71H39.77a.7.7,0,0,0,.7-.71.7.7,0,0,0-.7-.7Z"/><path class="cls-3" d="M41.65,46.59H24.7a.71.71,0,1,0,0,1.42h17a.71.71,0,0,0,0-1.42Z"/></g></g></svg>