<svg xmlns="http://www.w3.org/2000/svg" xmlns:xlink="http://www.w3.org/1999/xlink" viewBox="0 0 72 72"><defs><style>.cls-1{fill:#757575;}.cls-2{fill:url(#Degradado_sin_nombre_11);}.cls-3{fill:#fff;}</style><linearGradient id="Degradado_sin_nombre_11" x1="36" y1="-11.5" x2="36" y2="91.02" gradientUnits="userSpaceOnUse"><stop offset="0" stop-color="#00bfa5" stop-opacity="0.8"/><stop offset="1" stop-opacity="0.8"/></linearGradient></defs><title>Tipos actividades</title><g id="Capa_2" data-name="Capa 2"><g id="Capa_1-2" data-name="Capa 1"><circle class="cls-1" cx="36" cy="36" r="36"/><circle class="cls-2" cx="36" cy="36" r="36"/><path class="cls-3" d="M53.31,54.21,39.59,30.46V17.79h-10v7.32h8.7v5.35l-5.55,9.62L29.8,35,18.69,54.21ZM30.9,23.82V19.08h7.4v4.74Zm-4.07,29.1,7.76-13.45,1.73,3.44L39,40.48l2.63,2.43,1.72-3.44,7.77,13.45Zm8.54-14.8L39,31.93l3.58,6.19L41.19,40.8,39,38.72,36.7,40.8Zm-5.57-.56L32,41.38,25.34,52.92H20.93Z"/></g></g></svg>