<svg xmlns="http://www.w3.org/2000/svg" xmlns:xlink="http://www.w3.org/1999/xlink" viewBox="0 0 72 72"><defs><style>.cls-1{fill:#00aeef;}.cls-2{fill:url(#Degradado_sin_nombre_33);}.cls-3{fill:#fff;}</style><linearGradient id="Degradado_sin_nombre_33" x1="36" y1="-11.5" x2="36" y2="91.02" gradientUnits="userSpaceOnUse"><stop offset="0" stop-color="#29abe2" stop-opacity="0.8"/><stop offset="1" stop-opacity="0.6"/></linearGradient></defs><title>Agencias</title><g id="Capa_2" data-name="Capa 2"><g id="Capa_1-2" data-name="Capa 1"><circle class="cls-1" cx="36" cy="36" r="36"/><circle class="cls-2" cx="36" cy="36" r="36"/><path class="cls-3" d="M38.08,23.06A10.48,10.48,0,0,0,36,22.85a10.22,10.22,0,0,0-5.09,19.08l.42.3v2.53a3.47,3.47,0,0,0,3.46,3.47h2.6a3.48,3.48,0,0,0,3.47-3.47v-2.6a2.71,2.71,0,0,1,.22-.23,10.22,10.22,0,0,0-3-18.87ZM32.76,41.11a9.83,9.83,0,0,0-1-.71A8.46,8.46,0,0,1,36,24.61a9.33,9.33,0,0,1,1.74.17A8.46,8.46,0,0,1,40.2,40.4a4.25,4.25,0,0,0-.91.87.89.89,0,0,0-.2.56v2.93a1.7,1.7,0,0,1-1.7,1.7h-2.6a1.7,1.7,0,0,1-1.7-1.7v-3A.88.88,0,0,0,32.76,41.11Z"/><path class="cls-3" d="M39.48,49.6h-7a.88.88,0,0,0,0,1.76h7a.88.88,0,0,0,0-1.76Z"/><path class="cls-3" d="M39.48,53.36h-7a.88.88,0,1,0,0,1.76h7a.88.88,0,1,0,0-1.76Z"/><path class="cls-3" d="M22.19,35.35a.92.92,0,0,0-.67-.05L19,36.12a.85.85,0,0,0-.51.44.87.87,0,0,0,.78,1.28.77.77,0,0,0,.27,0L22.06,37a.87.87,0,0,0,.52-.44.92.92,0,0,0,.05-.67A.9.9,0,0,0,22.19,35.35Z"/><path class="cls-3" d="M22.06,26.33l-2.53-.83a.88.88,0,0,0-1.1.57A.87.87,0,0,0,19,27.18l2.53.83a1.17,1.17,0,0,0,.27,0,.89.89,0,0,0,.84-.61.92.92,0,0,0-.05-.67A.87.87,0,0,0,22.06,26.33Z"/><path class="cls-3" d="M27.06,20.79a.87.87,0,0,0,.52-.17.89.89,0,0,0,.2-1.23l-1.57-2.15a.83.83,0,0,0-.56-.35.85.85,0,0,0-.67.16.88.88,0,0,0-.19,1.23l1.56,2.15A.9.9,0,0,0,27.06,20.79Z"/><path class="cls-3" d="M53,36.12l-2.53-.82a.87.87,0,0,0-.67.06.88.88,0,0,0-.44.51.92.92,0,0,0,.05.67.87.87,0,0,0,.52.44l2.53.82a.77.77,0,0,0,.27,0A.88.88,0,0,0,53,36.12Z"/><path class="cls-3" d="M50.21,28.05a1.26,1.26,0,0,0,.27,0L53,27.18a.87.87,0,0,0,.51-.43.89.89,0,0,0,.06-.68.88.88,0,0,0-1.11-.56l-2.53.82a.83.83,0,0,0-.51.44.87.87,0,0,0-.06.67A.89.89,0,0,0,50.21,28.05Z"/><path class="cls-3" d="M45.78,17.24l-1.56,2.15a.88.88,0,0,0,.2,1.23.87.87,0,0,0,.51.17.92.92,0,0,0,.72-.36l1.56-2.15a.88.88,0,0,0,.16-.66.86.86,0,0,0-.35-.57A.89.89,0,0,0,45.78,17.24Z"/><path class="cls-3" d="M38.7,27.64a8.52,8.52,0,0,1,3.45,4.09h0a.89.89,0,0,0,.82.55.75.75,0,0,0,.33-.07.87.87,0,0,0,.48-.46.89.89,0,0,0,0-.68,10.31,10.31,0,0,0-4.17-4.93A.92.92,0,0,0,39,26a.89.89,0,0,0-.25,1.61Z"/></g></g></svg>