<svg xmlns="http://www.w3.org/2000/svg" xmlns:xlink="http://www.w3.org/1999/xlink" viewBox="0 0 72 72"><defs><style>.cls-1{fill:#00aeef;}.cls-2{fill:url(#Degradado_sin_nombre_33);}.cls-3{fill:#fff;}</style><linearGradient id="Degradado_sin_nombre_33" x1="36" y1="-11.5" x2="36" y2="91.02" gradientUnits="userSpaceOnUse"><stop offset="0" stop-color="#29abe2" stop-opacity="0.8"/><stop offset="1" stop-opacity="0.6"/></linearGradient></defs><title>Bancos</title><g id="Capa_2" data-name="Capa 2"><g id="Capa_1-2" data-name="Capa 1"><circle class="cls-1" cx="36" cy="36" r="36"/><circle class="cls-2" cx="36" cy="36" r="36"/><path class="cls-3" d="M52.76,30.43,36.32,19.1a.57.57,0,0,0-.64,0L19.24,30.43a.58.58,0,0,0-.24.47v2.27a.56.56,0,0,0,.57.56h1.7v1.7a.56.56,0,0,0,.56.57h.57V47.33h-.57a.57.57,0,0,0-.56.57v1.7h-1.7a.56.56,0,0,0-.57.57v2.26a.56.56,0,0,0,.57.57H52.43a.56.56,0,0,0,.57-.57V50.17a.56.56,0,0,0-.57-.57h-1.7V47.9a.57.57,0,0,0-.56-.57H49.6V36h.57a.56.56,0,0,0,.56-.57v-1.7h1.7a.56.56,0,0,0,.57-.56V30.9A.58.58,0,0,0,52.76,30.43ZM36,20.25,50.61,30.33H21.39Zm7.93,13.48v1.7a.57.57,0,0,0,.57.57h.57V47.33H44.5a.58.58,0,0,0-.57.57v1.7h-1.7V41.77a6.21,6.21,0,0,0-3.44-5.58,6.29,6.29,0,0,0-5.58,0,6.21,6.21,0,0,0-3.44,5.58V49.6h-1.7V47.9a.58.58,0,0,0-.57-.57h-.57V36h.57a.57.57,0,0,0,.57-.57v-1.7ZM41.1,49.6H30.9V41.77a5.1,5.1,0,0,1,10.2,0ZM26.93,34.87H22.4V33.73h4.53ZM23.53,36H25.8V47.33H23.53ZM22.4,48.47h4.53V49.6H22.4Zm29.47,3.4H20.13V50.73H51.87Zm-6.8-2.27V48.47H49.6V49.6Zm3.4-2.27H46.2V36h2.27ZM49.6,34.87H45.07V33.73H49.6Zm.57-2.27h-30V31.47H51.87V32.6Z"/><path class="cls-3" d="M36,29.2a2.84,2.84,0,1,0-2.83-2.83A2.83,2.83,0,0,0,36,29.2Zm0-4.53a1.7,1.7,0,1,1-1.7,1.7A1.7,1.7,0,0,1,36,24.67Z"/><path class="cls-3" d="M36,42.23a.58.58,0,0,1,.57.57H37.7a1.71,1.71,0,0,0-1.13-1.6v-.67H35.43v.67a1.71,1.71,0,0,0-1.13,1.6.53.53,0,0,0,.23.45l2,1.49a.57.57,0,0,1-.51.33.58.58,0,0,1-.57-.57H34.3a1.71,1.71,0,0,0,1.13,1.6v.67h1.14V46.1a1.71,1.71,0,0,0,1.13-1.6.53.53,0,0,0-.23-.45l-2-1.49A.57.57,0,0,1,36,42.23Z"/></g></g></svg>