<svg xmlns="http://www.w3.org/2000/svg" xmlns:xlink="http://www.w3.org/1999/xlink" viewBox="0 0 72 72"><defs><style>.cls-1{fill:#00aeef;}.cls-2{fill:url(#Degradado_sin_nombre_33);}.cls-3{fill:#fdfdfd;}</style><linearGradient id="Degradado_sin_nombre_33" x1="36" y1="-11.5" x2="36" y2="91.02" gradientUnits="userSpaceOnUse"><stop offset="0" stop-color="#29abe2" stop-opacity="0.8"/><stop offset="1" stop-opacity="0.6"/></linearGradient></defs><title>Cargos</title><g id="Capa_2" data-name="Capa 2"><g id="Capa_1-2" data-name="Capa 1"><circle class="cls-1" cx="36" cy="36" r="36"/><circle class="cls-2" cx="36" cy="36" r="36"/><path class="cls-3" d="M52.11,23.63H38.53a1.12,1.12,0,0,1-.74-.28l-2.5-2.15a2.66,2.66,0,0,0-1.73-.64H24.64a1.9,1.9,0,0,0-1.9,1.89V25H19.89A1.9,1.9,0,0,0,18,26.87V49.55a1.9,1.9,0,0,0,1.9,1.89H47.36a1.9,1.9,0,0,0,1.9-1.89V47h2.85A1.9,1.9,0,0,0,54,45.13V25.52A1.9,1.9,0,0,0,52.11,23.63ZM47.74,49.55a.38.38,0,0,1-.38.38H19.89a.38.38,0,0,1-.38-.38V34H47.74Zm0-17.07H19.51V26.87a.38.38,0,0,1,.38-.38h8.93a1.14,1.14,0,0,1,.74.28l2.49,2.15a2.66,2.66,0,0,0,1.73.64H47.36a.38.38,0,0,1,.38.38Zm4.75,12.65a.38.38,0,0,1-.38.38H49.26V29.94a1.9,1.9,0,0,0-1.9-1.89H33.78a1.12,1.12,0,0,1-.74-.28l-2.49-2.15A2.7,2.7,0,0,0,28.82,25H24.26V22.45a.38.38,0,0,1,.38-.38h8.92a1.14,1.14,0,0,1,.75.28L36.8,24.5a2.66,2.66,0,0,0,1.73.64H52.11a.38.38,0,0,1,.38.38Z"/><path class="cls-3" d="M40.2,38.08h4.53a.75.75,0,0,0,.76-.75.76.76,0,0,0-.76-.76H40.2a.76.76,0,0,0-.76.76A.75.75,0,0,0,40.2,38.08Z"/><path class="cls-3" d="M40.2,41.72h4.53a.76.76,0,0,0,0-1.52H40.2a.76.76,0,1,0,0,1.52Z"/></g></g></svg>