<svg xmlns="http://www.w3.org/2000/svg" xmlns:xlink="http://www.w3.org/1999/xlink" viewBox="0 0 72 72"><defs><style>.cls-1{fill:#00aeef;}.cls-2{fill:url(#Degradado_sin_nombre_33);}.cls-3{fill:#fdfdfd;}</style><linearGradient id="Degradado_sin_nombre_33" x1="36" y1="-11.5" x2="36" y2="91.02" gradientUnits="userSpaceOnUse"><stop offset="0" stop-color="#29abe2" stop-opacity="0.8"/><stop offset="1" stop-opacity="0.6"/></linearGradient></defs><title>Clientes</title><g id="Capa_2" data-name="Capa 2"><g id="Capa_1-2" data-name="Capa 1"><circle class="cls-1" cx="36" cy="36" r="36"/><circle class="cls-2" cx="36" cy="36" r="36"/><path class="cls-3" d="M51.92,36.78l-3.43-9.37a.73.73,0,0,0-.54-.47.72.72,0,0,0-.68.2L40,34.44a12.11,12.11,0,0,0-3.24-1.92,7.5,7.5,0,1,0-6.51-.22A9.8,9.8,0,0,0,26,35.09a4,4,0,0,0-.6,0,5,5,0,0,0-3.53,1.46l-.4.4a5,5,0,0,0,0,7.05l8,8,.4.4a4.94,4.94,0,0,0,3.53,1.47h0A5,5,0,0,0,37,52.36l.4-.4h0L51.75,37.56a.75.75,0,0,0,.17-.78Zm-13-1.28-4.75,4.74V33.61H35.3a10.34,10.34,0,0,1,3.61,1.89ZM33.7,19.66a6,6,0,0,1,6,6,4.58,4.58,0,0,1,0,.64L36,22.7a.75.75,0,0,0-.77-.17L27.7,25.25a6,6,0,0,1,6-5.59ZM27.8,26.8l7.5-2.71,4,3.88A6,6,0,0,1,27.8,26.8Zm3.28,6.8h1.6v6.63l-3.74-3.73a4.78,4.78,0,0,0-1.31-.94,8.1,8.1,0,0,1,3.45-2ZM35.9,51.31h0a3.48,3.48,0,0,1-2.48,1h0a3.46,3.46,0,0,1-2.48-1l-.4-.4-8-8a3.51,3.51,0,0,1,0-4.95l.4-.4a3.51,3.51,0,0,1,4.95,0l5,5a.75.75,0,0,0,1,.07l0,0,0,0,0,0L47.5,29l2.86,7.84Z"/></g></g></svg>