<svg xmlns="http://www.w3.org/2000/svg" xmlns:xlink="http://www.w3.org/1999/xlink" viewBox="0 0 72 72"><defs><style>.cls-1{fill:url(#Degradado_sin_nombre_14);}.cls-2{fill:url(#Degradado_sin_nombre_17);}.cls-3{fill:#fff;}</style><linearGradient id="Degradado_sin_nombre_14" x1="36" x2="36" y2="72" gradientUnits="userSpaceOnUse"><stop offset="0.02" stop-color="#667eea" stop-opacity="0.8"/><stop offset="1" stop-color="#764ba2" stop-opacity="0.67"/></linearGradient><linearGradient id="Degradado_sin_nombre_17" x1="36" y1="-11.5" x2="36" y2="91.02" gradientUnits="userSpaceOnUse"><stop offset="0" stop-color="#667eea" stop-opacity="0.8"/><stop offset="1" stop-opacity="0.6"/></linearGradient></defs><title>Presupuestos Generales</title><g id="Capa_2" data-name="Capa 2"><g id="Capa_1-2" data-name="Capa 1"><circle class="cls-1" cx="36" cy="36" r="36"/><circle class="cls-2" cx="36" cy="36" r="36"/><path class="cls-3" d="M21.43,55H46.77a.63.63,0,0,0,.63-.63V51.2h3.17a.63.63,0,0,0,.63-.63V17.63a.63.63,0,0,0-.63-.63H25.23a.63.63,0,0,0-.63.63V20.8H21.43a.63.63,0,0,0-.63.63V54.37A.63.63,0,0,0,21.43,55Zm20.9-32,2.91,2.91H42.33ZM25.87,18.27H49.93V49.93H47.4V26.5a.64.64,0,0,0-.19-.45L42.15,21a.64.64,0,0,0-.45-.19H25.87Zm-3.8,3.8h19V26.5a.63.63,0,0,0,.63.63h4.43v26.6H22.07Z"/><path class="cls-3" d="M43,29.67H25.23a.63.63,0,0,0-.63.63V50.57a.63.63,0,0,0,.63.63H43a.63.63,0,0,0,.63-.63V30.3A.63.63,0,0,0,43,29.67Zm-.64,3.16H39.17v-1.9h3.16ZM39.17,34.1h3.16V46.77H39.17ZM37.9,46.77h-12V34.1h12Zm0-15.84v1.9h-12v-1.9ZM25.87,48h12v1.9h-12Zm13.3,1.9V48h3.16v1.9Z"/><rect class="cls-3" x="27.13" y="35.37" width="9.5" height="1.27"/><rect class="cls-3" x="27.13" y="37.9" width="9.5" height="1.27"/><rect class="cls-3" x="27.13" y="40.43" width="9.5" height="1.27"/><rect class="cls-3" x="27.13" y="42.97" width="9.5" height="1.27"/><rect class="cls-3" x="30.93" y="23.97" width="6.33" height="1.27"/><rect class="cls-3" x="28.4" y="26.5" width="11.4" height="1.27"/></g></g></svg>