<svg xmlns="http://www.w3.org/2000/svg" xmlns:xlink="http://www.w3.org/1999/xlink" viewBox="0 0 72 72"><defs><style>.cls-1{fill:#00aeef;}.cls-2{fill:url(#Degradado_sin_nombre_33);}.cls-3{fill:#fdfdfd;}</style><linearGradient id="Degradado_sin_nombre_33" x1="36" y1="-11.5" x2="36" y2="91.02" gradientUnits="userSpaceOnUse"><stop offset="0" stop-color="#29abe2" stop-opacity="0.8"/><stop offset="1" stop-opacity="0.6"/></linearGradient></defs><title>Proveedor</title><g id="Capa_2" data-name="Capa 2"><g id="Capa_1-2" data-name="Capa 1"><circle class="cls-1" cx="36" cy="36" r="36"/><circle class="cls-2" cx="36" cy="36" r="36"/><path class="cls-3" d="M32.89,27.94A2.91,2.91,0,1,0,30,25a2.9,2.9,0,0,0,2.87,2.91Zm0-4.77A1.86,1.86,0,1,1,31.07,25a1.84,1.84,0,0,1,1.82-1.86Z"/><path class="cls-3" d="M50.59,20.75h-3V19.24A1.21,1.21,0,0,0,46.41,18H22.08a1.89,1.89,0,0,0-1.88,1.89V52.08A1.89,1.89,0,0,0,22.08,54H46.41a1.21,1.21,0,0,0,1.2-1.21V39.68a.53.53,0,1,0-1.06,0V52.76a.15.15,0,0,1-.14.16h-.84a.81.81,0,0,0,0-.16V38.16h2.18A1.21,1.21,0,0,0,49,37V34.23a.53.53,0,0,0-.53-.53.52.52,0,0,0-.52.53V37a.16.16,0,0,1-.15.16H45.58v-4.4h3.53a1.21,1.21,0,0,0,1.2-1.21V28.78a.53.53,0,0,0-.53-.53.52.52,0,0,0-.52.53V31.5a.16.16,0,0,1-.15.16H45.58v-4.4h5a1.21,1.21,0,0,0,1.21-1.21V22a1.21,1.21,0,0,0-1.21-1.21ZM22.24,52.92h-.16a.83.83,0,0,1-.82-.84V19.92a.83.83,0,0,1,.82-.84h.16c0,.06,0,.12,0,.18V52.74c0,.06,0,.12,0,.18Zm20.26-.18a.18.18,0,0,1-.18.18H23.46a.18.18,0,0,1-.18-.18V19.26a.18.18,0,0,1,.18-.18H42.32a.18.18,0,0,1,.18.18Zm2,0a.16.16,0,0,1-.15.16h-.84a1.09,1.09,0,0,0,0-.18V19.26a1.09,1.09,0,0,0,0-.18h.84a.16.16,0,0,1,.15.16Zm1-33.68h.84a.15.15,0,0,1,.14.16v1.51h-1V19.24a.81.81,0,0,0,0-.16Zm5.17,7a.14.14,0,0,1-.15.15h-5V21.81h5a.15.15,0,0,1,.15.15Z"/><path class="cls-3" d="M39.65,50.06H36.27a.52.52,0,0,0-.53.52.53.53,0,0,0,.53.53h3.38a.53.53,0,0,0,.53-.53.52.52,0,0,0-.53-.52Z"/><path class="cls-3" d="M39.32,42.25a.52.52,0,0,0,.52-.53V31.84A1.87,1.87,0,0,0,38.45,30a22.31,22.31,0,0,0-5.56-.75,22.22,22.22,0,0,0-5.55.75,1.86,1.86,0,0,0-1.4,1.82v9.88a.53.53,0,0,0,.53.53h2.66a.53.53,0,0,0,.53-.53V34.23a.53.53,0,0,0-.53-.53.52.52,0,0,0-.52.53v7H27V31.84A.85.85,0,0,1,27.6,31a21.51,21.51,0,0,1,5.29-.71,21.44,21.44,0,0,1,5.29.71.84.84,0,0,1,.61.81V41.2H37v-7a.53.53,0,1,0-1,0v7H30.86a.53.53,0,0,0,0,1Z"/></g></g></svg>