<svg xmlns="http://www.w3.org/2000/svg" xmlns:xlink="http://www.w3.org/1999/xlink" viewBox="0 0 72 72"><defs><style>.cls-1{fill:#00aeef;}.cls-2{fill:url(#Degradado_sin_nombre_33);}.cls-3{fill:#fff;}</style><linearGradient id="Degradado_sin_nombre_33" x1="36" y1="-11.5" x2="36" y2="91.02" gradientUnits="userSpaceOnUse"><stop offset="0" stop-color="#29abe2" stop-opacity="0.8"/><stop offset="1" stop-opacity="0.6"/></linearGradient></defs><title>Tipos de actividades</title><g id="Capa_2" data-name="Capa 2"><g id="Capa_1-2" data-name="Capa 1"><circle class="cls-1" cx="36" cy="36" r="36"/><circle class="cls-2" cx="36" cy="36" r="36"/><path class="cls-3" d="M47.81,18H24.19a2.81,2.81,0,0,0-2.81,2.81V51.19A2.81,2.81,0,0,0,24.19,54H47.81a2.81,2.81,0,0,0,2.81-2.81V20.81A2.81,2.81,0,0,0,47.81,18ZM49.5,51.19a1.69,1.69,0,0,1-1.69,1.68H24.19a1.69,1.69,0,0,1-1.69-1.68V20.81a1.69,1.69,0,0,1,1.69-1.68H47.81a1.69,1.69,0,0,1,1.69,1.68Z"/><path class="cls-3" d="M32.62,25.31H42.75a.56.56,0,1,0,0-1.12H32.62a.56.56,0,0,0,0,1.12Z"/><path class="cls-3" d="M46.69,26.44H32.62a.56.56,0,0,0,0,1.12H46.69a.56.56,0,1,0,0-1.12Z"/><path class="cls-3" d="M32.62,29.81H45a.56.56,0,1,0,0-1.12H32.62a.56.56,0,0,0,0,1.12Z"/><path class="cls-3" d="M29.81,42.19h-4.5a.56.56,0,0,0-.56.56v4.5a.56.56,0,0,0,.56.56h4.5a.57.57,0,0,0,.57-.56v-4.5a.57.57,0,0,0-.57-.56Zm-.56,4.5H25.88V43.31h3.37Z"/><path class="cls-3" d="M32.62,43.31H42.75a.56.56,0,0,0,0-1.12H32.62a.56.56,0,0,0,0,1.12Z"/><path class="cls-3" d="M46.69,44.44H32.62a.56.56,0,0,0,0,1.12H46.69a.56.56,0,0,0,0-1.12Z"/><path class="cls-3" d="M45,46.69H32.62a.56.56,0,0,0,0,1.12H45a.56.56,0,0,0,0-1.12Z"/><path class="cls-3" d="M29.81,33.19h-4.5a.56.56,0,0,0-.56.56v4.5a.56.56,0,0,0,.56.56h4.5a.57.57,0,0,0,.57-.56v-4.5a.57.57,0,0,0-.57-.56Zm-.56,4.5H25.88V34.31h3.37Z"/><path class="cls-3" d="M32.62,34.31H42.75a.56.56,0,0,0,0-1.12H32.62a.56.56,0,0,0,0,1.12Z"/><path class="cls-3" d="M46.69,35.44H32.62a.56.56,0,0,0,0,1.12H46.69a.56.56,0,0,0,0-1.12Z"/><path class="cls-3" d="M32.62,38.81H45a.56.56,0,0,0,0-1.12H32.62a.56.56,0,0,0,0,1.12Z"/><path class="cls-3" d="M30.54,23.23l-1,1H27a.56.56,0,0,0,0,1.12h1.45L27,26.77l-1.85-1.86a.59.59,0,0,0-.8,0,.57.57,0,0,0,0,.8l.4.4v3.14a.56.56,0,0,0,.56.56h4.5a.57.57,0,0,0,.57-.56V27.56a.57.57,0,0,0-.57-.56.56.56,0,0,0-.56.56v1.13H25.88V27.23l.72.73a.58.58,0,0,0,.8,0L31.34,24a.56.56,0,0,0,0-.79.57.57,0,0,0-.8,0Z"/></g></g></svg>