<svg xmlns="http://www.w3.org/2000/svg" xmlns:xlink="http://www.w3.org/1999/xlink" viewBox="0 0 72 72"><defs><style>.cls-1{fill:url(#Degradado_sin_nombre_14);}.cls-2{fill:url(#Degradado_sin_nombre_17);}.cls-3{fill:#fff;}</style><linearGradient id="Degradado_sin_nombre_14" x1="36" x2="36" y2="72" gradientUnits="userSpaceOnUse"><stop offset="0.02" stop-color="#667eea" stop-opacity="0.8"/><stop offset="1" stop-color="#764ba2" stop-opacity="0.67"/></linearGradient><linearGradient id="Degradado_sin_nombre_17" x1="36" y1="-11.5" x2="36" y2="91.02" gradientUnits="userSpaceOnUse"><stop offset="0" stop-color="#667eea" stop-opacity="0.8"/><stop offset="1" stop-opacity="0.6"/></linearGradient></defs><title>Unidad de negocio a Usuario</title><g id="Capa_2" data-name="Capa 2"><g id="Capa_1-2" data-name="Capa 1"><circle class="cls-1" cx="36" cy="36" r="36"/><circle class="cls-2" cx="36" cy="36" r="36"/><path class="cls-3" d="M47.11,40.45c-.75-1.57-3.44-3.75-6-5.85-1.45-1.18-2.82-2.29-3.7-3.16a.8.8,0,0,0-.83-.19c-.54.2-.87.35-1.14.46a2.7,2.7,0,0,1-1.07.3.76.76,0,0,0-.58.35c-1.14,1.69-2.31,1.54-3.09,1.28-.25-.08-.29-.19-.32-.29-.16-.7.68-2.34,1.77-3.43,2.6-2.6,3.94-3.25,6.77-2,3.21,1.43,6.43,2.56,6.46,2.57A.8.8,0,0,0,45.86,29s-3.19-1.12-6.34-2.53c-3.66-1.64-5.67-.56-8.55,2.32-1.09,1.09-2.58,3.31-2.19,4.93a2,2,0,0,0,1.37,1.44,4,4,0,0,0,4.7-1.61,4,4,0,0,0,1.2-.38l.56-.24c.91.86,2.15,1.86,3.45,2.91,2.35,1.9,5,4.06,5.61,5.3a.94.94,0,0,1-.24,1.21.88.88,0,0,1-1,.19.79.79,0,0,0-.86,0,.8.8,0,0,0-.39.77,1,1,0,0,1-.61.9,1.22,1.22,0,0,1-1.25,0,.79.79,0,0,0-.83-.16.81.81,0,0,0-.51.67A1.54,1.54,0,0,1,39.06,46a.84.84,0,0,1-.92-.15.84.84,0,0,0-.73-.18.78.78,0,0,0-.56.5c0,.08-.1.27-.85.27a4.63,4.63,0,0,1-2-.67c-.56-.37-4.08-3-7.12-5.54-.43-.36-1.17-1.13-1.82-1.81S24,37.22,23.72,37a.8.8,0,0,0-1.13.09.81.81,0,0,0,.1,1.13c.25.21.73.72,1.26,1.27.71.74,1.45,1.51,1.94,1.93,3,2.49,6.56,5.18,7.27,5.65A6.12,6.12,0,0,0,36,48a2.8,2.8,0,0,0,1.82-.53,2.46,2.46,0,0,0,1.81,0A3.15,3.15,0,0,0,41.3,45.9a3.07,3.07,0,0,0,2-.29,2.68,2.68,0,0,0,1.33-1.39,2.59,2.59,0,0,0,1.83-.66,2.54,2.54,0,0,0,.64-3.11Z"/><path class="cls-3" d="M32.8,27.2H25.61a.8.8,0,0,0,0,1.6H32.8a.8.8,0,0,0,0-1.6Z"/><path class="cls-3" d="M49.46,38.75a.81.81,0,0,0-1.11-.22L46,40.1a.8.8,0,0,0-.22,1.11.79.79,0,0,0,1.11.22l2.34-1.57a.8.8,0,0,0,.22-1.11Z"/><path class="cls-3" d="M44.49,42.57c-.57-.45-3.13-3.07-4.71-4.72a.79.79,0,0,0-1.13,0,.8.8,0,0,0,0,1.13c.41.43,4,4.21,4.88,4.87A.79.79,0,0,0,44,44a.82.82,0,0,0,.63-.31.8.8,0,0,0-.14-1.12Z"/><path class="cls-3" d="M41.3,44.17c-1-.76-3.37-3.32-3.91-3.91a.8.8,0,1,0-1.18,1.08s2.9,3.13,4.09,4.08a.79.79,0,0,0,.5.18.82.82,0,0,0,.62-.3.81.81,0,0,0-.12-1.13Z"/><path class="cls-3" d="M38.12,45.78c-1.14-1-3.48-3.44-3.93-3.93a.8.8,0,0,0-1.13,0,.79.79,0,0,0,0,1.13c.65.7,2.89,3.07,4.06,4.07a.84.84,0,0,0,.52.18.78.78,0,0,0,.61-.28.81.81,0,0,0-.09-1.13Z"/><path class="cls-3" d="M26.16,25.82c-1.38-1.29-6.86-1.71-8.5-1.81a.81.81,0,0,0-.6.21.82.82,0,0,0-.25.59V39.2a.8.8,0,0,0,.8.8h4.8a.8.8,0,0,0,.76-.55c.11-.36,2.87-8.82,3.23-13a.83.83,0,0,0-.24-.65ZM21.82,38.4H18.41V25.66a24.53,24.53,0,0,1,6.35,1.14,82.73,82.73,0,0,1-2.94,11.6Z"/><path class="cls-3" d="M54.39,25.61c-6.28,0-9.76,1.6-9.91,1.67a.81.81,0,0,0-.42.5.78.78,0,0,0,.08.65c1,1.59,4.09,10.42,4.68,12.58a.8.8,0,0,0,.77.59h4.8a.8.8,0,0,0,.8-.8V26.4a.79.79,0,0,0-.8-.79ZM53.59,40h-3.4c-.76-2.47-3-8.91-4.24-11.57a26.14,26.14,0,0,1,7.64-1.22Z"/></g></g></svg>