<svg xmlns="http://www.w3.org/2000/svg" xmlns:xlink="http://www.w3.org/1999/xlink" viewBox="0 0 72 72"><defs><style>.cls-1{fill:#00aeef;}.cls-2{fill:url(#Degradado_sin_nombre_33);}.cls-3{fill:#fff;}</style><linearGradient id="Degradado_sin_nombre_33" x1="36" y1="-11.5" x2="36" y2="91.02" gradientUnits="userSpaceOnUse"><stop offset="0" stop-color="#29abe2" stop-opacity="0.8"/><stop offset="1" stop-opacity="0.6"/></linearGradient></defs><title>Usuarios</title><g id="Capa_2" data-name="Capa 2"><g id="Capa_1-2" data-name="Capa 1"><circle class="cls-1" cx="36" cy="36" r="36"/><circle class="cls-2" cx="36" cy="36" r="36"/><path class="cls-3" d="M47,23.61H44.58V20.09a.69.69,0,0,0-1.38,0v3.52H28.8V20.09a.69.69,0,1,0-1.38,0v3.52H25a.69.69,0,0,0-.7.69V51.91a.69.69,0,0,0,.7.69H47a.69.69,0,0,0,.7-.69V24.3a.69.69,0,0,0-.7-.69ZM25.65,51.22V25h20.7V51.22Z"/><path class="cls-3" d="M43.89,46H29.16a.69.69,0,1,0,0,1.38H43.89a.69.69,0,0,0,0-1.38Z"/><path class="cls-3" d="M40.73,48.06H32.32a.7.7,0,0,0,0,1.39h8.41a.7.7,0,1,0,0-1.39Z"/><path class="cls-3" d="M41.79,44.19h2.1a.69.69,0,0,0,.69-.7v-16a.69.69,0,0,0-.69-.69H28.11a.69.69,0,0,0-.69.69v16a.69.69,0,0,0,.69.7ZM35.11,42.8h-4.2V41.45a4.62,4.62,0,0,1,1.63-3.15,6.25,6.25,0,0,1,2-1.24l.18,0h.42Zm6,0h-4.6V37.09h.86a6.85,6.85,0,0,1,2,1.23,4.52,4.52,0,0,1,1.73,3.14ZM43.2,28.15V42.8h-.72V41.45c0-2.36-2.14-4.62-4.42-5.57A4.38,4.38,0,0,0,38,28.15ZM39,32a3,3,0,1,1-3-3,3,3,0,0,1,3,3ZM29.52,42.8H28.8V28.15h5.12a4.38,4.38,0,0,0-.09,7.7,7.39,7.39,0,0,0-2.23,1.44,5.89,5.89,0,0,0-2.08,4.16Z"/></g></g></svg>