<svg xmlns="http://www.w3.org/2000/svg" xmlns:xlink="http://www.w3.org/1999/xlink" viewBox="0 0 72 72"><defs><style>.cls-1{fill:#00a79d;}.cls-2{fill:url(#Degradado_sin_nombre_24);}.cls-3{fill:#fff;}</style><linearGradient id="Degradado_sin_nombre_24" x1="36" y1="-11.5" x2="36" y2="91.02" gradientUnits="userSpaceOnUse"><stop offset="0" stop-color="#00b8d4" stop-opacity="0.6"/><stop offset="1" stop-opacity="0.8"/></linearGradient></defs><title>Corporativo empleado día</title><g id="Capa_2" data-name="Capa 2"><g id="Capa_1-2" data-name="Capa 1"><circle class="cls-1" cx="36" cy="36" r="36"/><circle class="cls-2" cx="36" cy="36" r="36"/><rect class="cls-3" x="45.93" y="34.96" width="1.43" height="1.43"/><rect class="cls-3" x="45.93" y="37.33" width="1.43" height="1.43"/><rect class="cls-3" x="45.93" y="39.7" width="1.43" height="1.43"/><path class="cls-3" d="M46.65,28.17a4.27,4.27,0,1,0-4.27-4.26A4.26,4.26,0,0,0,46.65,28.17Zm-2.84-4.26a2.84,2.84,0,1,1,2.84,2.84A2.84,2.84,0,0,1,43.81,23.91Z"/><path class="cls-3" d="M34.36,37.17a2.82,2.82,0,0,0-2.08-2.71V29.05H30.84v5.41a2.74,2.74,0,0,0-2,2H25.45v1.44h3.42A2.77,2.77,0,0,0,31.56,40,2.8,2.8,0,0,0,34.36,37.17Zm-1.43,0a1.37,1.37,0,1,1-1.37-1.37A1.37,1.37,0,0,1,32.93,37.15Z"/><path class="cls-3" d="M49.35,28.47l-.39,0-2.31,3.08-2.32-3.08-.38,0a6,6,0,0,0-1.22.22,14,14,0,1,0-.94,18.06v5.61H51.5V42.9h3v-9A5.45,5.45,0,0,0,49.35,28.47ZM30.85,47v2.69a12.39,12.39,0,0,1-4.94-1.32l.57-1-1.24-.72-.57,1a12.49,12.49,0,0,1-3.62-3.62l1-.57-.71-1.24-1,.57A12.43,12.43,0,0,1,19,37.87h2.69V36.43H19a12.43,12.43,0,0,1,1.32-4.94l1,.58.72-1.24-1-.58a12.42,12.42,0,0,1,3.61-3.61l.58,1,1.24-.72-.58-1a12.43,12.43,0,0,1,4.94-1.32v2.7h1.44v-2.7a12.63,12.63,0,0,1,4.94,1.33l-.57,1,1.24.72.58-1a12.67,12.67,0,0,1,2.92,2.65l-.41.29-.09.08,0,0-.35.31-.15.15a4.28,4.28,0,0,0-.37.43.36.36,0,0,0-.07.1l-.07.09-.21.31-.13.23c-.07.12-.12.24-.19.37v0a.91.91,0,0,0-.07.14,3.79,3.79,0,0,0-.19.57c0,.06,0,.13,0,.19s-.06.3-.09.46a.28.28,0,0,1,0,.09s0,.07,0,.1a4.6,4.6,0,0,0,0,.64v9h3v1.59a12.58,12.58,0,0,1-3.33,3.18l-.58-1-1.24.72.58,1a12.74,12.74,0,0,1-4.95,1.32V47Zm19.22-5.56v9.47H47.36v-8.3H45.92v8.3H43.21V41.46h-3V33.9a4.73,4.73,0,0,1,0-.53.15.15,0,0,0,0-.07.43.43,0,0,0,0,0,4.32,4.32,0,0,1,.11-.48s0,0,0-.06,0,0,0-.06a2,2,0,0,1,.16-.39l0-.1a4.36,4.36,0,0,1,.24-.41l.08-.12a3.65,3.65,0,0,1,.29-.37l.07-.07a3.83,3.83,0,0,1,.35-.34l0,0a4.83,4.83,0,0,1,.45-.32l0,0a4.28,4.28,0,0,1,.53-.26l.08,0a3.76,3.76,0,0,1,.84-.23l3,4,3-4a4,4,0,0,1,3.4,4v7.54Z"/></g></g></svg>