<svg xmlns="http://www.w3.org/2000/svg" xmlns:xlink="http://www.w3.org/1999/xlink" viewBox="0 0 72 72"><defs><style>.cls-1{fill:#00a79d;}.cls-2{fill:url(#Degradado_sin_nombre_24);}.cls-3{fill:#fff;}</style><linearGradient id="Degradado_sin_nombre_24" x1="36" y1="-11.5" x2="36" y2="91.02" gradientUnits="userSpaceOnUse"><stop offset="0" stop-color="#00b8d4" stop-opacity="0.6"/><stop offset="1" stop-opacity="0.8"/></linearGradient></defs><title>Horas vs pptos</title><g id="Capa_2" data-name="Capa 2"><g id="Capa_1-2" data-name="Capa 1"><circle class="cls-1" cx="36" cy="36" r="36"/><circle class="cls-2" cx="36" cy="36" r="36"/><path class="cls-3" d="M34.77,33.13V28.2H33.64v4.93a2,2,0,1,0,2.48,2.48h2.76V34.48H36.12a2,2,0,0,0-1.35-1.35Zm-.56,2.78a.87.87,0,1,1,.86-.87.87.87,0,0,1-.86.87Z"/><rect class="cls-3" x="35.91" y="42.65" width="10.17" height="1.13"/><rect class="cls-3" x="47.11" y="42.65" width="2.14" height="1.13"/><rect class="cls-3" x="35.91" y="44.91" width="10.17" height="1.13"/><rect class="cls-3" x="47.11" y="44.91" width="2.14" height="1.13"/><rect class="cls-3" x="35.91" y="47.17" width="10.17" height="1.13"/><rect class="cls-3" x="47.11" y="47.17" width="2.14" height="1.13"/><rect class="cls-3" x="35.91" y="49.43" width="10.17" height="1.13"/><rect class="cls-3" x="47.11" y="49.43" width="2.14" height="1.13"/><path class="cls-3" d="M53.58,51.27,51.52,39.05H49.47A15.78,15.78,0,1,0,33.64,50.81v1.93H51.52V51.27Zm-1.35-1.13h-.71v-4ZM19.56,35a14.65,14.65,0,1,1,28.74,4H45.87a12.34,12.34,0,1,0-12.23,8.31v2.32A14.66,14.66,0,0,1,19.56,35ZM33.64,45.28v.95A11.22,11.22,0,0,1,23,35.61H24V34.48H23A11.21,11.21,0,0,1,33.64,23.86v.95h1.13v-.95A11.2,11.2,0,0,1,45.39,34.48h-1v1.13h1a11.23,11.23,0,0,1-.72,3.44h-11Zm16.75,6.33H34.77V40.18H50.39Z"/></g></g></svg>