<svg xmlns="http://www.w3.org/2000/svg" xmlns:xlink="http://www.w3.org/1999/xlink" viewBox="0 0 72 72"><defs><style>.cls-1{fill:#00a79d;}.cls-2{fill:url(#Degradado_sin_nombre_24);}.cls-3{fill:#fff;}</style><linearGradient id="Degradado_sin_nombre_24" x1="36" y1="-11.5" x2="36" y2="91.02" gradientUnits="userSpaceOnUse"><stop offset="0" stop-color="#00b8d4" stop-opacity="0.6"/><stop offset="1" stop-opacity="0.8"/></linearGradient></defs><title>Indicador corporativo</title><g id="Capa_2" data-name="Capa 2"><g id="Capa_1-2" data-name="Capa 1"><circle class="cls-1" cx="36" cy="36" r="36"/><circle class="cls-2" cx="36" cy="36" r="36"/><path class="cls-3" d="M36,54.21A18.21,18.21,0,1,1,54.21,36,18.23,18.23,0,0,1,36,54.21Zm0-35.12A16.91,16.91,0,1,0,52.91,36,16.92,16.92,0,0,0,36,19.09Z"/><path class="cls-3" d="M36,51.22A15.22,15.22,0,1,1,51.22,36,15.24,15.24,0,0,1,36,51.22Zm0-29.14A13.92,13.92,0,1,0,49.92,36,13.93,13.93,0,0,0,36,22.08Z"/><path class="cls-3" d="M42.65,39.54s-5.18-5.26-5.43-5.43a2.25,2.25,0,1,0-2.44,3.78C35,38.05,42,40.61,42,40.61ZM35.2,35.48a.94.94,0,0,1,.6-.41.68.68,0,0,1,.2,0,1,1,0,0,1,.52.15,1,1,0,0,1,.28,1.32.94.94,0,0,1-.6.41,1,1,0,0,1-.72-.13.94.94,0,0,1-.41-.6,1,1,0,0,1,.13-.72Zm2.4,2.1a3.51,3.51,0,0,0,.29-.36,3.17,3.17,0,0,0,.21-.41l1.53,1.54Z"/><path class="cls-3" d="M35.35,23.26h1.3v3.3h-1.3Zm-2,.26.85,3.19-1.25.34-.85-3.19Zm-3.14,1.12,1.65,2.86-1.12.65-1.65-2.86Zm-2.74,1.89,2.33,2.34-.91.91-2.34-2.33Zm-2.16,2.54,2.86,1.65-.65,1.12-2.86-1.65Zm-1.43,3,3.19.85-.34,1.25-3.19-.85Zm21.43,5.74,3.19.85-.34,1.25L45,39.07Zm-22-2.47h3.3v1.3h-3.3Zm3.45,2.47.34,1.25-3.19.85-.34-1.25Zm21.43-5.74.34,1.24-3.19.86L45,32.93ZM27.5,40.16l.65,1.12-2.86,1.65-.65-1.12Zm1.37,2.06.91.91-2.34,2.34-.91-.92ZM44.55,26.53l.92.92-2.34,2.33-.91-.91Zm-5.88-3,1.25.34-.85,3.19-1.25-.34Z"/></g></g></svg>