<svg xmlns="http://www.w3.org/2000/svg" xmlns:xlink="http://www.w3.org/1999/xlink" viewBox="0 0 72 72"><defs><style>.cls-1{fill:#00a79d;}.cls-2{fill:url(#Degradado_sin_nombre_24);}.cls-3{fill:#fff;}</style><linearGradient id="Degradado_sin_nombre_24" x1="36" y1="-11.5" x2="36" y2="91.02" gradientUnits="userSpaceOnUse"><stop offset="0" stop-color="#00b8d4" stop-opacity="0.6"/><stop offset="1" stop-opacity="0.8"/></linearGradient></defs><title>registar actividades</title><g id="Capa_2" data-name="Capa 2"><g id="Capa_1-2" data-name="Capa 1"><circle class="cls-1" cx="36" cy="36" r="36"/><circle class="cls-2" cx="36" cy="36" r="36"/><path class="cls-3" d="M56.05,27.85l-5-5a.18.18,0,0,0-.25,0L44.57,29.1a.18.18,0,0,1-.3-.13V19.74a.18.18,0,0,0-.18-.18H23.16a.21.21,0,0,0-.13.05l-5.1,5.11a.16.16,0,0,0-.06.13V52.26a.19.19,0,0,0,.18.18h26a.18.18,0,0,0,.18-.18V40a.19.19,0,0,1,0-.13L53,31.2l.55.55-6.95,7a.72.72,0,0,0,0,1l.08.08a.72.72,0,0,0,1,0l7.92-7.92a.19.19,0,0,0,0-.26l-1.39-1.39a.19.19,0,0,1,0-.26l1.86-1.86A.19.19,0,0,0,56.05,27.85ZM20.53,24.32l2.1-2.11v1.93a.18.18,0,0,1-.18.18ZM35.15,42.91l.05-.25a.72.72,0,0,1,1.22-.37l.2.2a.72.72,0,0,1-.36,1.22l-.26,0A.72.72,0,0,1,35.15,42.91Zm-11-17.22v-4.4a.18.18,0,0,1,.18-.18H42.53a.18.18,0,0,1,.18.18v9.59a.19.19,0,0,1-.05.13l-8.34,8.34a.26.26,0,0,0,0,.09L33,45.7a.18.18,0,0,0,.21.22l6.28-1.28h0l2.88-2.88a.18.18,0,0,1,.3.13v8.83a.18.18,0,0,1-.18.18H19.61a.18.18,0,0,1-.18-.18V26.05a.18.18,0,0,1,.18-.18H24A.18.18,0,0,0,24.18,25.69Zm27.55,4.54L39.27,42.69a.18.18,0,0,1-.25,0l-2.8-2.79a.19.19,0,0,1,0-.26L48.69,27.18a.18.18,0,0,1,.25,0L51.73,30A.17.17,0,0,1,51.73,30.23Zm1.74-1.74h0a.72.72,0,0,1-1,0l-2-2a.72.72,0,0,1,0-1h0a.72.72,0,0,1,1,0l2,2A.72.72,0,0,1,53.47,28.49Z"/><rect class="cls-3" x="23.59" y="29.66" width="14.97" height="1.55" rx="0.72" ry="0.72"/><rect class="cls-3" x="23.59" y="32.7" width="13.52" height="1.55" rx="0.72" ry="0.72"/><rect class="cls-3" x="23.59" y="35.74" width="11.04" height="1.55" rx="0.72" ry="0.72"/><rect class="cls-3" x="23.59" y="38.78" width="8.83" height="1.55" rx="0.72" ry="0.72"/></g></g></svg>