<svg xmlns="http://www.w3.org/2000/svg" xmlns:xlink="http://www.w3.org/1999/xlink" viewBox="0 0 72 72"><defs><style>.cls-1{fill:#757575;}.cls-2{fill:url(#Degradado_sin_nombre_11);}.cls-3{fill:#fdfdfd;}</style><linearGradient id="Degradado_sin_nombre_11" x1="36" y1="-11.5" x2="36" y2="91.02" gradientUnits="userSpaceOnUse"><stop offset="0" stop-color="#00bfa5" stop-opacity="0.8"/><stop offset="1" stop-opacity="0.8"/></linearGradient></defs><title>Paramterización</title><g id="Capa_2" data-name="Capa 2"><g id="Capa_1-2" data-name="Capa 1"><circle class="cls-1" cx="36" cy="36" r="36"/><circle class="cls-2" cx="36" cy="36" r="36"/><path class="cls-3" d="M54.78,25.5a4.93,4.93,0,0,0-4.13,7.62l-5.32,5.32a5,5,0,0,0-2.69-.8,4.89,4.89,0,0,0-2.77.86l-5.38-5.38a4.93,4.93,0,1,0-8.26,0l-5.32,5.32a4.93,4.93,0,1,0,1.44,1.44l5.32-5.32a4.92,4.92,0,0,0,5.38,0L38.46,40a4.93,4.93,0,1,0,9.11,2.6,5,5,0,0,0-.8-2.69l5.32-5.32a4.93,4.93,0,1,0,2.69-9.06Zm-36.56,20a2.89,2.89,0,1,1,2.89-2.89A2.89,2.89,0,0,1,18.22,45.46Zm9.25-15a2.89,2.89,0,1,1,2.89,2.89A2.89,2.89,0,0,1,27.47,30.43Zm15.17,15a2.89,2.89,0,1,1,2.89-2.89A2.89,2.89,0,0,1,42.64,45.46ZM54.78,33.32a2.89,2.89,0,1,1,2.89-2.89A2.9,2.9,0,0,1,54.78,33.32Z"/><path class="cls-3" d="M27.88,38,25.8,40.09a1,1,0,0,0,0,1.44,1,1,0,0,0,.72.3,1,1,0,0,0,.72-.3l2.08-2.07a1,1,0,0,0,0-1.44A1,1,0,0,0,27.88,38Z"/><path class="cls-3" d="M44.4,35.32a1,1,0,0,0,.72-.3L47.2,33a1,1,0,0,0-1.45-1.44l-2.07,2.07a1,1,0,0,0,.72,1.74Z"/></g></g></svg>